<?xml version="1.0" encoding="UTF-8"?>
<svg id="Layer_1" data-name="Layer 1" xmlns="http://www.w3.org/2000/svg" viewBox="0 0 360 360">
  <defs>
    <style>
      .cls-1 {
        fill: #fff;
      }
    </style>
  </defs>
  <path id="gear" class="cls-1" d="M64.06,158.38l-26.21-15.13c-.91-.52-1.71-1.22-2.35-2.06-.64-.83-1.11-1.78-1.38-2.8-.27-1.01-.34-2.07-.2-3.11.14-1.04.48-2.04,1.01-2.95l31.24-54.12c.52-.91,1.22-1.71,2.05-2.35.83-.64,1.79-1.11,2.8-1.38s2.08-.34,3.12-.2c1.04.14,2.05.48,2.96,1.01l26.56,15.34c3.7,1.98,7.85,2.99,12.05,2.92,4.2-.07,8.31-1.21,11.95-3.31,3.64-2.1,6.68-5.09,8.84-8.7,2.16-3.6,3.36-7.7,3.5-11.9v-33.63c0-2.12.84-4.16,2.34-5.66s3.53-2.34,5.66-2.34h64c2.12,0,4.16.84,5.66,2.34s2.34,3.53,2.34,5.66v33.63c.14,4.2,1.34,8.29,3.5,11.89,2.16,3.6,5.2,6.6,8.84,8.7,3.64,2.1,7.75,3.24,11.95,3.31,4.2.07,8.35-.93,12.05-2.91l26.55-15.34c1.84-1.06,4.02-1.34,6.07-.79,2.05.55,3.8,1.89,4.86,3.72l31.25,54.12c.52.91.86,1.91,1,2.95.14,1.04.07,2.1-.21,3.11-.27,1.01-.74,1.96-1.38,2.8-.64.83-1.44,1.53-2.35,2.05l-25.92,14.97c-3.8,2.22-6.96,5.41-9.15,9.23-2.19,3.82-3.35,8.15-3.35,12.56s1.15,8.74,3.35,12.56c2.19,3.82,5.35,7,9.15,9.23l25.92,14.97c.91.52,1.71,1.22,2.35,2.06.64.83,1.11,1.78,1.38,2.8.27,1.01.34,2.07.2,3.11-.14,1.04-.48,2.04-1.01,2.95l-31.24,54.11c-.52.91-1.22,1.71-2.05,2.36s-1.78,1.11-2.8,1.39-2.08.34-3.12.2c-1.04-.14-2.05-.48-2.96-1.01l-26.56-15.34c-3.7-1.98-7.85-2.98-12.05-2.92-4.2.07-8.31,1.21-11.95,3.31-3.64,2.1-6.68,5.09-8.84,8.7-2.16,3.6-3.36,7.7-3.5,11.9v33.63c0,2.12-.84,4.16-2.34,5.66s-3.53,2.34-5.66,2.34h-64c-2.12,0-4.16-.84-5.66-2.34s-2.34-3.53-2.34-5.66v-33.63c-.04-4.23-1.21-8.37-3.39-11.99-2.18-3.62-5.28-6.6-9-8.62-3.78-2.23-8.08-3.41-12.47-3.44-4.03,0-7.99,1.05-11.48,3.07l-26.55,15.34c-1.84,1.06-4.02,1.34-6.07.79-2.05-.55-3.8-1.89-4.86-3.72l-31.25-54.13c-.52-.91-.86-1.91-1-2.95-.14-1.04-.07-2.1.21-3.11.27-1.01.74-1.96,1.38-2.8.64-.83,1.44-1.53,2.35-2.05l26.2-15.13c3.66-2.3,6.68-5.49,8.77-9.27,2.09-3.78,3.19-8.03,3.19-12.35s-1.1-8.57-3.19-12.35c-2.09-3.78-5.11-6.97-8.77-9.27ZM29.87,202.9c-2.73,1.57-5.13,3.67-7.05,6.17-1.92,2.5-3.33,5.35-4.15,8.4-.82,3.04-1.03,6.22-.62,9.35.41,3.12,1.43,6.14,3.01,8.87l31.24,54.12c3.19,5.5,8.44,9.52,14.58,11.16,6.15,1.65,12.69.79,18.21-2.38l26.56-15.34c1.27-.66,2.69-.97,4.12-.89,1.43.08,2.81.54,3.99,1.34,1.23.64,2.27,1.59,3.02,2.76s1.16,2.52,1.21,3.91v33.63c0,6.36,2.54,12.46,7.04,16.96s10.6,7.03,16.96,7.04h64c6.36,0,12.46-2.54,16.96-7.04,4.5-4.5,7.03-10.6,7.04-16.96v-33.63c.06-1.42.5-2.8,1.28-3.99.77-1.19,1.85-2.15,3.12-2.79,1.17-.76,2.53-1.19,3.92-1.25,1.39-.06,2.78.25,4.02.9l26.57,15.34c5.51,3.17,12.06,4.03,18.21,2.38,6.15-1.65,11.39-5.67,14.57-11.17l31.23-54.11c1.58-2.73,2.6-5.74,3.02-8.87.41-3.13.21-6.3-.61-9.35-.82-3.05-2.22-5.9-4.14-8.4-1.92-2.5-4.31-4.6-7.04-6.17l-25.92-14.97c-1.4-.82-2.55-2-3.35-3.42-.79-1.42-1.19-3.02-1.15-4.64,0-1.58.42-3.13,1.21-4.5.79-1.37,1.93-2.51,3.29-3.3l25.91-14.97c2.73-1.57,5.13-3.67,7.05-6.17,1.92-2.5,3.33-5.35,4.15-8.4.82-3.04,1.03-6.22.61-9.35-.41-3.13-1.43-6.14-3.01-8.87l-31.24-54.12c-3.19-5.5-8.43-9.52-14.58-11.17-6.15-1.65-12.69-.79-18.21,2.38l-26.56,15.34c-1.27.65-2.69.96-4.12.88-1.43-.08-2.8-.54-3.99-1.33-1.23-.64-2.27-1.59-3.02-2.76-.74-1.17-1.16-2.52-1.21-3.91v-33.63c0-6.36-2.54-12.46-7.04-16.96-4.5-4.5-10.6-7.03-16.96-7.04h-64c-6.36,0-12.46,2.54-16.96,7.04s-7.03,10.6-7.04,16.96v33.63c-.13,1.39-.6,2.72-1.35,3.89-.75,1.17-1.78,2.15-2.98,2.84-1.21.7-2.56,1.1-3.95,1.16-1.39.07-2.78-.2-4.05-.77l-26.57-15.34c-5.52-3.17-12.06-4.02-18.21-2.37-6.14,1.65-11.38,5.66-14.58,11.16l-31.23,54.11c-1.58,2.73-2.6,5.74-3.02,8.87-.41,3.13-.21,6.3.61,9.35.82,3.05,2.22,5.9,4.14,8.4,1.92,2.5,4.31,4.6,7.04,6.17l26.2,15.13c1.3.84,2.35,2.01,3.05,3.4.7,1.38,1.01,2.93.9,4.48.08,1.51-.25,3.02-.94,4.36-.69,1.34-1.73,2.48-3.01,3.29l-26.2,15.13ZM180,140c7.91,0,15.65,2.35,22.22,6.74,6.58,4.4,11.71,10.64,14.73,17.95,3.03,7.31,3.82,15.35,2.28,23.11-1.54,7.76-5.35,14.89-10.95,20.48-5.59,5.59-12.72,9.4-20.48,10.95-7.76,1.54-15.8.75-23.11-2.28-7.31-3.03-13.56-8.15-17.95-14.73-4.4-6.58-6.74-14.31-6.74-22.22.01-10.6,4.23-20.77,11.73-28.27,7.5-7.5,17.67-11.72,28.27-11.73ZM180,236c11.08,0,21.9-3.28,31.11-9.44,9.21-6.15,16.39-14.9,20.63-25.13,4.24-10.23,5.35-21.49,3.19-32.36-2.16-10.86-7.49-20.84-15.33-28.67-7.83-7.83-17.81-13.17-28.67-15.33-10.86-2.16-22.12-1.05-32.36,3.19-10.23,4.24-18.98,11.42-25.13,20.63-6.15,9.21-9.44,20.04-9.44,31.11.02,14.85,5.92,29.08,16.42,39.58,10.5,10.5,24.73,16.4,39.58,16.42Z"/>
</svg>