<?xml version="1.0" encoding="UTF-8"?>
<svg id="Layer_1" data-name="Layer 1" xmlns="http://www.w3.org/2000/svg" viewBox="0 0 360 360">
  <defs>
    <style>
      .cls-1 {
        fill: #fff;
      }
    </style>
  </defs>
  <path id="filter" class="cls-1" d="M61.21,60.31c-.71-1.01-1.13-2.21-1.19-3.45s.22-2.47.83-3.55c.9-1.53,2.21-2.79,3.77-3.64,1.56-.85,3.33-1.25,5.1-1.18h220.56c1.78-.08,3.54.33,5.1,1.18,1.56.85,2.87,2.1,3.77,3.64.6,1.06.89,2.27.84,3.48-.05,1.22-.44,2.39-1.13,3.4l-93.45,135.77c-.92,1.33-1.41,2.92-1.41,4.54v112c0,2.12-.84,4.16-2.34,5.66s-3.53,2.34-5.66,2.34h-32c-2.12,0-4.16-.84-5.66-2.34s-2.34-3.53-2.34-5.66v-112c0-1.62-.49-3.2-1.41-4.54L61.21,60.31ZM164,336.5h32c6.36,0,12.46-2.54,16.96-7.04,4.5-4.5,7.03-10.6,7.04-16.96v-109.52l92.12-133.83c2.32-3.42,3.66-7.41,3.86-11.54.2-4.13-.74-8.23-2.72-11.86-2.27-4.08-5.61-7.47-9.66-9.8s-8.65-3.53-13.32-3.45H69.71c-4.67-.08-9.27,1.12-13.32,3.45-4.05,2.33-7.38,5.72-9.66,9.8-1.98,3.65-2.92,7.78-2.7,11.93.22,4.15,1.57,8.16,3.92,11.59l92.04,133.71v109.52c0,6.36,2.54,12.46,7.04,16.96,4.5,4.5,10.6,7.03,16.96,7.04Z"/>
</svg>