<?xml version="1.0" encoding="UTF-8"?>
<svg id="Layer_1" data-name="Layer 1" xmlns="http://www.w3.org/2000/svg" viewBox="0 0 360 360">
  <defs>
    <style>
      .cls-1 {
        fill: #fff;
      }
    </style>
  </defs>
  <path id="folder_download" data-name="folder download" class="cls-1" d="M233.66,213.79c.74.74,1.33,1.62,1.73,2.59.4.97.61,2.01.61,3.06s-.21,2.09-.61,3.06c-.4.97-.99,1.85-1.73,2.59l-48,48c-.74.74-1.62,1.33-2.59,1.73s-2.01.61-3.06.61-2.09-.21-3.06-.61c-.97-.4-1.85-.99-2.59-1.73l-48-48c-1.46-1.51-2.26-3.53-2.25-5.63.02-2.1.86-4.1,2.34-5.59,1.48-1.48,3.49-2.32,5.59-2.34,2.1-.02,4.12.79,5.63,2.25l34.34,34.34v-76.69c0-2.12.84-4.16,2.34-5.66,1.5-1.5,3.53-2.34,5.66-2.34s4.16.84,5.66,2.34c1.5,1.5,2.34,3.54,2.34,5.66v76.69l34.34-34.34c.74-.74,1.62-1.33,2.59-1.73.97-.4,2.01-.61,3.06-.61s2.09.21,3.06.61,1.85.99,2.59,1.73ZM332,283.45c0,6.36-2.54,12.46-7.04,16.96-4.5,4.5-10.6,7.03-16.96,7.04H52c-6.36,0-12.46-2.54-16.96-7.04-4.5-4.5-7.03-10.6-7.04-16.96V91.45c0-6.36,2.54-12.46,7.04-16.96,4.5-4.5,10.6-7.03,16.96-7.04h78.88c3.95,0,7.84.97,11.33,2.83,3.48,1.86,6.45,4.56,8.64,7.85l22.5,33.75c.73,1.1,1.72,1.99,2.88,2.62,1.16.62,2.46.95,3.77.95h128c6.36,0,12.46,2.54,16.96,7.04,4.5,4.5,7.03,10.6,7.04,16.96v144ZM308,99.45h-123.72l-20.12-30.19c-3.65-5.48-8.59-9.98-14.4-13.09-5.81-3.11-12.29-4.73-18.88-4.72H52c-10.6.01-20.77,4.23-28.27,11.73-7.5,7.5-11.72,17.67-11.73,28.27v192c.01,10.6,4.23,20.77,11.73,28.27,7.5,7.5,17.67,11.72,28.27,11.73h256c10.61-.01,20.77-4.23,28.27-11.73s11.72-17.67,11.73-28.27v-144c-.01-10.61-4.23-20.77-11.73-28.27s-17.67-11.72-28.27-11.73Z"/>
</svg>