<?xml version="1.0" encoding="UTF-8" standalone="no"?>
<!-- Created with Inkscape (http://www.inkscape.org/) -->

<svg
   version="1.1"
   id="svg1"
   width="720"
   height="900"
   viewBox="0 0 720 900"
   sodipodi:docname="UNH-Grid-Topo_Port-720x90.eps"
   xmlns:inkscape="http://www.inkscape.org/namespaces/inkscape"
   xmlns:sodipodi="http://sodipodi.sourceforge.net/DTD/sodipodi-0.dtd"
   xmlns="http://www.w3.org/2000/svg"
   xmlns:svg="http://www.w3.org/2000/svg">
  <defs
     id="defs1" />
  <sodipodi:namedview
     id="namedview1"
     pagecolor="#ffffff"
     bordercolor="#000000"
     borderopacity="0.25"
     inkscape:showpageshadow="2"
     inkscape:pageopacity="0.0"
     inkscape:pagecheckerboard="0"
     inkscape:deskcolor="#d1d1d1">
    <inkscape:page
       x="0"
       y="0"
       inkscape:label="1"
       id="page1"
       width="720"
       height="900"
       margin="0"
       bleed="0" />
  </sodipodi:namedview>
  <g
     id="g1"
     inkscape:groupmode="layer"
     inkscape:label="1">
    <path
       id="path1"
       d="m 742.031,3769.14 c -4.371,0 -8.75,0.24 -13.011,0.78 -54.84,6.64 -101.641,44.53 -139.141,74.96 -91.52,74.34 -195.27,158.71 -259.957,269.38 -34.844,59.72 -58.473,126.95 -81.402,191.99 -34.418,97.81 -66.801,190.23 -134.34,261.52 -46.5589,49.11 -108.91047,84.69 -185.3909,107.5 v 14.3 c 80.55074,-23.48 146.1718,-60.59 195.0819,-112.19 69.57,-73.47 104.098,-171.6 137.418,-266.44 22.621,-64.38 46.051,-130.98 80.231,-189.57 63.402,-108.52 161.761,-188.4 256.8,-265.55 36.211,-29.37 81.168,-65.94 132.301,-72.15 3.758,-0.43 7.578,-0.66 11.41,-0.66 24.918,0 50.508,9.37 69.02,25.62 11.097,9.73 24.301,26.33 25.16,50 0.309,24.14 -11.41,46.53 -24.301,69.77 -10.308,18.63 -20.969,37.85 -25.109,59.37 -10.551,55.43 23.508,101.18 56.679,145.47 21.52,28.95 43.79,58.75 54.219,91.37 38.551,121.8 -88.32,228.87 -181.14,307.15 -233.75,197.22 -411.68,502.26 -488.278,836.91 -53.59,234.14 -40.703,471.1 36.207,666.99 135.242,344.38 516.532,590.16 903.282,590.16 19.42,0 38.71,-0.66 58.09,-1.84 34.96,-2.18 70.31,-6.44 104.41,-10.5 50.51,-5.98 102.39,-12.11 153.95,-12.11 6.83,0 13.63,0 20.35,0.35 82.89,2.81 183.98,24.22 219.49,75.86 23.44,34.02 2.03,67.34 -22.69,105.86 -19.49,30.47 -39.65,61.87 -39.96,97.69 v 0.98 c 0,16.6 4.68,32.42 9.37,47.69 4.26,14.07 8.2,27.27 8.75,41.06 v 2.62 c 0,26.72 -14.8,53.36 -37.5,66.79 -16.41,9.69 -36.37,13.52 -58.2,13.52 -49.22,0 -108.13,-19.53 -158.63,-36.25 -26.65,-8.83 -51.68,-17.11 -72.35,-21.6 -54.76,-11.88 -110.58,-17.58 -166.33,-17.58 -241.641,0 -481.129,108.28 -630.5,294.37 -31.329,38.99 -55.399,82 -71.411,126.29 h 14.493 c 15.589,-41.13 38.168,-81.09 67.347,-117.46 146.91,-182.93 382.379,-289.33 620.001,-289.33 54.76,0 109.6,5.66 163.63,17.34 19.92,4.38 44.76,12.58 70.97,21.29 51.33,17.03 111.33,36.91 162.78,36.91 24.1,0 46.25,-4.37 64.88,-15.27 27.74,-16.41 45.82,-49.57 44.22,-81.99 -0.51,-15.51 -5,-30.35 -9.26,-44.65 -4.49,-14.92 -8.75,-29.02 -8.75,-43.63 v -0.78 c 0.35,-31.76 19.42,-61.45 37.85,-90.28 25.12,-39.18 51.02,-79.65 22.35,-121.48 -48.13,-70.28 -188.24,-80.31 -230,-81.72 -6.96,-0.24 -13.99,-0.35 -20.9,-0.35 -52.19,0 -104.61,6.25 -155.35,12.22 -33.99,4.07 -69.26,8.21 -103.75,10.39 -19.07,1.18 -38.24,1.84 -57.35,1.84 -381.399,0 -757.301,-242.19 -890.579,-581.41 -75.863,-193.39 -88.562,-427.3 -35.589,-658.59 75.859,-331.8 252.187,-634.14 483.707,-829.41 95.671,-80.78 226.921,-191.45 185.39,-322.07 -11.09,-34.85 -34.097,-65.71 -56.25,-95.51 -32.73,-43.87 -63.508,-85.35 -54.14,-134.49 3.64,-19.18 13.75,-37.43 23.671,-55.12 12.782,-23.13 26.098,-47.03 26.098,-74.42 v -2.61 c -0.738,-22.74 -11.098,-43.56 -29.848,-60.16 -20.851,-18.32 -49.761,-28.9 -77.89,-28.9"
       style="fill:#003594;fill-opacity:1;fill-rule:nonzero;stroke:none"
       transform="matrix(0.13333333,0,0,-0.13333333,0,900)" />
    <path
       id="path2"
       d="m 3162.93,6400.43 c -101.21,0 -198.4,32.62 -264.45,110.78 -14.07,16.72 -26.64,32.11 -38.25,46.41 -51.25,63.08 -85.11,104.76 -167.38,150.5 -148.71,82.5 -244.18,207.7 -276.05,362.04 -21.96,106.4 -11.18,219.92 29.41,328.75 h 14.49 c -41.13,-107.74 -52.3,-220.39 -30.58,-325.82 30.9,-150.16 124.02,-272.07 269.26,-352.66 84.57,-46.91 120.89,-91.68 171.32,-153.75 11.6,-14.34 24.07,-29.61 38.13,-46.29 63.28,-74.88 156.6,-106.09 254.1,-106.09 84.69,0 172.62,23.67 246.76,62.85 99.61,52.85 186.99,128.79 271.36,202.26 53.17,46.29 108.17,94.07 166.02,135.98 123.05,89.3 251.64,135.78 366.41,135.78 56.25,0 109.29,-11.25 156.72,-34.02 24.49,-11.8 47.81,-26.76 70.31,-41.29 29.72,-19.1 60.51,-38.83 93.75,-50.98 18.12,-6.52 38.16,-10.04 57.73,-10.04 41.99,0 82.58,15.94 100.71,51.64 51.79,101.29 -100.59,268.17 -173.79,348.29 -7.23,7.96 -13.95,15.19 -19.69,21.71 -51.99,58.09 -108.17,112.43 -167.7,162.43 h 21.21 c 55.39,-47.5 107.7,-98.68 156.49,-153.13 5.74,-6.44 12.38,-13.67 19.61,-21.52 68.83,-75.31 188.05,-205.86 188.05,-311.06 0,-18.67 -3.72,-36.56 -12.23,-53.16 -21.21,-41.56 -66.1,-59.26 -111.88,-59.26 -21.64,0 -43.47,3.95 -63.2,11.02 -34.73,12.54 -66.05,32.73 -96.41,52.3 -22.18,14.18 -45.07,28.91 -68.82,40.35 -45.63,21.96 -96.76,32.78 -151.1,32.78 -111.87,0 -237.58,-45.63 -358.4,-133.28 -57.34,-41.61 -112.11,-89.18 -165.04,-135.36 -85.03,-73.98 -172.92,-150.39 -273.94,-203.98 -75.86,-40.16 -165.78,-64.3 -252.81,-64.3"
       style="fill:#003594;fill-opacity:1;fill-rule:nonzero;stroke:none"
       transform="matrix(0.13333333,0,0,-0.13333333,0,900)" />
    <path
       id="path3"
       d="m 3902.66,-656.211 h -24.07 c -30.89,21.602 -60.5,45.621 -88.98,68.75 -30.66,24.883 -59.65,48.363 -88.4,67.77 -80.35,54.492 -171.76,77.273 -264.33,77.273 -144.38,0 -291.65,-55.551 -404.15,-133.793 -33.86,-23.59 -67.34,-50.117 -101.01,-80 h -20.43 c 38.01,34.613 75.62,64.84 113.87,91.441 114.53,79.692 264.57,136.25 411.79,136.25 95.04,0 189.03,-23.468 271.72,-79.492 29.3,-19.836 58.48,-43.508 89.38,-68.508 34.18,-27.742 68.94,-55.781 104.61,-79.57 m 355.35,-0.121 h -24.53 c 1.6,1.09 3.2,2.191 4.8,3.281 32.38,22.032 65.86,44.84 103.24,58.051 49.34,17.461 98.25,24.57 145.55,31.438 73.4,10.711 142.66,20.742 208.59,67.113 111.57,78.48 124.46,164.73 140.86,273.75 5.75,37.887 11.6,76.957 22.07,119.297 12.46,50.1208 32.07,99.22241 51.02,146.8005 29.22,73.1215 59.37,148.6715 63.4,228.6715 6.6,131.829 -66.06,216.438 -142.97,305.7 -41.45,48.05 -84.3,97.808 -114.65,156.089 -47.42,90.942 -66.37,194.731 -78.63,284.22 -2.23,16.14 -4.26,32.19 -6.41,48.36 -7.77,59.46 -15.74,120.82 -29.3,179.96 -8.71,38.44 -24.92,73.79 -40.58,108.05 -13.01,28.4 -26.41,57.77 -35.47,88.52 -37.62,127.61 -4.8,300.39 44.53,415 7.66,17.89 15.78,35.7 23.87,53.71 36.33,80.74 74.06,164.33 80.86,252.97 6.72,86.01 -22.81,153.35 -54.14,224.84 -17.66,40.51 -35.98,82.3 -47.62,128.36 -16.41,64.96 -6.29,132.3 6.41,201.48 13.94,76.1 29.72,149.53 69.25,212.31 49.77,79.02 102.39,118.94 156.61,118.94 1.91,0 3.86,0 5.78,-0.08 121.75,-6.44 222.54,-209.68 289.25,-344.14 14.69,-29.68 27.39,-55.23 38.25,-74.57 32.81,-58.39 87.57,-110.11 143.94,-110.11 9.49,0 18.87,1.4 28.32,4.57 63.64,20.86 86.84,105.47 76.64,177.93 -55.5,400.11 -203.83,811.83 -406.91,1129.53 -77.97,122.03 -196.37,278.9 -344.45,278.9 -10.67,0 -21.53,-0.78 -32.5,-2.53 -29.93,-4.58 -63.05,-9.81 -95.55,-9.81 -41.25,0 -81.41,8.28 -112.62,36.33 -39.96,35.82 -56.68,99.22 -45.82,173.67 3.71,25.74 10,51.17 15.98,75.86 8.08,32.85 16.29,66.8 18.51,100.74 2.89,43.87 -4.33,89.06 -11.36,132.7 -8.56,52.93 -17.27,107.85 -8.44,161.76 18.32,110.89 104.41,184.68 154.06,218.75 60.51,41.56 129.03,70.07 195.31,97.65 15,6.37 30.12,12.58 45.16,19.03 209.8,90.03 404.88,211.17 579.92,359.96 43.79,37.22 93.01,81.64 122.74,138.82 3.94,7.54 7.38,15.04 10.35,22.82 v -31.88 c -30.9,-58.08 -80.35,-102.93 -124.45,-140.47 -176.1,-149.65 -372.39,-271.44 -583.33,-362.03 -15.03,-6.44 -30.15,-12.77 -45.27,-19.02 -65.66,-27.38 -133.51,-55.67 -192.85,-96.37 -47.85,-32.85 -130.74,-103.79 -148.32,-209.57 -8.52,-51.72 0,-105.31 8.44,-157.15 7.11,-44.41 14.45,-89.92 11.6,-135.97 -2.35,-35.16 -10.78,-69.77 -18.99,-103.17 -5.93,-24.33 -12.14,-49.57 -15.74,-74.53 -4.8,-33.09 -10.47,-114.96 41.33,-161.33 28.24,-25.23 65.43,-32.73 103.98,-32.73 31.53,0 64.03,5 93.25,9.57 11.72,1.87 23.32,2.73 34.72,2.73 154.5,0 275.82,-160.31 355.55,-285.19 204.1,-319.34 353.16,-733.13 409.02,-1135.12 10.86,-78.16 -15.15,-169.84 -85.89,-193.09 -10.75,-3.59 -21.65,-5.23 -32.27,-5.23 -61.91,0 -120.82,54.92 -155.78,117.11 -10.98,19.57 -23.75,45.31 -38.56,75.19 -65.31,131.65 -163.98,330.63 -277.97,336.61 -1.71,0 -3.43,0.11 -5.03,0.11 -49.3,0 -98.13,-37.85 -145.32,-112.73 -38.12,-60.67 -53.59,-132.74 -67.22,-207.38 -12.35,-67.46 -22.27,-133.29 -6.49,-195.47 11.29,-44.89 29.38,-86.14 46.88,-126.06 31.95,-73.04 62.22,-142.46 55.15,-231.52 -6.99,-91.13 -45.15,-175.82 -82.11,-257.7 -8,-17.77 -15.97,-35.58 -23.78,-53.47 -48.36,-112.19 -80.75,-281.17 -43.99,-405.35 8.83,-29.93 22.03,-58.75 34.84,-86.68 15.98,-34.93 32.39,-70.94 41.57,-110.67 13.71,-59.8 21.72,-121.6 29.49,-181.29 2.15,-16.17 4.14,-32.22 6.41,-48.36 12.14,-88.321 30.78,-190.579 77.22,-279.649 29.61,-56.832 71.92,-105.969 112.85,-153.43 75.43,-87.421 153.64,-178.132 146.37,-315.671 -4.14,-82.301 -34.84,-158.899 -64.34,-233.1177 -18.75,-47.07027 -38.24,-95.7421 -50.39,-144.9613 -10.35,-41.679 -16.21,-80.429 -21.83,-117.972 -16.21,-107.969 -30.16,-201.168 -146.53,-283.129 -68.51,-48.238 -139.33,-58.508 -214.37,-69.41 -46.64,-6.801 -94.92,-13.871 -142.97,-30.899 -31.21,-11.011 -60.08,-29.371 -88.01,-48.242"
       style="fill:#003594;fill-opacity:1;fill-rule:nonzero;stroke:none"
       transform="matrix(0.13333333,0,0,-0.13333333,0,900)" />
    <path
       id="path4"
       d="m -71.2109,2567.11 v 16.91 c 48.789,34.38 98.1211,67.46 146.6015,99.85 l 2.1094,1.44 c 18.6719,12.42 38.48,24.65 57.66,36.45 38.668,23.9 78.82,48.55 112.852,77.26 48.976,41.18 104.058,81.33 166.949,81.33 31.641,0 65.309,-10.27 101.09,-35.7 24.609,-17.46 48.679,-39.92 72.039,-61.56 50.582,-47.15 102.93,-95.82 168,-103.48 10.98,-1.29 21.961,-1.72 33.051,-1.72 21.91,0 43.98,1.95 65.629,3.91 13,1.21 25.968,2.42 38.98,3.16 7.66,0.47 15.352,0.66 22.809,0.66 70.203,0 132.421,-18.67 192.851,-36.79 40.36,-12.11 82.15,-24.65 126.57,-31.76 10.74,-1.72 21.52,-2.5 32.38,-2.5 84.18,0 170.47,48.24 230.66,86.56 192.11,122.58 315.9,330.82 315.9,531.1 v 2.07 c -0.39,94.96 -22.34,189.8 -43.47,281.48 -3.4,14.77 -6.8,29.38 -10.12,44.1 -22.58,100.43 -45.16,217.11 -26.53,331.92 12.9,79.14 62.35,160.23 110.08,238.71 34.85,57.19 70.86,116.37 91.29,172.77 22.07,61.25 40.59,125.08 58.52,186.88 30.66,105.74 62.54,215.23 113.04,315 150.63,297.18 463.68,512.85 930.24,641.32 l 26.29,7.19 c 94.84,25.78 192.85,52.42 269.76,113.75 56.37,44.85 99.53,107.19 141.21,167.42 52.07,75.32 105.98,153.25 186.45,197.66 43.36,23.91 92.34,35.82 141.37,35.82 54.22,0 108.47,-14.53 155.04,-43.44 87.69,-54.49 143.82,-156.83 143.82,-261.83 v -3.83 c -0.31,-20.31 -2.57,-40.82 -4.8,-60.59 -2.77,-24.57 -5.55,-49.88 -4.38,-74.53 1.84,-39.65 17.82,-88.51 57.11,-107.19 11.21,-5.35 22.7,-7.77 34.3,-7.77 44.45,0 90.9,35.27 135.12,75.12 243.36,218.94 554.33,362.69 875.7,404.69 20.98,2.73 46.21,4.92 73.09,4.92 72.97,0 158,-16.25 203.16,-81.64 v -27.19 c -1.17,2.42 -2.03,5.04 -3.4,7.42 -39.22,70.63 -125.08,87.66 -199.02,87.66 -26.52,0 -51.49,-2.19 -72.15,-4.92 -318.67,-41.68 -626.99,-184.22 -868.44,-401.41 -46.44,-41.84 -95.35,-78.59 -143.94,-78.59 -13.4,0 -26.72,2.81 -40.04,9.06 -44.88,21.17 -62.97,75.39 -65,119.06 -0.24,4.14 -0.31,8.28 -0.31,12.34 0,21.72 2.42,43.32 4.68,64.38 2.11,19.45 4.38,39.53 4.69,59.18 v 3.59 c 0,100.2 -53.59,197.97 -137.23,249.96 -44.45,27.62 -96.21,41.45 -148,41.45 -46.76,0 -93.56,-11.33 -135,-34.14 -77.54,-42.89 -128.17,-116.02 -181.76,-193.52 -42.19,-61.01 -85.98,-124.22 -143.95,-170.39 -79.14,-62.97 -178.43,-90.04 -274.57,-116.13 l -26.29,-7.19 c -462.85,-127.26 -773,-340.66 -921.71,-634.26 -49.97,-98.55 -81.61,-207.38 -112.11,-312.57 -18.01,-62.04 -36.64,-126.1 -58.79,-187.66 -20.9,-57.81 -57.23,-117.54 -92.5,-175.39 -47.07,-77.27 -95.78,-157.27 -108.25,-233.67 -18.2,-112.11 4.07,-227.35 26.45,-326.45 3.28,-14.65 6.68,-29.37 10.12,-43.98 21.29,-92.46 43.47,-188.09 43.9,-284.69 v -2.07 c 0,-204.96 -126.36,-417.89 -322.3,-542.89 -61.6,-39.3 -150.12,-88.63 -237.7,-88.63 -11.52,0 -23.12,0.89 -34.53,2.73 -45.19,7.34 -87.38,20 -128.28,32.23 -62.03,18.55 -120.94,36.33 -188.589,36.33 -7.351,0 -14.921,-0.24 -22.461,-0.67 -12.89,-0.74 -25.781,-1.95 -38.71,-3.05 -21.84,-1.95 -44.18,-3.94 -66.571,-3.94 -11.597,0 -23.238,0.55 -34.84,1.99 -69.379,8.17 -123.398,58.4 -175.589,106.95 -24.059,22.39 -46.75,43.56 -70.622,60.47 -32.738,23.25 -63.199,33.52 -93.128,33.52 -51.989,0 -102.071,-30.9 -158.668,-78.48 -34.801,-29.26 -75.313,-54.26 -114.411,-78.36 -19.07,-11.72 -38.793,-23.9 -57.2301,-36.25 l -2.1093,-1.4 C 31.8008,2638.59 -20.0781,2603.75 -71.2109,2567.54"
       style="fill:#003594;fill-opacity:1;fill-rule:nonzero;stroke:none"
       transform="matrix(0.13333333,0,0,-0.13333333,0,900)" />
    <path
       id="path5"
       d="m 2112.85,-656.211 h -17.81 c 13.01,14.731 25.35,33.051 38.36,52.191 30.78,45.579 62.54,92.77 110.27,102.461 18.01,3.711 36.33,4.368 54.14,5.039 13.4,0.43 27.39,0.969 40.78,2.809 102.39,14.102 173.91,103.481 206.49,182.5 16.4,39.613 24.53,80.981 32.38,120.941 9.18,46.36 18.67,94.2895 41.02,140.27 60.74,124.7305 141.09,262.152 277.03,334.73 34.22,18.239 70.43,33.629 105.35,48.36 29.41,12.422 59.88,25.312 88.79,39.84 75.86,38.09 127.5,82.191 157.77,134.691 37.5,65.039 36.96,146.008 -1.29,197.109 -23.75,31.641 -50.82,41.911 -79.88,41.911 -25.59,0 -52.73,-7.852 -80.66,-16.051 -26.96,-7.86 -54.34,-15.82 -80.36,-15.82 -25.97,0 -49.84,7.769 -70.93,31.089 -20.78,23.051 -23.56,56.02 -24.61,85.043 -12.81,348.078 108.43,697.768 332.5,959.608 36.87,43.01 77.26,84.92 116.36,125.43 104.42,108.24 212.35,220.15 260.94,363.55 38.99,115.16 27.39,221.68 15.24,334.53 -4.26,39.07 -8.64,79.34 -10.9,120.63 -5.63,102.69 8.87,212.38 22.81,318.47 3.32,25.55 6.72,50.75 9.61,75.51 l 3.83,31.25 c 24.61,202.78 50.15,412.46 -6.41,607.7 -48.9,168.87 -171.4,309.14 -312.07,357.26 -44.33,15.16 -88.75,22.15 -132.85,22.15 -214.88,0 -420.12,-165.9 -544.1,-358.01 -16.95,-26.28 -32.42,-53.04 -45.82,-79.76 -86.64,-171.92 -148.75,-358.67 -208.75,-539.22 -54.96,-165.35 -111.76,-336.37 -187.5,-496.37 -175.78,-371.56 -382.27,-588.86 -630.98,-664.37 -74.65,-22.74 -153.08,-29.49 -232.15,-29.49 -60.19,0 -120.82,3.94 -180.58,7.85 -58.71,3.83 -118.91,7.77 -177.62,7.77 -17.699,0 -35.27,-0.31 -52.621,-1.21 C 709.34,1982.93 491.02,1941.37 300,1870.62 156.68,1817.7 25.5117,1705.16 -71.2109,1562.38 v 23.83 c 97.2617,137.38 226.1719,245.59 366.5199,297.5 192.312,71.17 411.882,112.97 652.582,124.34 17.461,0.86 35.269,1.21 53.049,1.21 59.14,0 119.65,-3.95 178.67,-7.78 59.45,-3.78 119.77,-7.73 179.65,-7.73 78.08,0 155.31,6.64 228.51,28.91 244.96,74.45 448.56,289.37 622.66,657.18 75.43,159.26 132.11,329.85 186.87,494.89 60.2,181.05 122.43,368.24 209.46,541.13 13.63,27.07 29.29,54.34 46.56,81.09 126.29,195.39 335.63,364.1 555.55,364.1 45.47,0 91.29,-7.18 137.11,-22.89 144.68,-49.57 270.5,-193.43 320.7,-366.4 25.55,-88.21 34.61,-179.14 34.61,-270.9 0,-114.06 -14.06,-229.34 -27.81,-342.5 l -3.71,-31.25 c -2.97,-24.77 -6.29,-50.08 -9.69,-75.74 -13.87,-105.43 -28.24,-214.38 -22.7,-315.86 2.23,-40.82 6.6,-80.98 10.74,-119.73 12.39,-114.41 24.18,-222.46 -15.85,-340.66 -49.54,-146.37 -158.56,-259.42 -264.03,-368.67 -38.9,-40.4 -79.18,-82.11 -115.82,-124.89 -221.8,-259.22 -341.44,-605.74 -329.1,-949.88 0.94,-26.641 3.52,-56.559 21.09,-76.211 17.89,-19.848 38.68,-26.598 61.37,-26.598 23.87,0 49.65,7.5 76.29,15.149 27.15,7.859 56.05,16.25 84.06,16.25 32.39,0 63.91,-11.129 90.78,-47.032 41.45,-55.429 42.39,-142.769 2.11,-212.5 -31.72,-55 -85.11,-100.738 -163.51,-140.039 -29.3,-14.719 -60,-27.609 -89.61,-40.148 -34.73,-14.649 -70.55,-29.93 -104.34,-47.93 -132.54,-70.742 -211.48,-205.8593 -271.13,-328.5194 -21.52,-44.4496 -30.9,-91.3716 -39.84,-136.8716 -8.01,-40.628 -16.29,-82.621 -33.25,-123.558 -34.1,-82.543 -109.1,-175.942 -217.14,-190.781 -14.07,-1.989 -28.25,-2.422 -42.08,-2.969 -17.26,-0.66 -35.07,-1.172 -51.99,-4.692 -42.42,-8.628 -72.58,-53.468 -101.87,-96.789 -10.67,-15.859 -20.86,-31.019 -31.64,-44.421"
       style="fill:#003594;fill-opacity:1;fill-rule:nonzero;stroke:none"
       transform="matrix(0.13333333,0,0,-0.13333333,0,900)" />
    <path
       id="path6"
       d="m 3666.99,1137.62 c -41.87,0 -86.6,-16.6 -118.28,-46.17 -47.07,-43.99 -70.31,-113.751 -59.33,-178.13 4.49,-26.211 14.37,-51.761 23.86,-76.519 9.49,-24.571 19.3,-50.082 24.18,-76.719 8.44,-46.293 1.84,-93.32 -4.45,-138.953 -3.01,-20.859 -5.98,-42.578 -7.46,-63.629 -6.6,-89.84 36.95,-178.91 116.13,-237.5 53.36,-39.531 118.24,-61.25 181.13,-61.25 7.11,0 14.26,0.352 21.41,0.902 77.46,6.207 131.99,51.289 149.57,123.547 20.7,84.891 -18.01,181.492 -91.84,229.531 -15.66,10.161 -33.43,18.68 -50.58,26.84 -35.08,16.719 -71.41,33.95 -93.44,67.582 -13.98,21.289 -21.01,46.68 -21.01,76.907 0,26.562 5.42,56.679 16.21,90.82 2.77,8.641 5.62,17.351 8.51,26.101 14.61,43.672 29.73,88.629 23.75,133.47 -7.89,59.85 -42.69,84.73 -70.43,95.08 -14.8,5.55 -31.09,8.2 -47.81,8.2 m 155.66,-892.851 c -65.74,0 -133.51,22.742 -189.14,63.871 -82.89,61.449 -128.04,154.34 -121.68,249.73 1.53,21.602 4.61,43.43 7.58,64.61 6.17,44.41 12.7,90.39 4.57,134.371 -4.69,25.309 -14.14,50.199 -23.44,74.219 -9.8,25.429 -19.92,51.601 -24.61,79.222 -11.91,68.868 13.25,143.748 63.52,190.698 34.1,31.88 82.34,49.65 127.66,49.65 18.2,0 35.97,-2.85 52.18,-8.95 44.22,-16.48 72.35,-54.25 79.26,-106.21 6.17,-48.121 -9.26,-94.719 -24.37,-139.918 -2.89,-8.633 -5.78,-17.223 -8.44,-25.863 -21.72,-68.547 -20.78,-119.528 3.09,-155.739 20.03,-30.468 52.96,-46.168 87.89,-62.769 17.57,-8.399 35.7,-16.922 52.11,-27.742 65.11,-42.34 103.78,-116.989 103.78,-193.079 0,-17.23 -2.03,-34.57 -6.17,-51.601 -18.75,-77.27 -79.18,-127.391 -161.64,-134.027 -7.46,-0.551 -14.8,-0.903 -22.38,-0.903"
       style="fill:#003594;fill-opacity:1;fill-rule:nonzero;stroke:none"
       transform="matrix(0.13333333,0,0,-0.13333333,0,900)" />
    <path
       id="path7"
       d="m 974.301,-37.2305 c 32.379,0 65.309,-5.8906 99.609,-21.1679 40.82,-18.1211 76.71,-45.5506 111.44,-71.9496 34.42,-26.172 69.92,-53.242 109.65,-70.703 63.4,-27.969 127.11,-42.148 186.68,-42.148 39.53,0 77.34,6.211 112.07,18.789 65.31,23.672 121.13,69.531 175.16,113.82 47.97,39.422 97.61,80.1212 154.49,106.21109 23.24,10.71094 48.71,19.76951 73.32,28.48051 70.82,25.1172 143.9,51.0976 170.66,118.1994 29.1,73.359 -14.61,154.461 -53.16,226.058 l -2.77,5 c -46.02,85.7 -60.94,145.821 -13.75,237.301 37.61,72.891 58.51,158.789 65.54,270.121 1.37,21.949 2.46,43.989 3.52,66.059 4.88,102.03 9.88,207.69 50.15,302.54 16.21,38.08 37.86,73.78 58.83,108.51 25.47,42.11 51.88,85.66 67.78,132.7 28.86,85.58 7.53,197.34 -70,227.69 -14.3,5.55 -28.79,8.09 -43.29,8.09 -58.71,0 -118.55,-40.2 -172.57,-76.53 l -3.09,-1.95 c -120.94,-81.21 -253.16,-141.13 -393.05,-178.16 -74.68,-19.73 -152.38,-33.17 -227.46,-46.06 -126.6,-21.72 -257.3,-44.18 -375.7,-98.12 C 596.602,1114.8 441.371,535.902 529.801,98.1992 c 12.269,-60.7773 33.789,-135 90.98,-169.918 24.731,-15.1914 52.739,-20.621 80.981,-20.621 38.976,0 78.316,10.4609 109.41,20.3906 55.117,17.6875 108.238,34.7187 163.129,34.7187 z M 1481.68,-257.07 c -61.48,0 -126.91,14.531 -191.99,43.242 -41.14,18.129 -77.39,45.738 -112.31,72.348 -34.1,25.968 -69.45,52.8511 -108.79,70.312 -32.18,14.2891 -63.39,19.8399 -94.289,19.8399 -53.172,0 -105.16,-16.6836 -159.071,-33.9414 -32.179,-10.2422 -72.769,-21.0585 -113.589,-21.0585 -30.352,0 -60.7,6.019 -87.77,22.4999 C 552.07,-46.0898 529.488,31.6406 516.602,95.1602 427.109,538.281 584.691,1124.3 1052.81,1337.89 c 120,54.81 251.68,77.27 378.99,99.22 74.8,12.77 152.15,26.09 226.32,45.74 138.48,36.68 269.34,96.06 389.11,176.25 l 2.97,2.07 c 55.7,37.46 117.3,78.83 179.72,78.83 16.1,0 32.31,-2.73 48.36,-9.06 62.66,-24.46 91.33,-92.58 91.33,-162.74 0,-27.97 -4.57,-56.32 -13.32,-82.42 -16.41,-48.55 -43.17,-92.77 -69.14,-135.55 -20.67,-34.18 -42.19,-69.53 -57.97,-106.75 -39.3,-92.54 -44.22,-196.8 -49.1,-297.621 -1.1,-22.187 -2.15,-44.339 -3.52,-66.25 -7.26,-113.398 -28.55,-201.058 -67.15,-275.82 -44.53,-86.25 -31.09,-141.019 13.64,-224.098 l 2.69,-5 c 40.04,-74.339 85.43,-158.711 53.91,-237.929 -28.99,-72.93 -105.04,-100.0003 -178.67,-126.1018 -24.42,-8.58989 -49.57,-17.53911 -72.27,-28.0391 -55.27,-25.4297 -104.18,-65.5899 -151.48,-104.4611 -54.89,-45.07 -111.68,-91.68 -179.11,-116.129 -36.21,-13.082 -75.42,-19.531 -116.56,-19.531"
       style="fill:#003594;fill-opacity:1;fill-rule:nonzero;stroke:none"
       transform="matrix(0.13333333,0,0,-0.13333333,0,900)" />
    <path
       id="path8"
       d="m 1514.38,850.43 c -25.79,0 -54.34,-4.879 -84.18,-14.84 -68.29,-22.699 -220.12,-98.871 -253.79,-189.141 -4.26,-11.449 -6.37,-22.82 -6.37,-33.949 0,-15.59 4.14,-30.781 12.58,-45.512 37.81,-66.476 94.37,-84.258 143.9,-84.258 11.96,0 23.56,0.981 34.34,2.622 95.78,14.418 211.17,79.027 253.24,190.777 23.24,61.68 20.55,110.473 -7.89,141.141 -20.23,21.832 -52.73,33.039 -91.72,33.039 M 1325.9,468.871 c -67.66,0 -120.82,31.09 -155.04,91.129 -16.48,29.02 -18.83,59.691 -7.03,91.371 35.39,94.961 191.91,173.981 262.22,197.418 31.02,10.391 60.94,15.391 88.09,15.391 42.97,0 79.18,-12.66 101.88,-37.301 14.06,-15.199 27.26,-39.297 27.26,-75.977 0,-21.843 -4.69,-48.132 -16.48,-79.691 -44.03,-116.871 -164.22,-184.449 -263.83,-199.492 -12.66,-1.879 -25.04,-2.848 -36.88,-2.848"
       style="fill:#003594;fill-opacity:1;fill-rule:nonzero;stroke:none"
       transform="matrix(0.13333333,0,0,-0.13333333,0,900)" />
    <path
       id="path9"
       d="m 1539.1,5977.81 c -205.74,0 -456.99,-73.36 -521.33,-267.73 -13.86,-42.03 -20.782,-84.61 -20.782,-126.17 0,-55.24 12.152,-108.71 36.212,-157.07 39.1,-78.6 107.74,-136.88 193.4,-164.18 45.39,-14.5 91.95,-25.51 138.48,-32.93 46.37,-7.35 92.5,-10.94 138.01,-10.94 93.75,0 184.72,15.39 268.36,45.74 131.91,47.81 349.37,185.43 327.73,397.85 -16.17,160.32 -159.69,260.43 -438.52,306.02 -37.07,6.13 -78.43,9.3 -121.79,9.3 m -35.59,-772.78 c -46.25,0 -93.12,3.75 -140.08,11.13 -47.22,7.43 -94.41,18.68 -140.54,33.4 -89.18,28.52 -160.67,89.18 -201.49,171.17 -43.9,88.29 -49.65,192.74 -16.17,294.03 66.48,201.05 324.53,277.03 534.92,277.03 43.79,0 85.47,-3.28 122.97,-9.41 105.04,-17.11 424.69,-69.42 449.84,-318.25 1.06,-10.04 1.49,-19.88 1.49,-29.68 0,-179.34 -165.9,-320.24 -338.17,-382.7 -85.15,-30.86 -177.61,-46.6 -272.89,-46.6"
       style="fill:#003594;fill-opacity:1;fill-rule:nonzero;stroke:none"
       transform="matrix(0.13333333,0,0,-0.13333333,0,900)" />
    <path
       id="path10"
       d="m 251.48,4657.58 c -22.14,0 -46.128,6.25 -69.761,18.59 -25.778,13.4 -48.789,32.19 -70.981,50.31 -8.508,6.96 -17.0271,13.83 -25.7771,20.63 -47.3007,36.33 -100.039,64.37 -156.0898,83.71 v 7.3 c 57.457,-19.53 111.6797,-48.24 160.1484,-85.46 8.75,-6.76 17.3905,-13.75 25.9025,-20.75 21.957,-17.89 44.648,-36.44 69.879,-49.53 22.39,-11.68 45.59,-17.58 66.918,-17.58 16.09,0 31.09,3.36 43.98,10.16 66.922,35.04 32.313,117.11 11.531,166.02 -16.839,39.92 -35.39,79.88 -53.281,118.51 -19.808,42.78 -40.277,86.99 -58.597,131.29 -124.4536,301.49 -151.2934,620.94 -75.551,899.73 83.64,307.89 301.328,565.15 568.008,671.33 l 7.89,3.16 c 64.77,25.66 138.051,54.8 152.973,121.48 24.098,107.19 -102.813,177.5 -195.512,228.79 -16.832,9.26 -32.57,18.01 -45.699,26.1 -107.5,66.01 -193.59,183.47 -236.09,322.18 -3.641,11.8 -6.922,23.68 -9.922,35.47 h 7.031 c 2.77,-11.13 5.969,-22.26 9.372,-33.4 41.988,-137.18 127.027,-253.2 233.128,-318.39 13,-7.97 28.79,-16.68 45.5,-25.98 94.5,-52.15 223.829,-123.63 198.911,-236.29 -15.661,-70.27 -90.86,-100.08 -157.153,-126.37 l -7.886,-3.2 C 425.699,6549.88 209.648,6294.45 126.41,5988.63 51.0898,5711.52 77.7305,5393.55 201.641,5093.52 c 18.199,-44.18 38.668,-88.4 58.48,-131.06 17.93,-38.75 36.438,-78.71 53.399,-118.79 21.519,-51.17 57.73,-136.83 -14.731,-174.96 -14.141,-7.42 -30.117,-11.13 -47.187,-11.13"
       style="fill:#003594;fill-opacity:1;fill-rule:nonzero;stroke:none"
       transform="matrix(0.13333333,0,0,-0.13333333,0,900)" />
    <path
       id="path11"
       d="m 4952.03,-656.211 h -10.12 c 61.8,57.191 124.85,119.84 189.11,187.93 73.39,77.812 276.91,293.711 340.19,506.0115 V 16.332 c -69.8,-207.582 -263.79,-413.633 -335.31,-489.422 -62.42,-66.129 -123.67,-127.258 -183.87,-183.121 z"
       style="fill:#003594;fill-opacity:1;fill-rule:nonzero;stroke:none"
       transform="matrix(0.13333333,0,0,-0.13333333,0,900)" />
    <path
       id="path12"
       d="m 5471.21,303.949 c -31.76,118.321 -97.93,230.821 -162.81,340.621 -28.95,49.02 -56.25,95.27 -80.2,141.559 -105.7,204.34 -203.28,517.031 -182.85,755.391 5.67,66.29 30.16,150.63 80.43,170.75 7.38,2.93 14.81,4.33 22.62,4.33 22.46,0 46.64,-12.11 72.22,-36.21 71.37,-67.23 110.16,-161.76 151.29,-261.76 28.56,-69.53 57.97,-140.47 99.3,-201.91 v -11.8 c -44.65,63.75 -75.55,138.09 -105.59,210.98 -40.82,99.33 -79.37,193.2 -149.57,259.45 -24.29,22.93 -46.99,34.38 -67.65,34.38 -6.95,0 -13.63,-1.29 -20.16,-3.79 -39.1,-15.51 -68.94,-80.24 -76.17,-164.85 -20.23,-236.71 76.84,-548.121 182.07,-751.438 23.87,-46.101 51.17,-92.351 80.04,-141.25 60.94,-103.132 123.05,-208.48 157.03,-319.14 z"
       style="fill:#003594;fill-opacity:1;fill-rule:nonzero;stroke:none"
       transform="matrix(0.13333333,0,0,-0.13333333,0,900)" />
    <path
       id="path13"
       d="m 938.09,3149.73 c -66.84,0 -105.711,50.31 -146.61,103.16 -22.609,29.22 -45.929,59.38 -74.601,80.55 -80.551,59.68 -176.02,92.22 -269.969,92.22 -3.43,0 -6.832,0 -10.23,-0.11 l -23.668,-0.67 c -23.012,-0.66 -46.211,-1.29 -69.141,-1.29 -134.652,0 -260.2812,22.82 -301.1015,203.21 -18.9414,83.94 -7.6484,171.79 3.4024,256.6 1.289,10.15 2.6992,20.31 3.9492,30.47 11.9492,95.51 17.6875,195.58 -20.8594,280.93 -23.44139,51.84 -59.4609,91.14 -100.3906,121.37 v 8.63 c 43.3984,-31.21 81.7187,-72.26 106.5586,-127.03 39.2187,-86.91 33.5508,-188.16 21.4101,-284.68 -1.25,-10.12 -2.539,-20.28 -3.8281,-30.43 -10.9804,-84.26 -22.1523,-171.37 -3.5234,-254.22 39.5312,-175.16 157.2737,-197.85 292.1527,-197.85 23.32,0 47.308,0.62 71.371,1.29 l 23.668,0.66 c 3.519,0 7.031,0.12 10.55,0.12 95.231,0 192.11,-33.09 273.711,-93.56 29.411,-21.83 53.039,-52.38 75.969,-81.95 39.852,-51.53 77.781,-100.55 141.801,-100.55 8.437,0 17.269,0.9 26.641,2.62 84.058,16.05 158.748,109.49 179.608,186.87 26.88,99.22 19.42,205.08 12.19,307.27 -1.72,24.22 -3.56,49.22 -4.81,73.75 -5.54,106.41 -3,260.31 82.46,368.28 31.1,39.3 71.18,70.08 110.04,99.84 18.68,14.3 37.93,29.15 55.94,44.65 46.88,40.51 102.19,104.34 102.19,180.74 0,1.45 0,2.74 0,4.15 -2.46,93.55 -115.08,128.9 -205.51,157.18 -26.87,8.4 -52.34,16.37 -72.46,25.2 -303.121,131.52 -506.52,288.47 -621.988,479.73 -50.633,83.82 -89.102,174.6 -114.34,269.68 -68.203,256.37 -1.051,542.46 175.039,746.8 218.867,253.75 548.399,311.48 802.619,311.48 16.29,0 32.26,-0.19 47.81,-0.66 151.64,-4.26 311.76,-27.62 476.37,-69.73 72.26,-18.43 146.83,-37.54 216.09,-66.05 20.55,-8.4 40.67,-20.08 62.11,-32.5 40.82,-23.6 83.01,-48.05 127.54,-48.05 1.37,0 2.77,0 4.26,0 32.93,1.21 54.22,10.82 68.94,31.45 28.13,39.61 5.08,100.19 -34.22,132.18 -30.27,24.54 -60.19,45.51 -89.18,65.82 -74.14,51.84 -144.14,100.82 -196.99,197 -42.93,78.24 -72.77,162.3 -88.44,249.72 -9.37,52.62 -9.68,103.6 -9.92,152.93 -0.11,31.96 -0.31,65.16 -2.97,98.75 -2.46,31.57 -11.71,76.21 -41.99,110.16 -31.76,35.66 -76.79,48.87 -108.98,53.59 -31.64,4.57 -63.6,6.41 -95.67,6.41 -57.65,0 -115.62,-5.78 -172.3,-11.45 -56.88,-5.66 -115.04,-11.56 -173.13,-11.56 -35.82,0 -71.48,2.19 -106.87,8.09 -79.06,12.97 -159.18,56.29 -208.83,117.85 h 8.75 c 48.71,-57.85 125.39,-98.56 201.06,-110.98 34.92,-5.78 70.31,-7.97 105.7,-7.97 57.73,0 115.7,5.78 172.5,11.57 56.76,5.66 114.92,11.44 172.81,11.44 32.38,0 64.65,-1.83 96.72,-6.44 33.24,-4.77 79.92,-18.44 113.05,-55.75 31.52,-35.39 41.25,-81.64 43.79,-114.29 2.65,-33.83 2.77,-67.11 2.96,-99.22 0.24,-48.99 0.43,-99.65 9.81,-151.72 15.55,-86.52 45.08,-169.92 87.69,-247.54 52,-94.73 121.45,-143.28 194.89,-194.69 29.06,-20.31 59.14,-41.36 89.61,-66.05 41.52,-33.83 66.91,-97.46 35.47,-141.68 -16.1,-22.46 -38.99,-33.05 -74.26,-34.26 -1.49,0 -3.01,0 -4.49,0 -46.33,0 -89.3,24.77 -130.82,48.91 -21.22,12.22 -41.14,23.79 -61.25,32.07 -68.83,28.28 -143.21,47.26 -215.67,65.82 -163.63,41.79 -323.24,65.15 -474.45,69.41 -15.55,0.43 -31.41,0.67 -47.5,0.67 -252.85,0 -580.471,-57.31 -797.619,-309.22 C 494.102,5896.41 427.5,5612.62 495.16,5358.52 c 25.039,-94.38 63.281,-184.46 113.59,-267.82 114.648,-190.04 317.07,-346.13 618.79,-477.11 19.84,-8.59 45.08,-16.48 71.84,-24.88 92.46,-29.02 207.65,-65.16 210.31,-163.59 1.91,-80.67 -55.74,-148.24 -104.53,-190.35 -18.13,-15.75 -37.5,-30.55 -56.25,-44.89 -38.48,-29.57 -78.32,-60.11 -108.79,-98.63 -84.07,-106.21 -86.41,-258.48 -80.98,-363.59 1.29,-24.46 3.09,-49.42 4.81,-73.68 7.26,-102.81 14.8,-209.33 -12.35,-309.64 -21.44,-79.34 -98.24,-175.16 -184.881,-191.88 -10,-1.84 -19.379,-2.85 -28.321,-2.85"
       style="fill:#003594;fill-opacity:1;fill-rule:nonzero;stroke:none"
       transform="matrix(0.13333333,0,0,-0.13333333,0,900)" />
    <path
       id="path14"
       d="m 873.711,3469.73 h -1.051 c -40.59,0.23 -80.859,18.86 -113.25,52.61 -77.89,80.98 -117.961,97.04 -174.762,97.04 -15.976,0 -33.32,-1.33 -53.359,-2.74 -16.09,-1.21 -34.41,-2.62 -54.879,-3.4 -2.43,0 -4.89,-0.12 -7.23,-0.12 -108.481,0 -201.91,98.13 -247.071,197.35 -38.589,84.69 -53.828,178.79 -68.629,269.69 -4.46,27.18 -8.949,55.35 -14.07,82.85 -18,96.29 -53.16,234.14 -150.1092,318.4 -19.0703,16.48 -39.3008,30 -60.6289,41.36 v 7.97 c 22.8086,-11.91 44.5273,-26.4 64.99997,-44.1 98.66793,-85.7 134.25813,-224.96 152.34813,-322.3 5.109,-27.5 9.679,-55.67 14.179,-82.97 14.68,-90.47 29.84,-184.1 68.082,-267.93 44.34,-97.15 135.43,-193.32 240.899,-193.32 2.34,0 4.691,0 7.031,0.11 20.238,0.86 38.437,2.19 54.527,3.4 19.731,1.41 37.192,2.7 53.403,2.7 57.738,0 100.238,-16.25 179.961,-99.1 31.097,-32.39 69.648,-50.32 108.437,-50.63 h 0.981 c 25.109,0 43.902,7.31 57.531,22.15 32.148,35.27 26.84,107.5 23.008,160.23 -0.86,11.68 -1.719,22.7 -2.028,32.43 -5.621,161.4 56.799,326.13 167.699,440.93 10.35,10.59 21.21,21.06 31.64,31.1 20.78,20 42.18,40.51 60,63.55 30.66,39.85 44.96,82.74 40.58,120.71 -8.51,71.36 -131.25,134.57 -212.54,176.25 -17.81,9.17 -33.16,17.14 -45.308,24.02 -265.942,151.83 -470.903,376.8 -577.461,633.51 -117.731,283.64 -110.469,603.13 19.3,854.5 114.528,221.87 320.899,368.59 613.239,436.01 150.47,34.73 311.33,45.63 459.77,45.63 118.04,0 228.12,-6.88 318.86,-14.07 9.07,-0.78 24.42,-3.39 44.03,-6.87 38.24,-6.68 96.28,-16.8 141.48,-16.8 30.27,0 54.77,4.57 63.71,17.66 24.18,35.39 -22.81,100 -60.39,151.84 -16.44,22.57 -30.59,42.1 -36.56,56.09 -38.99,91.68 -62.85,186.87 -71.06,282.93 -6.4,75.19 -29.84,127.15 -71.83,158.79 -35.78,26.95 -82.15,36.56 -132.54,36.56 -56.99,0 -119.1,-12.23 -177.5,-25.31 -63.28,-14.18 -128.48,-21.29 -193.67,-21.29 -109.1,0 -218.56,19.65 -319.96,58.51 -84.071,32.07 -141.61,70.28 -181.141,119.93 -20.039,25.23 -34.41,53.94 -42.609,83.28 h 7.031 c 8,-27.82 21.719,-55 40.82,-78.91 38.668,-48.79 95.348,-86.21 178.239,-117.89 100.78,-38.52 209.34,-58.05 317.69,-58.05 64.81,0 129.38,7 192.23,21.06 58.71,13.2 121.33,25.43 178.99,25.43 51.68,0 99.29,-9.81 136.48,-37.85 43.67,-32.86 68.09,-86.45 74.57,-163.71 8.13,-95.2 31.76,-189.61 70.55,-280.75 5.62,-13.2 19.61,-32.42 35.7,-54.68 38.98,-53.72 87.46,-120.59 60.51,-160 -10.55,-15.51 -37.07,-20.86 -69.81,-20.86 -43.98,0 -99.29,9.61 -142.11,17.14 -19.41,3.36 -34.64,6.02 -43.36,6.76 -105.27,8.4 -215.11,14.42 -325.31,14.42 -426.48,0 -859.451,-89.73 -1060.189,-478.28 -128.832,-249.5 -135.981,-566.8 -19.071,-848.52 105.899,-255.27 309.93,-479.14 574.571,-630.2 11.959,-6.75 27.309,-14.64 44.969,-23.78 82.57,-42.47 207.34,-106.53 216.17,-181.65 4.8,-40.03 -10.2,-84.57 -41.96,-125.74 -18.12,-23.43 -39.76,-44.29 -60.74,-64.26 -10.43,-10.03 -21.21,-20.43 -31.44,-30.89 -104.92,-108.52 -166.21,-262.19 -166.21,-414.96 0,-7 0.109,-13.87 0.43,-20.86 0.351,-9.5 1.171,-20.51 2.031,-32.11 4.058,-53.91 9.488,-127.89 -24.731,-165.43 -14.691,-16.18 -35.66,-24.34 -62.422,-24.34"
       style="fill:#003594;fill-opacity:1;fill-rule:nonzero;stroke:none"
       transform="matrix(0.13333333,0,0,-0.13333333,0,900)" />
    <path
       id="path15"
       d="m 4801.68,-656.211 h -11.48 c 177.69,131.949 326.56,298.281 434.25,488.199 81.41,143.6331 115.39,262.7425 107.74,374.571 -11.84,166.8 -103.48,304.851 -192.23,438.242 -18.44,27.738 -37.38,56.328 -55.27,84.687 -57.23,90.512 -100.82,196.25 -133.32,322.972 -9.14,35.7 -12.35,73.13 -15.55,109.49 -5.31,61.1 -10.31,118.75 -40.78,168.83 -31.25,51.52 -65,114.18 -77.58,188.52 -15.35,90.47 -8.83,189.68 18.2,279.06 6.96,22.93 14.61,46.29 21.96,68.87 28.43,87.34 57.97,177.69 59.45,270.04 0.23,14.29 -0.94,30.23 -2.23,46.83 -4.49,59.49 -9.61,126.84 52.19,155.74 10.24,4.81 20.59,6.88 31.02,6.88 40.39,0 80.54,-31.76 109.65,-61.99 123.9,-128.68 222.77,-286.96 285.93,-457.78 18.13,-48.86 33.17,-98 47.54,-145.35 9.81,-31.87 19.38,-63.32 29.73,-94.22 v -20.62 c -12.89,36.91 -24.49,74.45 -36.25,112.77 -14.49,47.23 -29.38,96.25 -47.38,145.04 -62.78,169.84 -161.22,327.34 -284.38,455.35 -28.12,29.14 -66.72,59.92 -104.73,59.92 -9.49,0 -18.98,-1.83 -28.24,-6.21 -57.65,-26.95 -52.85,-88.94 -48.28,-148.86 1.29,-16.84 2.46,-32.54 2.27,-47.62 -1.53,-93.4 -31.14,-184.22 -59.77,-272.07 -7.38,-22.62 -15.04,-45.98 -21.87,-68.79 -26.84,-88.4 -33.25,-186.29 -18.09,-275.78 12.34,-73.17 45.7,-135.16 76.6,-186.02 31.33,-51.52 36.64,-112.73 41.76,-171.91 3.08,-36.02 6.41,-73.2 15.35,-108.24 32.27,-126.102 75.63,-230.981 132.42,-320.899 17.89,-28.281 36.88,-56.882 55.31,-84.609 89.18,-134.141 181.33,-272.973 193.25,-441.602 8.12,-113.398 -26.53,-233.6792 -108.67,-378.519 -106.65,-188.16 -253.56,-353.199 -428.72,-484.801"
       style="fill:#003594;fill-opacity:1;fill-rule:nonzero;stroke:none"
       transform="matrix(0.13333333,0,0,-0.13333333,0,900)" />
    <path
       id="path16"
       d="m 4430.7,5925 c -49.53,0 -95.35,14.18 -131.68,51.52 -39.1,40.16 -53.28,96.37 -67.03,150.82 -9.88,39.42 -20.11,80.12 -39.72,114.93 -22.58,40.07 -58.17,73.47 -92.58,105.66 -53.28,50 -103.67,97.27 -110.94,167.66 -0.51,4.92 -0.74,9.8 -0.74,14.61 0,39.53 16.64,78.04 47.54,109.68 41.87,42.93 104.41,68.56 164.25,68.56 7.39,0 14.73,-0.43 21.96,-1.21 106.44,-11.68 195.74,-79.89 282.03,-145.9 l 14.8,-11.37 c 127.66,-97.15 279.89,-195.58 446.45,-195.58 5.31,0 10.74,0 16.17,0.31 89.73,3.51 179.22,47.81 239.41,118.55 71.61,84.14 80.55,153.13 30.04,230.51 -52.42,80.23 -121.87,147.77 -189.02,213.05 l -17.15,16.72 c -51.76,50.5 -98.87,105.86 -144.45,159.45 -24.42,28.71 -49.65,58.4 -75.43,87.11 -65.43,72.77 -131.8,146.8 -200.86,218.59 h 9.49 c 67.46,-70.39 132.35,-142.65 196.25,-213.9 25.78,-28.72 51.13,-58.52 75.55,-87.11 45.51,-53.48 92.5,-108.71 144.06,-159.03 l 17.15,-16.68 c 67.42,-65.62 137.11,-133.4 189.96,-214.25 52.62,-80.55 43.36,-151.84 -30.59,-238.83 -61.36,-72.27 -152.65,-117.46 -244.17,-120.94 -5.47,-0.23 -10.98,-0.31 -16.41,-0.31 -168.48,0 -321.88,99.1 -450.39,196.87 l -14.81,11.37 c -85.66,65.39 -174.18,133.05 -278.71,144.49 -7.03,0.78 -14.18,1.21 -21.33,1.21 -58.04,0 -118.67,-24.88 -159.37,-66.44 -33.36,-34.18 -49.41,-76.53 -44.84,-118.79 7.03,-67.78 56.44,-114.14 108.79,-163.28 34.72,-32.62 70.74,-66.33 93.82,-107.39 20.16,-35.58 30.51,-76.71 40.51,-116.68 14.06,-55.97 27.38,-108.82 65.2,-147.65 34.84,-35.82 79.06,-49.45 127.11,-49.45 73.82,0 156.83,32.18 229.18,65.7 175.82,81.52 409.14,175.27 654.84,176.72 1.6,0 3.08,0 4.69,0 51.68,0 102.26,-5.04 151.79,-13.99 v -6.99 c -49.53,9.06 -100.23,14.1 -151.91,14.1 -1.49,0 -2.97,0 -4.49,0 -244.42,-1.44 -476.88,-94.88 -652.15,-176.05 -73.09,-33.95 -156.95,-66.37 -232.07,-66.49 M 1211.56,2890.74 c -32.58,0 -62.11,12.31 -92.77,25.2 -32.5,13.63 -66.06,27.73 -105.7,27.73 -8.75,0 -17.578,-0.12 -26.531,-0.35 -9.18,-0.08 -18.438,-0.2 -27.688,-0.2 -45.281,0 -90.59,3.36 -129.57,26.41 -45.821,27.07 -72.781,75.51 -98.871,122.46 -9.489,17.03 -19.301,34.61 -29.731,50.86 -70.66,109.03 -199.679,175.74 -332.539,175.74 -17.461,0 -34.922,-1.21 -52.422,-3.51 C 173.32,3295.86 85.5117,3208.32 -7.37891,3115.66 -27.7305,3095.35 -48.75,3074.41 -70.5898,3053.91 l -0.6211,-0.55 v 9.49 c 20.3515,19.3 40.039,38.87 59.0195,57.74 93.75,93.55 182.3124,181.83 326.9924,201.36 17.66,2.43 35.469,3.6 53.25,3.6 135.109,0 266.359,-67.89 338.277,-178.75 10.66,-16.49 20.473,-34.18 30.082,-51.33 25.539,-46.06 52.07,-93.75 96.399,-119.85 37.621,-22.26 82.152,-25.54 126.679,-25.54 9.063,0 18.133,0.12 27.071,0.23 8.953,0.12 17.781,0.31 26.641,0.31 h 0.08 c 40.94,0 75.04,-14.29 108.17,-28.12 30.03,-12.58 58.78,-24.69 90.35,-24.69 12.15,0 24.61,1.76 37.69,6.02 88.24,28.36 148.75,103.01 207.15,175.08 l 1.68,2.07 c 76.09,93.86 112.3,221.99 97.07,342.93 -10.74,85.23 -45.39,170.27 -78.94,252.46 -56.8,139.37 -110.47,270.9 -57.23,403.16 31.99,79.69 97.93,137.66 161.76,193.63 9.88,8.75 19.92,17.46 29.61,26.29 60.82,54.69 141.91,139.42 143.82,243.21 v 3.36 c 0,120.62 -117.42,146.6 -221.17,169.53 -30.58,6.75 -59.45,13.08 -84.49,21.6 -147.27,49.57 -291.84,111.68 -429.69,184.57 -102.931,54.45 -187.419,104.57 -260.08,211.09 -65.621,96.37 -107.808,206.92 -121.992,319.92 -26.636,212.15 47.422,439.18 193.051,592.43 137.973,145.15 344.141,233.47 565.741,242.18 13.13,0.55 26.33,0.78 39.65,0.78 180.82,0 370.78,-48.47 565.43,-144.41 137.03,-67.46 367.77,-216.09 375.04,-452.73 0.55,-15.16 0.19,-31.45 0,-47.15 -1.06,-64.85 -2.35,-132.07 45.51,-167.42 17.46,-12.89 37.26,-18.13 57.81,-18.13 44.76,0 93.36,24.22 130.55,45.86 l 403.16,233.67 c 65.51,37.97 176.64,113.71 185.04,194.26 3.44,31.99 -10.2,62.23 -40.24,89.73 -34.84,31.99 -83.75,39.29 -131.05,46.4 -12.27,1.84 -24.96,3.71 -37.07,5.98 -102.62,19.45 -200.98,80.9 -269.88,168.55 -29.85,37.86 -49.77,80.55 -69.07,121.8 -25.15,53.79 -48.9,104.77 -93.12,147.11 -31.09,29.92 -67.66,54.26 -103.01,77.74 -23.55,15.7 -47.85,31.87 -70.43,49.64 -125.62,98.56 -207.22,253.87 -218.08,415.63 -1.61,23.59 -1.84,47.81 -1.96,71.05 -0.39,48.25 -0.74,98.25 -13.71,145.08 -18.36,65.9 -60.43,104.77 -113.36,127.81 h 16.6 c 48.05,-24.37 85.86,-63.2 103.36,-125.97 13.21,-47.7 13.64,-98.13 13.95,-146.8 0.12,-23.24 0.31,-47.27 1.91,-70.74 10.78,-159.77 91.41,-313.24 215.55,-410.59 22.46,-17.58 46.68,-33.75 70.12,-49.33 35.58,-23.71 72.34,-48.25 103.86,-78.48 45.16,-43.32 70.32,-97.15 94.61,-149.22 19.07,-40.82 38.91,-83.16 68.21,-120.47 67.96,-86.37 164.8,-146.83 265.82,-166.01 12.03,-2.31 24.72,-4.18 36.87,-6.02 48.24,-7.3 98.2,-14.84 134.57,-48.12 31.72,-29.14 46.02,-61.25 42.5,-95.63 -8.75,-83.71 -121.8,-160.98 -188.47,-199.53 l -403.17,-233.67 c -38.05,-22.03 -87.69,-46.72 -133.94,-46.72 -21.84,0 -43.05,5.59 -61.8,19.45 -50.59,37.42 -49.42,106.53 -48.24,173.21 0.31,16.36 0.5,31.64 0,46.79 -7.15,232.93 -235.71,379.85 -371.21,446.76 -193.6,95.39 -382.7,143.63 -562.54,143.63 -13.13,0 -26.21,-0.23 -39.34,-0.74 -219.92,-8.75 -424.37,-96.29 -561.171,-240.16 -144.258,-151.71 -217.461,-376.75 -191.25,-586.64 13.981,-111.75 55.742,-221.36 120.82,-316.87 71.911,-105.43 152.153,-153.13 257.661,-208.91 137.53,-72.77 281.79,-134.76 428.71,-184.22 24.72,-8.28 53.47,-14.61 83.86,-21.4 106.21,-23.44 226.61,-49.96 226.61,-176.17 v -3.6 c -1.92,-106.64 -84.38,-192.73 -146.18,-248.28 -9.8,-8.87 -19.72,-17.58 -29.72,-26.33 -63.17,-55.54 -128.4,-112.85 -159.81,-191.01 -51.99,-129.53 1.06,-259.85 57.19,-397.82 33.67,-82.61 68.52,-168.08 79.37,-254.33 15.59,-122.77 -21.28,-252.97 -98.55,-348.17 l -1.68,-2.18 c -59.02,-72.89 -120.19,-148.21 -210.31,-177.23 -13.99,-4.49 -27.19,-6.33 -39.85,-6.33"
       style="fill:#003594;fill-opacity:1;fill-rule:nonzero;stroke:none"
       transform="matrix(0.13333333,0,0,-0.13333333,0,900)" />
    <path
       id="path17"
       d="m 3689.8,-656.211 h -10.11 c -62.03,56.211 -152.03,78.16 -243.24,78.16 -102,0 -205.43,-27.297 -272.97,-64.41 -8.13,-4.488 -16.21,-9.059 -24.18,-13.75 h -13.44 c 11.29,6.762 22.81,13.441 34.41,19.762 68.28,37.539 172.93,65.039 276.18,65.039 93.63,0 186.21,-22.688 249.6,-81.32 1.29,-1.18 2.58,-2.391 3.75,-3.481 z m 930.36,0 h -13.25 c 59.07,35.59 115.75,75.313 168.13,118.32 252.3,206.602 390.94,479.5707 380.27,748.832 -6.72,171.168 -71.17,339.258 -181.56,473.399 -65.63,79.762 -180.27,237.609 -210.39,398.71 -5.24,28.04 -9.06,56.75 -12.7,84.57 -5.54,42.34 -11.4,86.13 -22.38,127.81 -10.66,40.27 -32.26,76.84 -53.16,112.11 -22.58,38.08 -45.82,77.38 -54.53,120.51 -18.44,91.75 14.88,206.05 36.4,266.17 19.18,53.51 45.82,105.78 71.49,156.33 59.8,117.18 121.48,238.59 91.32,378.94 -10.23,47.81 -30.89,93.21 -50.82,137.07 -12.57,27.74 -25.66,56.45 -36.13,85.71 -15.74,44.18 -45.82,155.43 15.59,232.89 27.38,34.61 56.33,51.95 86.4,51.95 3.71,0 7.54,-0.2 11.29,-0.74 98.99,-14.18 179.53,-207.7 209.77,-280.51 23.55,-56.64 106.99,-231.29 237.3,-231.29 9.03,0 18.32,0.9 27.78,2.62 80.11,15.08 129.76,94.22 150.04,178.01 v -25.08 c -24.11,-77.07 -73.32,-145.63 -148.87,-159.81 -9.88,-1.83 -19.69,-2.73 -29.06,-2.73 -134.38,0 -219.38,177.81 -243.36,235.54 -27.07,64.97 -109.3,262.74 -204.57,276.37 -3.4,0.55 -6.8,0.74 -10.24,0.74 -28.01,0 -55.27,-16.56 -81.29,-49.41 -59.1,-74.57 -29.84,-182.93 -14.49,-226.17 10.35,-28.91 23.36,-57.5 35.9,-85.12 20.16,-44.22 40.94,-90.08 51.37,-138.51 30.58,-142.9 -31.64,-265.36 -91.96,-383.64 -25.66,-50.43 -52.18,-102.5 -71.17,-155.54 -21.29,-59.38 -54.33,-172.58 -36.21,-262.39 8.4,-42.03 30.35,-79.02 53.71,-118.32 21.17,-35.7 43.01,-72.69 53.91,-113.94 11.17,-42.27 16.91,-86.21 22.58,-128.79 3.63,-27.74 7.46,-56.33 12.65,-84.18 29.96,-159.45 143.75,-316.29 209.06,-395.548 111.22,-135.231 176.22,-304.84 183.05,-477.5 10.67,-271.3322 -128.91,-546.481 -382.81,-754.652 -49.77,-40.821 -103.48,-78.668 -159.18,-112.848"
       style="fill:#003594;fill-opacity:1;fill-rule:nonzero;stroke:none"
       transform="matrix(0.13333333,0,0,-0.13333333,0,900)" />
    <path
       id="path18"
       d="m 5023.4,4007.38 c -19.38,0 -37.7,6.25 -53.91,18.48 -29.53,22.34 -42.85,58.16 -55.7,92.77 -9.41,25.2 -19.1,51.29 -34.84,72.03 -30.08,39.5 -76.29,55.9 -125.2,73.25 -23.67,8.39 -48.05,17.11 -70.23,28.59 -117,60.47 -182.31,212.73 -155.32,362.03 22.35,123.67 102.89,244.81 226.92,340.98 93.43,72.46 200.93,125.51 304.92,176.79 17.93,8.87 35.7,17.7 53.51,26.53 121.33,60.82 241.1,127.26 357.66,197.77 v -8.05 c -115.59,-69.88 -234.41,-135.66 -354.69,-195.93 -17.77,-8.95 -35.58,-17.7 -53.47,-26.53 -103.67,-51.17 -210.98,-104.1 -303.75,-176.17 -122.66,-95.15 -202.35,-214.69 -224.42,-336.68 -26.4,-146.48 37.42,-295.58 151.76,-354.65 21.84,-11.25 46.02,-19.84 69.34,-28.16 47.73,-16.91 97.07,-34.49 128.28,-75.63 16.4,-21.71 26.33,-48.24 35.9,-73.9 13.12,-35.24 25.46,-68.52 53.39,-89.69 15,-11.37 31.96,-17.03 49.97,-17.03 13.82,0 28.32,3.36 42.93,10.23 52.22,24.69 94.84,87.78 98.98,147.04 3.71,54.45 -8.95,109.25 -21.21,162.18 -10.24,43.99 -20.86,89.61 -22.15,135.47 -3.4,127.27 67.03,259.65 188.67,353.09 49.57,37.97 103.67,67.65 160.47,92.97 v -7.5 c -55.39,-24.89 -108.24,-53.95 -156.41,-90.94 -117.1,-89.92 -186.13,-215.78 -186.13,-338.36 0,-2.93 0,-5.9 0.12,-8.83 1.29,-45.19 11.72,-90.39 21.91,-134.14 12.5,-53.36 25.28,-108.4 21.45,-164.26 -4.38,-61.56 -48.6,-127.26 -102.81,-152.81 -15.47,-7.3 -30.9,-10.94 -45.82,-10.94"
       style="fill:#003594;fill-opacity:1;fill-rule:nonzero;stroke:none"
       transform="matrix(0.13333333,0,0,-0.13333333,0,900)" />
    <path
       id="path19"
       d="m 1280.51,2717.81 c -59.89,0 -126.06,16.25 -182.62,30.24 -21.09,5.23 -41.01,10.15 -59.45,13.94 -29.18,6.02 -59.221,10.39 -88.21,14.53 -47.3,6.76 -96.21,13.75 -143,28.48 -90.859,28.71 -119.109,57.11 -176.531,131.09 -52.219,67.23 -135.187,93.99 -215,93.99 -32.73,0 -65,-4.49 -94.289,-12.54 -93.441,-25.66 -166.211,-78.4 -243.3592,-134.06 -14.2617,-10.24 -28.5625,-20.63 -43.1719,-30.86 l -15.8594,-11.14 c -30.7812,-21.64 -60.6211,-43 -90.039,-64.84 v 8.63 c 28.1289,20.82 56.8007,41.37 86.2187,62 l 15.8516,11.13 c 14.6094,10.23 28.8711,20.62 43.168,30.9 77.6602,56.09 150.9802,109.02 245.4722,135 29.84,8.16 62.649,12.77 96.008,12.77 81.723,0 166.723,-27.5 220.43,-96.6 56.492,-72.81 84.262,-100.74 173.25,-128.79 46.32,-14.65 94.922,-21.6 141.91,-28.28 29.18,-4.14 59.331,-8.52 88.751,-14.61 18.44,-3.83 38.48,-8.75 59.65,-13.99 56.29,-13.86 121.99,-30 181.01,-30 26.25,0 51.06,3.17 73.21,11.25 253.71,91.76 371.64,399.89 339.14,644.69 -10.86,82.11 -35.28,162.85 -58.91,240.9 -10.86,35.82 -22.07,72.81 -31.76,109.57 -47.18,177.5 -47.42,315.67 -0.54,410.51 18.55,37.46 51.13,69.96 82.81,101.29 16.83,16.72 32.81,32.54 46.56,49.02 57.81,68.75 98.95,129.77 129.45,191.76 28.87,58.63 47.62,122.81 65.71,184.88 18.75,64.18 38.16,130.67 68.75,190.71 70.19,138.16 162.03,291.95 310.54,385.15 116.49,73.13 243.79,128.79 366.76,182.62 99.69,43.67 202.74,88.75 299.81,142.97 11.91,6.68 24.18,13.43 36.64,20.31 116.75,64.61 249.22,137.97 335.51,237.62 23.12,26.72 44.76,55.97 69.88,89.92 l 3.44,4.69 c 62.1,84.06 120.15,157.42 201.25,203.55 52.22,29.81 111.44,43.91 171.01,43.91 118.56,0 238.44,-55.9 307.03,-155.32 19.3,-27.96 35.71,-59.6 51.68,-90.15 36.64,-70.51 71.29,-137.11 138.52,-166.37 22.26,-9.69 45.08,-13.75 68.08,-13.75 74.5,0 151.53,43.24 221.53,82.54 l 15,8.4 c 205.19,114.49 441.64,175.51 676.01,175.51 36.33,0 72.58,-1.41 108.67,-4.38 27.82,-2.3 60.55,-5.78 94.97,-12.42 v -7.11 c -34.65,6.76 -67.58,10.35 -95.47,12.66 -35.9,2.97 -72.03,4.37 -108.17,4.37 -233.32,0 -468.55,-60.58 -672.81,-174.65 l -15.04,-8.4 c -70.74,-39.72 -148.63,-83.39 -224.69,-83.39 -23.86,0 -47.54,4.25 -70.74,14.41 -69.45,30.12 -106.21,100.98 -141.8,169.49 -15.78,30.47 -32.18,61.92 -51.17,89.53 -67.34,97.66 -185.08,152.46 -301.52,152.46 -58.48,0 -116.56,-13.86 -167.81,-43.12 -80,-45.63 -137.54,-118.28 -199.22,-201.8 l -3.4,-4.68 c -25.16,-34.07 -46.88,-63.44 -70.23,-90.4 -87.04,-100.5 -220,-174.06 -337.31,-239.02 -12.34,-6.87 -24.61,-13.63 -36.64,-20.31 -97.31,-54.34 -200.51,-99.53 -300.35,-143.17 -122.85,-53.82 -249.85,-109.37 -365.9,-182.18 -147.11,-92.35 -238.32,-245.16 -308.13,-382.46 -30.23,-59.57 -49.53,-125.63 -68.16,-189.57 -18.24,-62.31 -37.07,-126.84 -66.17,-185.98 -30.78,-62.54 -72.23,-123.91 -130.43,-193.2 -14.06,-16.68 -30.04,-32.62 -46.95,-49.46 -31.25,-30.86 -63.52,-62.97 -81.41,-99.41 -46.05,-93.32 -45.7,-229.77 1.05,-405.59 9.69,-36.68 20.9,-73.55 31.76,-109.37 23.64,-78.36 48.17,-159.34 59.14,-241.99 32.82,-247.54 -86.64,-559.26 -343.63,-652.23 -22.89,-8.32 -48.48,-11.6 -75.43,-11.6"
       style="fill:#003594;fill-opacity:1;fill-rule:nonzero;stroke:none"
       transform="matrix(0.13333333,0,0,-0.13333333,0,900)" />
    <path
       id="path20"
       d="m 5085.74,5701.99 c -29.18,0 -59.88,-7.73 -86.95,-16.13 -160.55,-50 -300.24,-124.96 -448.13,-204.34 -26.09,-13.94 -52.18,-28.04 -78.71,-42.03 -60.19,-31.83 -163.12,-129.96 -163.12,-202.11 0,-3.28 0.19,-6.56 0.62,-9.72 4.69,-33.95 35.16,-56.76 90.47,-67.89 7.66,-1.53 15.24,-2.31 22.89,-2.31 33.67,0 67.66,13.79 104.65,30.24 166.64,74.21 339.02,150.97 503.95,235.97 52.42,27.07 101.95,55.12 132.54,101.21 29.53,44.73 35.15,115.9 -7.15,153.24 -20.04,17.66 -44.96,23.87 -71.18,23.87 m -662.57,-551.4 c -8.13,0 -16.21,0.78 -24.3,2.42 -58.4,11.79 -90.66,36.56 -95.78,73.67 -0.43,3.36 -0.67,6.76 -0.67,10.27 0,75.08 105.08,176.14 166.76,208.67 26.41,13.99 52.62,28.05 78.64,42.04 148.2,79.57 288.08,154.64 449.29,204.84 27.7,8.63 59.03,16.48 88.95,16.48 27.61,0 54.02,-6.64 75.47,-25.54 23,-20.28 32.81,-49.77 32.81,-80 0,-29.22 -9.18,-59.14 -24.42,-82.39 -31.44,-47.38 -81.83,-75.97 -135,-103.35 -165.15,-85.28 -337.61,-162 -504.49,-236.33 -37.58,-16.68 -72.34,-30.78 -107.07,-30.78"
       style="fill:#003594;fill-opacity:1;fill-rule:nonzero;stroke:none"
       transform="matrix(0.13333333,0,0,-0.13333333,0,900)" />
    <path
       id="path21"
       d="m 2764.22,-656.211 h -7.77 c 11.71,20.621 23.67,41.563 35.7,61.563 94.61,157.07 250.9,266.289 440.23,307.457 52.85,11.453 106.25,17.23 158.99,17.23 143.83,0 283.28,-42.109 398.24,-122.457 13.44,-9.383 27.07,-19.422 40.27,-29.141 67.35,-49.652 136.92,-100.859 220.9,-100.859 4.34,0 8.71,0.117 13.2,0.469 71.06,4.57 138.29,31.328 203.4,57.179 32.07,12.782 65.71,23.79 98.21,34.5 69.57,22.809 141.6,46.481 203.2,88.391 92.38,62.859 108.55,149.301 127.42,249.5001 3.63,19.2187 7.34,39.2187 11.72,59.0586 8.4,38.74999 19.92,74.4492 31.02,109.0195 27.14,84.7308 52.85,164.6098 26.83,268.2108 -18.87,75.309 -61.99,134.211 -107.62,196.559 -7.22,9.922 -14.49,19.84 -21.6,29.801 -66.52,92.851 -75.04,144.812 -80.97,259.218 -5.12,98.672 -10.36,200.712 -39.03,296.992 -14.57,48.99 -40.15,85.24 -67.3,123.56 -7.81,10.9 -15.71,22.15 -23.48,33.83 -32.26,48.36 -53.36,108.71 -64.65,184.57 -17.89,120.94 1.49,239.76 61.14,373.71 8.12,18.2 17.18,36.68 26.75,56.21 46.76,95.51 99.73,203.79 46.76,303.87 -31.33,59.02 -95.55,98 -161.09,98 -1.49,0 -2.97,0 -4.57,0 -7.89,-0.23 -16.21,-0.85 -24.3,-1.52 -10.74,-0.9 -21.52,-1.64 -32.07,-1.64 -23.2,0 -44.96,4.14 -60.7,21.72 -24.73,27.62 -15.47,73.67 7.77,102.26 15.12,18.56 34.73,32.54 53.67,45.94 9.49,6.8 19.3,13.67 28.36,21.1 82.77,67.77 110.16,172.42 139.26,283.2 22.34,85.27 45.47,173.44 96.21,243.32 48.59,66.87 119.1,112.42 187.3,156.41 20.86,13.39 42.39,27.26 62.86,41.56 95.23,66.13 156.6,169.18 168.43,282.69 11.61,111.76 -25.35,219.81 -104.18,304.3 -62.22,66.68 -149.49,106.64 -245.7,112.19 -2.89,0.23 -5.74,0.23 -8.75,0.23 -31.4,0 -63.71,-9.37 -94.92,-18.55 -31.09,-9.06 -60.82,-17.78 -89.38,-17.78 -6.09,0 -12.14,0.43 -18.12,1.18 -39.73,5.7 -70.2,38.55 -95.66,68.78 -46.37,55.2 -91.33,112.74 -133.72,171.02 -18.32,25.31 -34.02,48.48 -40.19,76.17 -1.06,5.16 -1.6,10.82 -1.6,16.92 0,32.54 14.61,77.73 27.81,118.24 7.77,23.87 15.16,46.6 18.36,63.28 4.45,23.16 9.37,46.48 14.14,69.1 11.52,54.34 23.44,110.55 28.55,166.99 23.01,252.23 -96.52,499.03 -290.74,599.77 -110.7,57.38 -241.56,68.98 -356.95,79.1 -90.86,8.09 -183.67,16.29 -276.37,16.29 -61.25,0 -122.42,-3.59 -183.12,-13.2 -171.25,-27.07 -340.43,-102.93 -502.82,-225.2 l -4.45,-3.36 c -108.16,-81.33 -271.48,-204.33 -331.05,-332.15 -19.61,-42.11 -29.93,-91.68 -39.85,-139.57 -8.4,-40.39 -17.03,-82.11 -31.21,-119.76 -29.06,-76.96 -65.94,-151.92 -101.64,-224.3 l -19.3,-39.3 c -74.68,-152.03 -151.91,-309.18 -170.11,-481.09 -11.53,-107.73 1.17,-217.66 13.4,-323.95 7.14,-62.1 14.49,-126.4 17.07,-189.8 5.74,-143.09 -29.22,-290.23 -98.48,-415.31 -74.14,-133.91 -180.47,-231.6 -307.46,-282.81 -93.24,-37.54 -192.97,-48.56 -291.64,-48.56 -75.12,0 -149.57,6.45 -220,12.46 -42.619,3.6 -85.119,7.38 -127.74,11.13 -70.43,6.22 -143.32,12.74 -215,18.56 -3.512,0.31 -7.031,0.43 -10.66,0.43 -21.758,0 -44.532,-4.92 -66.602,-9.61 -22.457,-4.81 -45.508,-9.73 -68.09,-9.73 -15.117,0 -30.039,2.19 -44.527,8.09 -23.633,9.61 -37.191,27.85 -50.391,45.39 -8.199,10.94 -16.601,22.26 -27.5,31.44 -20.859,17.7 -42.5,25 -64.57,25 -62.191,0 -126.871,-58.82 -181.641,-108.59 -17.379,-15.82 -33.789,-30.66 -48.48,-42.15 -52.2188,-40.82 -106.32822,-61.13 -163.6681,-82.73 -6.9101,-2.62 -14.2617,-5.55 -21.4804,-8.28 v 7.42 c 6.3593,2.38 12.8906,5 19.1406,7.42 56.78906,21.37 110.3906,41.56 161.8669,81.76 14.492,11.33 30.903,26.17 48.133,41.91 55.859,50.74 121.68,110.67 186.129,110.67 23.359,0 46.559,-7.85 68.949,-26.84 11.403,-9.73 20.153,-21.29 28.43,-32.54 13.133,-17.58 25.59,-34.26 47.543,-43.24 13.519,-5.55 27.699,-7.62 42.066,-7.62 21.961,0 44.532,4.81 66.723,9.61 22.34,4.81 45.391,9.69 67.738,9.69 3.86,0 7.571,-0.08 11.403,-0.43 71.718,-5.9 144.57,-12.34 215,-18.56 42.539,-3.71 85.16,-7.53 127.778,-11.13 70.19,-6.01 144.45,-12.42 219.37,-12.42 98.01,0 196.99,11.02 289.26,48.01 267.54,107.73 402.19,409.53 402.19,663.16 0,9.49 -0.2,18.91 -0.51,28.28 -2.58,63.09 -9.92,127.27 -17.07,189.14 -12.23,106.76 -24.92,217.11 -13.4,325.47 18.44,173.13 95.86,330.94 170.9,483.52 l 19.26,39.29 c 35.58,72.27 72.34,146.92 101.32,223.68 14.07,37.11 22.62,78.55 30.9,118.63 10.04,48.36 20.35,98.2 40.39,141.21 60.31,129.45 224.49,253.01 333.17,334.77 l 4.45,3.39 c 163.24,122.9 333.4,199.07 505.78,226.37 61.06,9.69 122.66,13.32 184.22,13.32 92.89,0 185.82,-8.2 276.91,-16.29 116.02,-10.23 247.5,-21.91 359.38,-79.88 196.68,-101.95 317.69,-351.33 294.49,-606.64 -5.23,-56.88 -17.15,-113.28 -28.79,-167.85 -4.8,-22.62 -9.69,-45.98 -14.18,-68.99 -3.28,-17.14 -10.62,-39.96 -18.51,-64.18 -15.36,-47.26 -32.82,-100.86 -26.02,-131.4 5.9,-26.41 21.09,-48.91 39.02,-73.6 42.27,-58.16 87.15,-115.46 133.36,-170.58 25.82,-30.67 54.14,-61.1 91.53,-66.49 5.66,-0.74 11.32,-1.17 17.07,-1.17 27.69,0 56.99,8.52 87.69,17.46 31.64,9.26 64.34,18.79 96.6,18.79 3.13,0 6.22,0 9.3,-0.23 97.81,-5.67 186.64,-46.41 250.16,-114.38 70.54,-75.66 108.16,-169.84 108.16,-268.83 0,-13.55 -0.78,-27.18 -2.15,-40.93 -12.03,-115.47 -74.49,-220.39 -171.33,-287.62 -20.54,-14.3 -42.18,-28.24 -63.08,-41.68 -67.66,-43.67 -137.62,-88.75 -185.47,-154.65 -49.96,-68.9 -72.89,-156.33 -95.16,-241.01 -28.12,-107.07 -57.11,-217.62 -141.6,-286.84 -9.26,-7.54 -19.18,-14.61 -28.75,-21.41 -18.67,-13.2 -37.85,-26.83 -52.3,-44.72 -21.45,-26.33 -30.28,-68.21 -8.01,-93.13 13.95,-15.58 34.22,-19.41 56.05,-19.41 10.24,0 20.79,0.78 31.22,1.64 8.2,0.66 16.6,1.29 24.6,1.52 1.61,0 3.09,0 4.69,0 67.97,0 134.57,-40.39 167.07,-101.52 54.77,-103.56 0.82,-213.36 -46.68,-310.27 -9.57,-19.54 -18.55,-37.9 -26.64,-56.02 -59.14,-132.62 -78.32,-250.16 -60.62,-369.88 11.09,-74.77 31.87,-134.14 63.51,-181.6 7.78,-11.68 15.67,-22.82 23.32,-33.75 27.5,-38.87 53.4,-75.51 68.32,-125.63 28.87,-97.03 34.18,-199.531 39.3,-298.629 5.86,-112.851 14.18,-164.031 79.57,-255.511 7.15,-10.039 14.41,-19.84 21.64,-29.77 43.99,-60.148 89.49,-122.379 108.79,-199.101 26.41,-105.43 0.51,-186.329 -26.95,-272.1098 -11.1,-34.4883 -22.5,-70.07811 -30.9,-108.3594 -4.38,-19.8789 -8.09,-39.7578 -11.64,-58.9375 -18.2,-97.3823 -35.47,-189.3823 -130.28,-253.8713 -62.46,-42.461 -134.88,-66.293 -204.88,-89.301 -32.38,-10.699 -66.05,-21.601 -97.93,-34.25 -65.51,-26.101 -133.28,-53.171 -205.31,-57.66 -4.57,-0.308 -9.26,-0.429 -13.75,-0.429 -86.05,0 -156.41,51.839 -224.57,102.148 -13.24,9.731 -26.88,19.762 -40.2,29.063 -113.78,79.57 -252.07,121.25 -394.53,121.25 -52.3,0 -105.04,-5.582 -157.46,-17.032 -187.42,-40.82 -342.22,-148.98 -435.86,-304.41 -11.29,-18.75 -22.61,-38.398 -33.67,-57.93"
       style="fill:#003594;fill-opacity:1;fill-rule:nonzero;stroke:none"
       transform="matrix(0.13333333,0,0,-0.13333333,0,900)" />
    <path
       id="path22"
       d="m 2686.56,-656.211 h -7.77 c 9.06,16.481 17.81,32.973 26.33,48.981 10.97,20.75 21.4,40.32 31.44,57.968 11.92,20.864 23.01,42.032 33.75,62.422 33.99,64.852 66.06,126.102 122.66,174.539 C 3004.06,-216.91 3171.02,-95 3374.1,-95 c 17.89,0 36.02,-0.9805 54.34,-2.9297 126.25,-13.6293 225.97,-72.9293 331.44,-135.6603 22.07,-13.09 44.96,-26.758 68.01,-39.851 45.9,-26.09 139.02,-71.168 233.44,-71.168 46.13,0 92.58,10.82 134.14,39.73 63.48,44.41 94.8,115.82 128.05,191.438 18.32,41.7222 37.18,84.8121 61.91,122.58163 22.58,34.37887 51.33,67.33987 79.26,99.09737 66.05,75.434 128.83,146.602 118.79,239.692 -6.29,60.472 -42.5,108.48 -80.75,159.34 -18.63,24.8 -38.04,50.429 -53.28,77.421 -53.28,94.18 -58.47,206.289 -63.4,314.758 -1.48,32.621 -3.08,66.453 -5.85,99.102 -7.23,82.739 -26.72,152.929 -57.97,208.359 -15,26.96 -38.87,47.15 -61.88,66.8 -22.93,19.53 -44.53,37.97 -58.2,62.31 -54.96,98.12 10.97,299.41 32.5,358.78 12.07,33.29 27.19,65.82 41.76,97.35 14.84,31.99 30.19,65.04 42.3,98.79 28.79,79.88 32.5,149.41 11.09,206.91 -20.03,53.95 -74.8,103.95 -134.88,103.95 -8.01,0 -16.09,-0.9 -24.3,-2.85 -19.92,-4.57 -39.41,-14.85 -58.28,-24.69 -25.23,-13.21 -51.13,-26.72 -78.08,-26.72 -6.72,0 -13.56,0.86 -20.47,2.81 -20.12,5.59 -36.45,19.77 -47.19,40.94 -13.94,27.5 -16.21,62.89 -5.86,92.34 17.89,51.1 62.97,88.4 99.1,118.32 128.79,106.53 181.53,249.42 237.39,400.78 4.76,13.01 9.57,25.98 14.45,38.99 39.53,106.05 118.59,180.51 195,252.54 90.43,85.27 175.78,165.7 202.73,294.49 17.7,84.8 -7.53,195.59 -90.11,243.4 -45.63,26.29 -97.82,32.62 -148.32,38.75 -50.82,6.09 -103.36,12.42 -150.32,38.87 -86.21,48.43 -166.56,132.69 -237.38,207.03 -15.47,16.13 -30.51,31.99 -45.31,47.03 -47.31,48.36 -65.39,95.19 -65.39,144.18 0,55.66 23.32,113.94 53.47,180.43 58.05,127.69 55.4,300.58 -6.71,430.04 -34.11,71.17 -101.1,161.99 -226.84,191.01 -25.47,5.9 -51.25,8.28 -77.15,8.28 -60.51,0 -121.87,-13.08 -181.76,-25.97 -19.61,-4.14 -39.84,-8.52 -59.76,-12.35 -42.31,-8.04 -81.49,-12.11 -117.31,-12.11 -82.34,0 -147.34,21.29 -194.1,63.64 -18.79,17.03 -34.53,37.54 -49.76,57.3 -16.1,20.98 -32.82,42.7 -52.86,59.92 -39.96,34.26 -89.8,48.13 -139.45,48.13 -45.39,0 -90.58,-11.56 -127.85,-29.81 -264.26,-129.22 -397.3,-445.07 -514.73,-723.75 -20.23,-48 -39.33,-93.28 -58.71,-136.72 -58.83,-131.64 -119.53,-267.85 -157.58,-409.76 -38.36,-143.2 -38.67,-291.29 -38.98,-434.49 0,-22.7 0,-45.32 -0.23,-68.01 -0.86,-98.99 -4.38,-205.08 -24.93,-309.1 -39.84,-202.27 -137.11,-466.92 -374.92,-579.14 -110.08,-51.96 -232.69,-62.54 -350.54,-62.54 -41.76,0 -82.9,1.33 -122.62,2.61 -82.46,2.62 -155.24,3.95 -221.838,3.95 -66.602,0 -129.453,-1.33 -188.672,-4.14 -16.328,-0.78 -32.852,-1.09 -49.262,-1.09 -85,0 -171.718,9.06 -256.008,18 -32.699,3.48 -66.601,7 -99.609,9.93 -19.812,1.75 -39.422,3.16 -58.281,3.16 -37.82,0 -72.969,-5.78 -102.27,-26.09 -22.3,-15.39 -38.91,-38.21 -55.121,-60.24 -15.109,-20.62 -30.6599,-41.91 -51.0076,-57.85 -34.3008,-26.64 -77.6602,-34.8 -119.5312,-42.77 -6.2891,-1.21 -12.5821,-2.86 -18.8711,-4.07 v 7.11 c 5.9804,1.21 11.832,2.74 17.6914,3.83 41.0976,7.74 83.6406,15.82 116.6406,41.45 19.6094,15.31 34.9687,36.25 49.7699,56.44 16.41,22.5 33.437,45.74 56.679,61.88 30.7,21.17 67.032,27.18 106.02,27.18 19.18,0 38.898,-1.4 58.898,-3.28 33.051,-2.93 67.032,-6.52 99.731,-9.92 84.179,-8.83 170.781,-17.89 255.511,-17.89 16.29,0 32.61,0.31 48.79,1.09 59.332,2.74 121.128,4.15 189.21,4.15 68.09,0 139.38,-1.33 221.84,-3.95 39.53,-1.29 80.43,-2.62 121.99,-2.62 117.19,0 239.18,10.47 348.17,61.88 235.27,111.01 331.68,373.51 371.09,574.26 20.39,103.43 23.98,209.1 24.84,307.77 0.24,22.58 0.24,45.31 0.32,67.89 0.31,143.63 0.54,292.19 39.22,436.37 38.12,142.54 98.98,278.86 157.89,410.82 19.29,43.32 38.47,88.63 58.59,136.64 117.97,279.76 251.56,596.95 518.05,727.26 38,18.68 84.25,30.43 130.7,30.43 51.17,0 102.5,-14.29 143.75,-49.76 20.55,-17.66 37.5,-39.61 53.79,-60.78 15.04,-19.54 30.58,-39.85 48.91,-56.45 45.5,-41.13 108.98,-61.87 189.53,-61.87 35.5,0 74.18,4.02 116.13,11.99 19.84,3.71 40.08,8.08 59.57,12.34 60.31,12.89 121.99,26.1 183.16,26.1 26.41,0 52.62,-2.5 78.64,-8.4 128.28,-29.57 196.68,-122.27 231.4,-194.73 62.97,-131.29 65.63,-306.48 6.72,-436.05 -55.62,-122.35 -87.38,-216.76 10.55,-316.72 14.8,-15.08 29.92,-30.9 45.39,-47.15 70.51,-74.02 150.55,-157.85 235.78,-205.86 45.78,-25.78 97.7,-32.11 147.85,-38.09 51.17,-6.13 104.1,-12.57 150.9,-39.53 68.4,-39.61 98.87,-120.82 98.87,-196.33 0,-18.79 -1.92,-37.11 -5.55,-54.49 -27.38,-130.97 -117.54,-215.97 -204.77,-298.08 -75.85,-71.49 -154.29,-145.36 -193.28,-249.93 -4.92,-12.96 -9.68,-25.97 -14.37,-38.98 -56.17,-152.23 -109.22,-295.98 -239.42,-403.71 -37.38,-30.9 -79.8,-65.94 -97.07,-115.27 -9.68,-27.62 -7.65,-60.9 5.43,-86.88 6.84,-13.52 19.93,-30.98 42.93,-37.42 6.41,-1.76 12.7,-2.62 18.99,-2.62 25.04,0 49.33,12.77 74.69,25.98 19.29,10.04 39.21,20.51 59.88,25.31 8.63,1.95 17.15,2.93 25.66,2.93 63.09,0 120.39,-52.03 141.29,-108.36 21.95,-58.94 18.2,-130.23 -11.09,-211.76 -12.27,-34.06 -27.58,-67.22 -42.5,-99.41 -14.49,-31.33 -29.53,-63.75 -41.57,-96.84 -21.28,-58.59 -86.52,-257.26 -32.92,-352.85 13.12,-23.36 34.21,-41.37 56.68,-60.47 23.43,-19.96 47.73,-40.62 63.39,-68.67 31.64,-56.41 51.49,-127.46 58.83,-211.171 2.85,-32.739 4.45,-66.598 5.98,-99.34 4.88,-107.609 10.12,-218.938 62.54,-311.598 15,-26.64 34.18,-52.07 52.85,-76.64 37.15,-49.34 75.74,-100.391 82.11,-162.731 9.92,-95.941 -56.33,-171.801 -120.47,-245.039 -27.73,-31.6405 -56.37,-64.3827 -78.63,-98.32022 -24.42,-37.35158 -43.17,-80.12108 -61.37,-121.60178 -32.07,-73.129 -65.31,-148.867 -130.43,-194.297 -42.73,-29.773 -90.47,-40.902 -137.77,-40.902 -96.1,0 -190.28,45.629 -236.84,72.031 -23.12,13.199 -46.02,26.719 -68.09,39.918 -104.84,62.352 -203.9,121.289 -328.78,134.692 -18.13,1.988 -36.02,2.968 -53.72,2.968 -200.93,0 -366.48,-120.937 -476.75,-215.66 -55.51,-47.82 -87.39,-108.398 -121.06,-172.578 -10.74,-20.512 -21.83,-41.68 -33.87,-62.66 -10.03,-17.461 -20.35,-36.992 -31.32,-57.621 -8.01,-15.07 -16.1,-30.352 -24.5,-45.738"
       style="fill:#003594;fill-opacity:1;fill-rule:nonzero;stroke:none"
       transform="matrix(0.13333333,0,0,-0.13333333,0,900)" />
    <path
       id="path23"
       d="m 2544.96,-656.211 h -10.31 c 47.5,42.031 85.66,90.82 114.96,147.031 16.84,32.301 33.44,66.25 49.65,99.219 67.34,137.383 136.99,279.492 251.64,377.9727 82.38,70.8203 195.19,108.8985 317.3,108.8985 25.16,0 50.63,-1.6407 76.41,-4.9219 119.41,-15.2695 242.38,-63.07814 386.95,-150.5078 5.74,-3.4688 11.53,-6.9922 17.27,-10.461 43.36,-26.4105 88.08,-53.7895 137.11,-67.0395 19.29,-5.23 38.36,-7.73 56.68,-7.73 40.82,0 77.65,12.77 103.9,37.23 35.59,32.9692 48.91,83.0395 61.8,131.39891 12.54,47.27339 25.55,95.94109 58.91,130.74209 26.83,28.051 64.14,43.789 100.23,59.07 46.92,19.879 91.09,38.629 112.54,81.868 20.98,42.351 11.8,101.293 -24.41,157.703 -12.23,18.976 -26.41,37.109 -40.16,54.797 -20.66,26.41 -41.99,53.671 -57.11,84.461 -36.25,73.671 -33.55,158.39 -31.13,240.23 2.03,63.441 4.06,129.141 -11.8,189.92 -15.59,59.73 -48.05,113.63 -79.37,165.71 -17.27,28.71 -35.16,58.39 -50.2,88.82 -50.27,102.07 -23.75,187.07 1.8,269.26 21.21,68.13 43.16,138.75 22.38,219.96 -10.98,43.09 -43.79,83.05 -83.4,101.6 -15.04,7.11 -30.39,10.59 -45.19,10.59 -13.83,0 -27.15,-3.05 -39.42,-9.3 -21.33,-10.78 -38.24,-29.76 -54.57,-48.12 -18.75,-21.17 -38.12,-43.01 -64.76,-52.93 -9.26,-3.48 -19.07,-5.24 -29.11,-5.24 -15.11,0 -30.66,3.95 -45.58,11.8 -30.35,15.94 -54.88,46.17 -63.83,79.02 -17.77,65.16 9.69,130.63 35.9,174.3 15.35,25.55 33.48,49.77 50.94,73.24 17.57,23.56 35.82,48.01 51.13,73.79 52.42,88.95 71.91,191.99 90.7,291.72 5.86,31.02 11.8,63.01 18.75,93.99 l 3.71,17.03 c 12.35,56.09 26.33,119.72 54.03,166.68 25.97,44.06 70,80 112.61,114.8 15.67,12.77 30.47,24.88 44.22,37.23 70.75,63.51 143.83,129.22 194.22,212.61 56.06,92.78 71.92,193.95 43.48,277.11 -25.67,75.2 -88.56,141.37 -192.19,202.15 -22.3,13.09 -45.39,25.55 -67.77,37.66 -60.43,32.73 -122.85,66.56 -174.53,114.06 -99.61,91.56 -130.63,196.8 -130.63,307.15 0,92.97 22.15,189.57 43.91,284.76 l 7.15,31.41 c 25.03,110.24 35.66,260.55 -54.69,350.94 -52.31,52.26 -121.76,69.92 -198.36,69.92 -58.71,0 -121.56,-10.35 -184.1,-23.55 l -393.05,-83.17 c -142.89,-30.23 -304.73,-64.49 -432.69,-156.64 -312.7,-225.15 -382.5,-704.1 -438.44,-1088.83 -11.06,-76.17 -21.53,-148.12 -33.32,-215.35 -39.03,-222.23 -83.32,-474.26 -225.04,-669.73 -189.22,-261.09 -441.72,-295.11 -728.75,-295.11 -20.16,0 -40.39,0.19 -60.86,0.43 -32.27,0.43 -65.08,0.66 -98.13,0.66 -297.649,0 -620.621,-22.73 -869.059,-172.46 C 72.9297,2013.28 -2.19141,1957.5 -71.2109,1895.74 v 9.06 c 68.16012,60.47 142.1093,115.16 220.9809,162.86 249.718,150.58 573.628,173.43 872.14,173.43 33.25,0 66.06,-0.35 98.56,-0.78 20.27,-0.23 40.39,-0.43 60.31,-0.43 285.43,0 536.45,33.6 723.87,292.27 140.74,194.3 184.84,445.35 223.75,666.91 11.83,67.11 22.26,139.03 33.36,215.12 56.25,386.17 126.13,866.6 441.29,1093.55 129.14,92.97 291.72,127.35 435.23,157.7 l 393.05,83.16 c 62.97,13.32 126.37,23.79 185.58,23.79 78.09,0 149.26,-18.2 203.09,-71.91 92.58,-92.46 81.8,-245.47 56.45,-357.46 l -7.11,-31.45 c -49.34,-215.54 -95.9,-418.98 84.68,-585.11 51.06,-46.92 113.17,-80.55 173.13,-113.09 22.38,-12.11 45.62,-24.65 67.97,-37.77 105.19,-61.64 168.98,-128.99 195.19,-205.82 9.49,-27.97 14.18,-57.66 14.18,-88.44 0,-63.4 -19.92,-130.98 -58.4,-194.61 -50.89,-84.26 -124.41,-150.27 -195.5,-214.14 -13.83,-12.42 -28.64,-24.53 -44.42,-37.42 -42.07,-34.38 -85.66,-69.96 -111.01,-112.97 -27.07,-45.94 -40.9,-109.03 -53.17,-164.69 l -3.75,-17.15 c -6.91,-30.9 -12.89,-62.85 -18.75,-93.75 -18.83,-100.31 -38.44,-204.02 -91.52,-293.94 -15.43,-26.1 -33.75,-50.63 -51.56,-74.34 -17.35,-23.24 -35.36,-47.34 -50.51,-72.7 -25.47,-42.42 -52.19,-106.28 -35.16,-168.71 8.56,-31.13 31.64,-59.72 60.43,-74.76 13.95,-7.31 28.44,-11.02 42.5,-11.02 9.26,0 18.24,1.6 26.76,4.77 25.04,9.41 43.05,29.72 62.11,51.21 16.72,18.79 34.1,38.32 56.56,49.65 13.2,6.68 27.62,10.04 42.42,10.04 15.75,0 31.96,-3.71 47.93,-11.21 41.45,-19.46 75.67,-61.02 87.15,-106.1 21.21,-83.2 -0.94,-154.69 -22.46,-223.75 -26.33,-84.61 -51.17,-164.61 -2.23,-264.02 14.81,-30.16 32.7,-59.73 49.85,-88.32 31.64,-52.62 64.45,-106.95 80.23,-167.66 16.1,-61.76 14.06,-127.888 12.03,-191.869 -2.65,-84.691 -5.11,-164.691 30.36,-236.84 14.84,-30.121 35.93,-57.191 56.36,-83.281 13.87,-17.699 28.13,-36.02 40.51,-55.23 37.58,-58.52 46.87,-120.04 24.8,-164.688 -22.57,-45.512 -70.07,-65.711 -116.01,-85.16 -35.39,-15.043 -72.03,-30.434 -98.01,-57.5 C 4139.96,97.7695 4127.15,49.8398 4114.8,3.48047 4101.6,-45.8594 4088.05,-96.8398 4051.09,-131.211 c -27.61,-25.668 -65.93,-39.098 -108.59,-39.098 -18.83,0 -38.44,2.61 -58.24,7.969 -49.88,13.43 -95.16,41.051 -138.87,67.7697 l -17.15,10.5117 C 3584.41,2.80859 3462.23,50.3906 3343.83,65.4688 c -25.43,3.2421 -50.82,4.9218 -75.63,4.9218 -120.5,0 -231.72,-37.582 -312.93,-107.3008 -113.55,-97.5778 -182.93,-239.0308 -249.96,-375.7888 -16.17,-32.961 -32.89,-67.141 -49.72,-99.332 -28.48,-54.688 -65.24,-102.5 -110.63,-143.75"
       style="fill:#003594;fill-opacity:1;fill-rule:nonzero;stroke:none"
       transform="matrix(0.13333333,0,0,-0.13333333,0,900)" />
    <path
       id="path24"
       d="m 2267.42,-656.211 h -8.32 c 17.19,24.57 37.93,45.391 76.29,54.262 14.73,3.359 29.73,5.429 44.22,7.5 13.98,1.871 28.36,3.937 42.3,7.109 163.44,36.789 198.71,199.102 229.81,342.262 37.3,172.0272 179.45,363.359 330.39,445.238 79.8,43.199 172.19,64.719 265.74,64.719 93.56,0 194.45,-23.039 280.63,-68.977 27.07,-14.531 54.57,-31.562 81.21,-48.132 73.16,-45.54 148.63,-92.4614 228.32,-92.4614 13.4,0 26.95,1.293 40.7,4.2617 61.68,13.0899 112.93,56.5197 158.09,94.8397 96.75,82.07 185.7,173.32 185.7,284.539 0,3.512 0,6.871 -0.2,10.391 -4.8,96.129 -71.79,164.922 -142.77,237.691 -56.8,58.199 -115.51,118.438 -140.43,194.61 -14.26,43.668 -16.83,90.699 -16.83,137.539 0,12.66 0.23,25.31 0.43,37.85 1.17,78.83 2.22,152.93 -37.93,214.92 -43.48,67.15 -122.86,94.3 -196.68,94.3 -18.52,0 -36.76,-1.72 -53.91,-4.88 -32.93,-6.14 -81.41,-32.66 -132.73,-60.82 -75.04,-41.02 -162.93,-89.07 -231.65,-89.07 -29.72,0 -55.82,8.95 -75.85,31.33 -39.54,44.22 -22.39,114.49 -1.1,165.78 67.15,161.57 180.31,326.25 336.17,489.42 130.75,136.87 200.75,266.33 241.64,446.87 9.57,42.46 15.79,86.88 22.15,133.91 12.89,93.87 26.21,190.78 69.49,270.35 26.29,48.36 63.48,89.53 99.61,129.14 41.76,45.94 84.93,93.52 110.71,152.34 44.29,101.29 30.66,232.74 -36.25,351.37 -31.72,56.29 -75.63,100.39 -117.93,143.09 -31.02,31.21 -63.09,63.4 -90.35,100.39 -43.25,58.51 -65.75,150.31 -83.83,224.1 -2.46,10.16 -4.92,19.96 -7.27,29.45 -16.72,66.14 -19.72,134.5 -22.58,200.51 -2.46,57.54 -5.11,116.99 -16.95,173.32 -23.75,112.66 -135.94,199.73 -229.49,224.42 -23.67,6.21 -48.24,8.94 -73.32,8.94 -86.29,0 -178.44,-31.99 -261.99,-60.9 -16.41,-5.66 -32.27,-11.25 -47.7,-16.25 -147.15,-48.79 -272.97,-117.03 -373.98,-202.93 -264.34,-224.72 -348.09,-572.89 -429.07,-909.49 -36.01,-149.88 -73.28,-304.84 -126.05,-443.59 l -14.26,-37.78 c -76.48,-202.46 -163.24,-431.99 -327.93,-566.79 -88.36,-72.23 -239.53,-116.57 -461.99,-135.55 -32.27,-2.73 -64.57,-3.83 -96.52,-3.83 -55.39,0 -110.16,3.17 -163.75,6.25 -53.91,3.17 -109.34,6.33 -165.16,6.33 -8.09,0 -16.211,0 -24.301,-0.23 -256.25,-4.57 -477.418,-53.48 -657.57,-145.28 -111.68,-56.76 -220.3595,-142.65 -315.5899,-246.68 v 9.96 c 94.6093,102.27 202.1089,186.72 312.2619,242.85 181.019,92.23 403.289,141.33 660.469,145.9 8.32,0.12 16.64,0.24 24.929,0.24 55.742,0 111.131,-3.28 164.961,-6.33 53.59,-3.05 108.24,-6.33 163.51,-6.33 31.88,0 63.83,1.1 95.9,3.83 221.21,18.87 371.09,62.62 458.36,134.02 163.32,133.71 249.73,362.27 325.94,563.95 l 14.26,37.77 c 52.53,138.28 89.8,293.05 125.82,442.7 81.21,337.81 165.15,686.95 431.21,913.24 101.64,86.44 228.2,155.08 376.17,204.1 15.47,5.12 31.33,10.66 47.65,16.25 84.07,29.14 176.76,61.25 264.11,61.25 25.58,0 50.74,-2.73 75.04,-9.18 95.42,-25.23 210.07,-114.18 234.49,-229.53 12.03,-56.88 14.57,-116.68 17.03,-174.41 2.89,-65.71 5.74,-133.6 22.38,-199.11 2.46,-9.49 4.81,-19.29 7.34,-29.57 17.9,-73.12 40.28,-164.06 82.7,-221.56 26.95,-36.56 58.79,-68.67 89.69,-99.65 42.73,-43 86.83,-87.42 119.14,-144.65 68.08,-120.58 81.83,-254.29 36.64,-357.65 -26.21,-59.92 -69.77,-107.85 -111.88,-154.22 -35.78,-39.41 -72.77,-80.12 -98.67,-127.81 -42.62,-78.36 -55.82,-174.73 -68.59,-267.97 -6.53,-47.15 -12.58,-91.76 -22.27,-134.46 -41.25,-181.83 -111.68,-312.26 -243.47,-450.11 -155.32,-162.62 -267.93,-326.56 -334.73,-487.23 -20.47,-49.45 -37.11,-116.91 -0.12,-158.36 18.52,-20.74 43.05,-29.06 71.06,-29.06 66.91,0 153.94,47.62 228.32,88.32 51.79,28.36 100.78,55.12 134.68,61.56 17.47,3.24 36.02,5 54.85,5 75.86,0 157.58,-28.04 202.46,-97.34 41.33,-63.87 40.16,-142.78 39.1,-218.87 -0.86,-58.28 -1.72,-118.71 16.09,-173.081 24.5,-74.648 82.54,-134.258 138.79,-192 68.75,-70.5 139.81,-143.398 144.73,-242.297 0.08,-3.601 0.2,-7.191 0.2,-10.82 0,-114.031 -90.16,-206.723 -188.17,-289.883 -45.82,-38.828 -97.69,-82.8592 -161.09,-96.2498 -14.18,-3.0469 -28.24,-4.3789 -42.19,-4.3789 -81.41,0 -157.58,47.3789 -231.64,93.5587 -26.52,16.48 -53.91,33.512 -80.74,47.891 -85.24,45.5 -181.99,68.32 -277.46,68.32 -95.43,0 -183.67,-21.25 -262.5,-63.949 -149.38,-80.86 -289.93,-270.3519 -326.88,-440.512 -31.56,-145.27 -67.22,-309.879 -234.96,-347.609 -14.14,-3.211 -28.75,-5.282 -42.81,-7.231 -14.38,-1.949 -29.3,-4.019 -43.67,-7.309 -34.22,-7.851 -53.4,-25.429 -69.38,-47.46"
       style="fill:#003594;fill-opacity:1;fill-rule:nonzero;stroke:none"
       transform="matrix(0.13333333,0,0,-0.13333333,0,900)" />
    <path
       id="path25"
       d="m 1913.05,-656.211 h -9.57 c 29.61,30 54.76,64.801 79.25,99.102 25.79,35.898 52.43,73.011 84.07,104.097 46.05,45.313 103.79,55.903 159.61,66.172 56.99,10.469 110.89,20.512 153.75,64.18 32.93,33.601 57.61,87.191 81.6,138.949 10.97,23.793 21.33,46.172 32.07,65.59 l 122.11,221.793 c 40.7,73.988 82.77,150.387 97.81,235.508 14.92,84.371 -8.09,149.879 -32.38,219.058 -12.89,36.563 -26.14,74.344 -34.1,116.024 -28.44,148.117 54.76,354.408 109.84,490.968 l 3.63,8.95 c 51.76,128.67 103.56,257.46 155.24,386.25 l 71.48,177.81 c 27.81,69.18 56.56,140.78 105.59,198.75 58.16,68.87 133.28,116.68 206.05,162.93 131.56,83.75 256.13,162.97 256.13,354.3 0,8.75 -0.23,17.69 -0.74,26.99 -3.83,67.23 -19.41,133.56 -34.29,197.74 -9.5,40.82 -19.3,82.96 -26.14,125 -9.57,59.02 -26.29,91.13 -45.82,128.24 -10.31,19.84 -21.09,40.27 -31.52,66.56 -6.6,16.48 -9.38,32.77 -9.38,48.79 0,43.01 19.93,84.18 39.34,124.34 8.94,18.55 18.2,37.77 25.55,56.95 50.62,133.16 72.15,237.5 69.45,337.81 -4.45,175.74 -115.47,374.06 -293.52,401.56 -14.61,2.31 -29.06,3.28 -43.24,3.28 -130,0 -245.27,-88.63 -313.67,-178.24 -72.58,-95.19 -117.73,-210.12 -161.41,-321.21 -7.89,-20.19 -15.89,-40.39 -23.86,-60.35 -111.14,-275.94 -257.62,-539.41 -399.22,-794.26 -110.82,-199.41 -236.33,-425.47 -430.12,-578.04 -220.04,-173.33 -488.83,-185.36 -748.79,-196.92 l -46.17,-1.95 C 880.43,1831.88 672.27,1822.93 477.809,1761.91 242.66,1688.12 61.4492,1540.66 -19.4492,1357.3 -44.0586,1302.62 -59.6094,1244.57 -71.2109,1185.51 v 32.54 c 10.9804,48.67 24.9218,96.48 45.082,141.99 81.7187,185.31 264.4099,334.1 501.4809,408.44 195.308,61.21 403.91,70.15 605.588,78.9 l 46.13,1.96 c 258.91,11.56 526.56,23.47 744.96,195.46 192.74,151.72 317.93,377.11 428.44,575.98 141.48,254.65 287.77,518.01 398.79,793.4 8.08,19.96 15.97,40.16 23.86,60.23 43.91,111.68 89.3,227.04 162.39,322.97 69.33,91.02 186.56,180.86 318.98,180.86 14.61,0 29.42,-1.09 44.3,-3.4 181.56,-28.04 294.73,-229.61 299.3,-408.2 0.11,-5.43 0.23,-10.9 0.23,-16.37 0,-96.36 -21.87,-197.22 -70.12,-324.14 -7.46,-19.57 -16.72,-38.86 -25.78,-57.54 -27.19,-56.21 -52.85,-109.57 -29.72,-167.42 10.31,-25.97 20.97,-46.29 31.21,-65.94 18.86,-36.13 36.75,-70.15 46.44,-130.43 6.84,-41.79 16.64,-83.82 26.02,-124.53 15,-64.49 30.58,-131.21 34.53,-198.98 0.51,-9.49 0.82,-18.63 0.82,-27.62 0,-194.8 -126.13,-275.15 -259.34,-359.96 -72.22,-46.05 -147.03,-93.63 -204.45,-161.64 -48.24,-57.07 -76.8,-128.12 -104.41,-196.87 l -71.49,-177.82 c -51.68,-128.71 -103.44,-257.5 -155.23,-386.17 l -3.64,-8.94 c -54.76,-135.9 -137.42,-341.18 -109.41,-486.918 7.89,-41.25 21.09,-78.793 33.91,-115.043 24.68,-70.149 47.93,-136.758 32.69,-222.649 C 2705.12,251.449 2662.7,174.379 2621.8,99.9609 L 2499.69,-121.84 c -10.55,-19.211 -20.86,-41.601 -31.84,-65.148 -24.22,-52.313 -49.22,-106.41 -82.89,-140.821 -44.34,-45.281 -101.76,-55.859 -157.38,-66.14 -54.88,-10.149 -111.56,-20.5 -156.17,-64.289 -31.25,-30.672 -57.78,-67.543 -83.32,-103.242 -23.36,-32.54 -47.23,-65.711 -75.12,-94.969"
       style="fill:#003594;fill-opacity:1;fill-rule:nonzero;stroke:none"
       transform="matrix(0.13333333,0,0,-0.13333333,0,900)" />
    <path
       id="path26"
       d="m 1010.2,-185.348 c 16.71,0 33.55,-1.332 50.5,-4.261 78.83,-13.75 148.83,-62.539 216.49,-109.801 78.51,-54.809 153.12,-106.758 238.67,-106.758 9.8,0 19.8,0.656 29.96,2.188 92.15,13.199 155.23,83.589 221.91,158.281 44.85,50.187 91.29,102.031 147.66,135.539 51.99,30.7811 111.68,45.1991 169.22,59.0702 33.67,8.039 68.4,16.4414 101.41,28.039 87.07,30.5508 172.93,101.7227 172.93,192.8518 0,2.187 0,4.379 -0.12,6.531 -3.09,67.457 -51.33,121.398 -98.01,173.547 -48.28,53.91 -98.01,109.57 -98.01,180.203 0,1.867 0,3.707 0,5.699 2.23,60.668 41.45,109.258 79.38,156.168 33.55,41.602 68.4,84.692 77.65,136.332 8.21,45.938 -4.25,90.469 -17.46,137.621 -9.61,34.059 -19.49,69.408 -20.66,104.998 0,2.42 -0.12,4.8 -0.12,7.22 0,93.76 57.62,172.66 113.48,249.18 20,27.39 40.7,55.79 58.28,84.26 67.11,108.71 87.34,227.78 55.59,326.8 -28.87,90.12 -119.54,173.2 -218.64,173.2 -12.03,0 -24.18,-1.21 -36.21,-3.83 -63.08,-13.43 -114.3,-58.04 -163.94,-101.17 -13.99,-12.22 -28.48,-24.76 -42.97,-36.44 -179.3,-144.53 -412.85,-184.92 -638.71,-223.99 -32.19,-5.54 -64.38,-11.13 -96.21,-16.91 -194.69,-35.7 -417.661,-89.84 -595.161,-220.94 C 383.629,1062.19 345.59,648.281 336.211,279.609 c -0.231,-6.879 -0.313,-14.097 -0.313,-21.41 0,-97.219 17.032,-227.9998 91.172,-336.4803 66.84,-97.8087 172.809,-160.1167 271.719,-160.1167 1.801,0 3.59,0 5.43,0 2.109,0 4.261,0.117 6.371,0.199 47.109,2.418 94.41,14.531 140,26.09 51.91,13.199 105.07,26.839 159.61,26.839 m 505.46,-227.781 c -87.38,0 -162.93,52.621 -242.3,107.93 -67.11,46.84 -136.48,95.203 -213.83,108.711 -16.52,2.859 -32.93,4.18 -49.22,4.18 -53.79,0 -106.56,-13.43 -158.009,-26.641 -46.012,-11.789 -93.551,-23.899 -141.36,-26.289 -2.152,-0.11 -4.382,-0.231 -6.531,-0.231 l -0.191,3.481 v -3.481 c -1.918,0 -3.867,0 -5.778,0 -100.902,0 -209.14,63.512 -277.113,163.0512 C 340.59,35.9805 326.602,179.84 329.18,279.801 c 9.492,370.238 47.73,786.099 383.75,1034.069 178.672,131.83 402.54,186.21 597.93,222.11 31.87,5.78 64.02,11.36 96.21,16.91 225.04,38.99 457.81,79.26 635.74,222.58 14.42,11.68 28.91,24.22 42.85,36.33 50.2,43.75 102.19,88.94 166.84,102.69 12.46,2.62 25.04,3.95 37.73,3.95 95.55,0 191.45,-73.13 225,-178.01 10.04,-31.33 15.04,-64.65 15.04,-99.02 0,-76.29 -24.41,-157.5 -71.4,-233.56 -17.66,-28.71 -38.44,-57.07 -58.48,-84.61 -55.08,-75.51 -112.07,-153.55 -112.07,-245.04 0,-2.26 0,-4.68 0.08,-6.95 1.09,-34.84 10.9,-69.65 20.35,-103.359 12.89,-45.86 26.33,-93.121 17.58,-140.821 -9.57,-53.359 -44.96,-97.148 -79.06,-139.371 -38.87,-48.129 -75.63,-93.64 -77.78,-152.039 0,-1.871 -0.08,-3.711 -0.08,-5.578 0,-67.781 46.76,-120.043 96.29,-175.281 47.54,-53.16 96.64,-108.039 99.85,-177.891 0,-2.301 0.11,-4.719 0.11,-6.988 0,-94.5314 -88.2,-168.08216 -177.5,-199.4103 -33.24,-11.6797 -68.2,-20.1211 -102.07,-28.2812 -57.11,-13.75 -116.25,-27.9297 -167.38,-58.2815 -55.51,-32.969 -101.56,-84.5 -146.09,-134.148 -67.54,-75.539 -131.37,-146.91 -225.98,-160.422 -10.55,-1.57 -20.86,-2.188 -30.98,-2.188"
       style="fill:#003594;fill-opacity:1;fill-rule:nonzero;stroke:none"
       transform="matrix(0.13333333,0,0,-0.13333333,0,900)" />
    <path
       id="path27"
       d="m 938.281,58.2383 c 4.688,0 9.489,0 14.18,-0.1875 80.429,-2.4297 154.809,-38.4414 226.719,-73.3594 58.94,-28.4805 119.88,-58.0898 184.02,-69.2227 20.98,-3.5898 41.76,-5.3476 62.54,-5.3476 132.85,0 262.74,69.6484 394.61,147.9297 75.35,44.6092 156.84,99.4102 171.02,185.4292 6.52,39.489 -2.46,78 -11.92,118.86 -6.4,27.269 -12.89,55.551 -14.29,83.711 -3.95,77.578 31.21,149.07 65.11,218.168 28.75,58.832 58.6,119.613 64.77,184.453 3.75,38.867 -1.29,78.598 -5.98,117.027 -5.19,42.541 -10.62,86.451 -4.57,129.531 5,36.02 18.01,70.51 30.47,103.91 9.06,23.91 18.32,48.67 24.61,73.79 13.55,54.14 10.86,129.88 -40.7,165.47 -20,13.87 -43.13,18.79 -67.54,18.79 -26.76,0 -55.2,-5.9 -82.89,-12.58 -158.75,-38.2 -317.39,-76.29 -476.14,-114.38 -111.68,-26.83 -227.18,-54.57 -329.76,-111.75 -307.931,-171.6 -505.86,-518.441 -505.86,-849.179 0,-66.801 8.09,-132.93 24.922,-196.879 C 688.32,70.9023 741.84,52.4609 811.09,52.4609 c 18.832,0 38.871,1.4102 59.851,2.8477 21.95,1.5312 44.45,3.0508 67.34,3.0508 M 1425.86,-96.7617 c -21.13,0 -42.42,1.7617 -63.75,5.4726 -65.08,11.25 -126.45,41.0586 -185.82,69.7696 -71.25,34.5703 -145.08,70.2695 -224.06,72.6484 -4.57,0.1211 -9.14,0.2422 -13.71,0.2422 -22.821,0 -45.321,-1.5313 -67.149,-3.0508 -20.551,-1.4414 -40.473,-2.7305 -59.461,-2.7305 -70.82,0 -128.789,18.8594 -156.832,125.0702 -101.207,383.32 111.481,846.33 484.262,1053.91 103.47,57.66 219.37,85.47 331.48,112.42 158.71,38.09 317.38,76.29 476.13,114.49 28.25,6.8 57.11,12.78 84.57,12.78 25.59,0 49.89,-5.24 71.21,-19.96 37.5,-25.86 50.59,-71.29 50.59,-115.47 0,-20.08 -2.77,-39.96 -7.15,-57.54 -6.37,-25.55 -15.66,-50.43 -24.69,-74.53 -12.5,-32.97 -25.27,-67.15 -30.15,-102.38 -5.98,-42.15 -0.55,-85.71 4.69,-127.7 4.76,-38.871 9.68,-78.95 5.93,-118.559 -6.29,-66.012 -36.4,-127.34 -65.5,-186.832 -33.48,-68.32 -68.09,-139.18 -64.38,-214.809 1.29,-27.609 7.81,-55.539 14.1,-82.531 9.26,-39.73 18.75,-80.629 12.03,-121.57 C 1983.48,153.441 1900.59,97.5391 1823.98,52.0313 1691.25,-26.6797 1560.51,-96.8398 1426.05,-96.8398"
       style="fill:#003594;fill-opacity:1;fill-rule:nonzero;stroke:none"
       transform="matrix(0.13333333,0,0,-0.13333333,0,900)" />
    <path
       id="path28"
       d="m 1852.77,1295.43 c -63.63,0 -130.43,-20.31 -195.19,-39.96 -31.56,-9.61 -61.29,-18.67 -90.67,-25.43 -61.79,-14.42 -124.57,-35.9 -185.39,-56.76 -16.52,-5.66 -32.93,-11.37 -49.33,-16.8 -111.88,-37.53 -238.13,-83.63 -320.16,-156.4 C 901.84,902.379 821.09,801.211 771.988,699.379 741.41,635.941 717.852,553.199 717.852,468.52 c 0,-57.188 10.738,-115.239 37.308,-168.75 53.039,-106.719 201.559,-160.2 310.04,-199.18 l 14.57,-5.2384 c 97.18,-35.1524 210.31,-73.1211 324.64,-79.0196 7.89,-0.4297 15.79,-0.5507 23.68,-0.5507 179.61,0 383.55,102.1487 429.88,283.1287 13.55,52.731 17.26,108.16 20.78,161.871 2.03,30 4.06,61.129 7.77,91.559 8.52,69.219 25.16,137.859 41.14,204.219 14.61,60.351 29.61,122.781 38.47,185.242 3.21,22.148 9.46,48.32 16.1,76.049 16.17,67.46 34.61,143.99 15.97,194.73 -19.72,53.79 -80.66,80.31 -132.34,82.73 -4.45,0.24 -8.83,0.31 -13.32,0.31 M 1428.16,8.78906 c -8.08,0 -16.05,0.23047 -24.06,0.66016 -115.27,5.90238 -228.94,44.10158 -326.56,79.33988 l -14.61,5.2304 C 953.398,133.441 803.281,187.461 749.059,296.719 c -66.911,134.691 -35.27,297.972 16.722,405.703 49.571,102.699 130.938,204.648 241.759,302.888 83.12,73.67 210.12,120.16 322.5,157.81 16.33,5.47 32.73,11.14 49.34,16.84 60.85,20.82 123.9,42.54 186.01,56.95 29.22,6.76 58.83,15.82 90.27,25.32 65.2,19.88 132.54,40.27 197,40.27 4.57,0 9.14,0 13.63,-0.31 53.91,-2.5 117.62,-30.47 138.4,-87.23 5.86,-16.01 8.2,-34.26 8.2,-53.91 0,-45.07 -12.46,-97.14 -23.98,-144.84 -6.61,-27.62 -12.89,-53.589 -15.98,-75.429 -8.83,-62.621 -24.06,-125.269 -38.67,-185.859 -15.98,-66.133 -32.5,-134.57 -41.02,-203.442 -3.71,-30.109 -5.74,-61.128 -7.77,-91.128 -3.63,-54.02 -7.23,-109.922 -20.98,-163.2 C 1817.27,112.93 1610.27,8.91016 1428.09,8.91016"
       style="fill:#003594;fill-opacity:1;fill-rule:nonzero;stroke:none"
       transform="matrix(0.13333333,0,0,-0.13333333,0,900)" />
    <path
       id="path29"
       d="m 1699.34,1124.3 c -23.68,0 -46.88,-2.62 -68.21,-5.67 -188.36,-26.75 -373.75,-107.73 -521.95,-228.118 -119.77,-97.274 -225.782,-196.25 -225.782,-326.25 0,-32.852 6.832,-67.66 21.762,-104.883 35.27,-87.539 111.13,-164.027 213.39,-215.359 80.98,-40.579 191.68,-81.399 309.42,-81.399 43.79,0 88.63,5.66 133.28,19.098 132.97,40.043 237.81,172.34 267.11,336.91 24.18,135.781 38.12,274.531 41.64,412.391 1.91,75.39 -8.83,155.93 -102.7,184.21 -22.14,6.68 -45.27,9.07 -67.96,9.07 z M 1427.97,155.621 c -119.02,0 -230.67,41.141 -312.38,82.188 -103.91,52.07 -180.82,129.773 -216.719,218.953 -82.699,205 91.09,346.008 206.049,439.218 149.18,121.13 335.74,202.57 525.16,229.53 21.64,3.04 45.15,5.66 69.26,5.66 24.06,0 46.87,-2.5 69.76,-9.37 92.7,-27.97 107.74,-106.88 107.74,-177.03 0,-4.731 0,-9.418 -0.24,-13.989 -3.51,-138.16 -17.58,-277.23 -41.76,-413.32 -29.72,-167.231 -136.48,-301.68 -271.79,-342.422 -45.28,-13.629 -90.75,-19.301 -135.2,-19.301"
       style="fill:#003594;fill-opacity:1;fill-rule:nonzero;stroke:none"
       transform="matrix(0.13333333,0,0,-0.13333333,0,900)" />
    <path
       id="path30"
       d="m 1592.34,1003.2 c -151.48,0 -292.65,-84.141 -412.3,-168.399 -42.62,-30 -157.15,-121.789 -157.15,-239.02 0,-30.66 7.89,-63.082 26.95,-96.601 30.16,-53.051 82.7,-95.59 148.01,-119.84 42.93,-15.938 92.66,-25.43 143.91,-27.5 6.95,-0.32 13.75,-0.43 20.58,-0.43 115.47,0 219.81,38.078 282.04,103.672 85.54,90.27 107.89,226.289 125.89,335.508 8.64,52.609 14.5,103.281 -9.25,143.672 -29.3,50.078 -93.44,63.508 -129.03,66.988 -13.2,1.33 -26.4,1.95 -39.53,1.95 M 1362.11,344.531 c -6.91,0 -13.83,0.121 -20.78,0.43 -51.88,1.949 -102.38,11.68 -145.94,27.848 -66.72,24.773 -120.51,68.402 -151.52,122.781 -94.811,166.871 77.34,306.129 132.34,344.879 120.51,84.922 262.74,169.651 416.06,169.651 13.32,0 26.71,-0.67 40.15,-2 36.88,-3.59 103.36,-17.569 134.26,-70.268 13.2,-22.622 17.66,-47.93 17.66,-74.653 0,-23.59 -3.48,-48.469 -7.66,-73.711 C 1758.59,679.262 1735.98,542.07 1648.95,450.391 1585.43,383.48 1479.34,344.652 1362.03,344.652"
       style="fill:#003594;fill-opacity:1;fill-rule:nonzero;stroke:none"
       transform="matrix(0.13333333,0,0,-0.13333333,0,900)" />
    <path
       id="path31"
       d="m 1310.78,-495.23 h 1.49 c 38.9,-0.43 74.14,-19.61 108.24,-38.168 32.38,-17.582 65.86,-35.821 101.87,-37.461 1.92,0 3.71,-0.121 5.63,-0.121 72.58,0 129.57,64.179 180.08,121.062 l 5.74,6.438 c 25.47,28.71 50.94,58.171 75.55,86.882 18.63,21.719 37.38,43.317 56.24,64.957 37.5,42.77 76.41,87.071 127.11,115.121 33.87,18.899 71.8,25.352 108.56,31.559 26.52,4.449 53.91,9.18 79.37,18.441 56.61,20.622 112.74,56.3208 166.96,106.2114 71.4,65.5781 108.9,151.8286 100.27,230.8206 -5.31,48.468 -27.27,93.437 -48.59,136.867 -12.78,26.101 -25.9,52.93 -35.59,80.672 -36.76,105.23 -19.92,230.429 43.79,326.679 9.06,13.75 18.98,25.309 28.44,36.442 19.84,23.168 36.99,43.238 42.3,76.637 5.67,34.921 -3.94,70.711 -13.08,105.312 -6.1,22.699 -12.39,46.059 -14.3,69.109 -8.95,104.57 57.77,197.54 126.8,283.86 l 15.11,18.79 c 64.07,79.57 130.2,161.76 155.47,261.41 26.53,104.76 7.78,264.8 -5.74,350.9 -17.07,107.85 -60.74,186.95 -123.16,222.77 -26.14,14.96 -55,22.38 -86.41,22.38 -31.45,0 -67.89,-7.96 -105.82,-24.02 -79.92,-33.71 -151.41,-91.99 -220.55,-148.55 -29.61,-24.11 -60.08,-49.11 -90.47,-71.25 -94.92,-69.54 -206.68,-147.82 -332.07,-197.04 -113.47,-44.53 -235.58,-64.29 -353.75,-83.47 -44.22,-7.23 -90,-14.65 -134.65,-23.24 C 932.23,1588.4 673.32,1478.48 484.219,1318.79 353.238,1208.24 273.672,1090.78 233.828,949.34 210.469,866.371 197.699,779.609 185.469,695.66 181.84,670.781 178.09,645.902 174.262,621.02 172.66,611.211 171.41,601.051 170,590.59 164.449,548.441 158.59,504.77 138.672,471.289 128.441,454.02 115.66,439.531 103.398,425.551 84.9609,404.488 67.6211,384.73 56.9492,355.781 45.9805,326.02 40.5508,293.16 40.5508,258.441 c 0,-43.75 8.6289,-90.281 25.8984,-136.882 11.4805,-31.2074 27.8125,-59.9184 43.4728,-87.727 10,-17.582 20.238,-35.82028 29.418,-54.5703 11.48,-23.7109 16.789,-47.8125 22.031,-71.1719 3.629,-16.4878 7.457,-33.5198 13.43,-50.4298 27.82,-78.91 97.078,-152.269 185.16,-196.25 80.859,-40.39 170.699,-54.691 261.988,-54.691 91.332,0 188.281,15.082 276.492,32.66 20.231,4.023 39.219,7.422 57.539,7.422 9.571,0 18.942,-0.899 28.239,-3.09 26.211,-6.211 56.131,-27.5 60.081,-59.801 1.72,-13.64 -1.49,-27.191 -4.57,-40.16 -2.89,-12.109 -5.43,-23.59 -4.69,-35.27 1.29,-17.23 10,-31.96 25.23,-42.66 16.33,-11.441 39.22,-17.461 62.35,-17.461 12.34,0 24.8,1.762 36.33,5.352 18.12,5.668 36.01,13.871 53.28,21.84 31.32,14.488 63.59,29.449 98.43,29.449 m 217.46,-82.848 c -2.03,0 -4.06,0 -5.97,0.118 -37.62,1.75 -71.72,20.191 -104.73,38.199 -33.36,18.121 -67.97,36.91 -105.15,37.422 h -1.37 c -33.36,0 -63.75,-13.942 -95.82,-28.789 -17.46,-8.082 -35.59,-16.481 -54.1,-22.153 -12.15,-3.828 -25.16,-5.578 -38.17,-5.578 -24.61,0 -48.98,6.559 -66.36,18.668 -17.04,11.871 -26.76,28.481 -28.25,47.891 -1.05,12.769 2.03,25.23 4.92,37.461 3.09,12.968 5.94,25.308 4.46,37.66 -3.6,28.898 -30.98,48.238 -54.959,53.898 -8.75,2.071 -17.699,2.973 -26.762,2.973 -17.769,0 -36.328,-3.281 -56.129,-7.34 -88.64,-17.66 -183.91,-32.742 -277.781,-32.742 -93.859,0 -183.039,14.539 -264.961,55.43 -89.718,44.769 -160.226,119.652 -188.59,200.199 -6.058,17.34 -9.918,34.613 -13.628,51.2927 -5.321,24.0195 -10.36,46.5977 -21.532,69.5274 C 124.18,-5.03906 113.949,12.9688 104.059,30.5508 88.1602,58.5898 71.7617,87.5 60.0391,119.301 28.7109,204.41 25.3086,289.449 50.5508,358.402 c 11.0898,30.149 29.7187,51.399 47.7305,71.95 12.0707,13.75 24.5277,28.05 34.5277,44.73 19.3,32.418 24.921,75.227 30.351,116.68 1.41,10.508 2.781,20.738 4.301,30.578 3.949,24.769 7.539,49.648 11.168,74.539 12.351,84.141 25.043,171.133 48.601,254.531 40.27,142.89 120.5,261.29 252.5,372.85 189.961,160.43 449.84,270.78 794.41,337.46 44.73,8.63 90.55,16.05 134.77,23.24 117.81,19.14 239.61,38.99 352.42,83.2 124.76,48.87 236.13,126.92 330.62,196.14 30.16,22.15 60.75,47.03 90.12,71.13 69.61,56.8 141.41,115.51 222.27,149.57 38.78,16.37 75,24.41 108.36,24.41 33.35,0 62.65,-7.73 89.72,-23.36 64.22,-36.75 109.18,-117.65 126.56,-227.77 8.64,-54.57 19.3,-138.63 19.3,-219.92 0,-47.7 -3.75,-94.53 -13.67,-133.71 -25.55,-101.06 -92.27,-183.91 -156.8,-264.03 l -15.15,-18.78 c -68.17,-85.12 -134.14,-176.8 -125.28,-278.87 1.92,-22.35 8.09,-45.509 14.07,-67.888 9.45,-35.242 19.17,-71.801 13.32,-108.242 -5.67,-35.391 -24.18,-57.11 -43.91,-80 -9.38,-11.059 -19.06,-22.391 -27.93,-35.82 -62.62,-94.54 -79.06,-217.43 -43.05,-320.469 9.61,-27.27 22.62,-54.031 35.28,-79.77 21.52,-43.98 43.79,-89.609 49.22,-139.261 8.74,-80.782 -29.42,-169.6098 -102.5,-236.7505 -54.85,-50.4297 -111.84,-86.5705 -169.18,-107.4995 -26.1,-9.5 -53.79,-14.18 -80.55,-18.79 -36.13,-6.21 -73.52,-12.539 -106.45,-30.781 -49.65,-27.617 -88.08,-71.367 -125.27,-113.719 -18.87,-21.601 -37.5,-43.242 -56.25,-64.96 -24.65,-28.59 -50.08,-58.161 -75.66,-86.868 l -5.63,-6.453 c -51.37,-57.847 -109.45,-123.199 -185,-123.199"
       style="fill:#003594;fill-opacity:1;fill-rule:nonzero;stroke:none"
       transform="matrix(0.13333333,0,0,-0.13333333,0,900)" />
    <path
       id="path32"
       d="m 563.91,-656.211 h -7.269 c 15.898,39.731 24.918,87.113 1.058,122.77 -20.551,30.902 -53.988,39.531 -91.719,39.531 -23.75,0 -49.218,-3.391 -74.378,-6.789 -25.551,-3.36 -50.153,-6.641 -72.852,-6.641 -13.672,0 -26.559,1.211 -38.48,4.25 -111.989,28.602 -190.5005,109.031 -240.0395,246.02 -11.711,32.422 -21.8321,66.25 -31.64066,98.91 C -12.1914,-89.3008 -33.5898,-17.9297 -71.2109,43.832 v 12.4571 c 1.8007,-2.9297 3.9414,-5.8985 5.7421,-8.8282 38.0469,-62.539 59.57036,-134.3711 80.3477,-203.7889 9.8125,-32.543 19.9219,-66.25 31.5313,-98.442 48.789,-134.679 125.7378,-213.82 235.3518,-241.75 11.289,-2.859 23.668,-4.07 36.758,-4.07 22.261,0 46.789,3.289 72.14,6.57 25.551,3.399 51.449,6.872 75.629,6.872 39.531,0 74.691,-9.18 96.949,-42.461 20.782,-31.09 20.903,-74.532 0.672,-126.602 z"
       style="fill:#003594;fill-opacity:1;fill-rule:nonzero;stroke:none"
       transform="matrix(0.13333333,0,0,-0.13333333,0,900)" />
    <path
       id="path33"
       d="m 1596.41,-656.211 h -39.53 c 105.19,13.512 215.23,70.512 293.12,153.012 24.92,26.398 46.56,55.23 67.42,83.16 50.39,67.148 97.93,130.551 185.08,156.641 19.49,5.898 39.65,10.699 59.02,15.386 42.43,10.164 86.33,20.742 124.77,42.114 55.39,30.777 94.3,88.199 131.91,143.7496 12.03,17.8086 23.52,34.7304 35.47,50.6679 75.43,101.0508 110.39,189.4925 100.9,255.6215 -2.89,20.078 -11.29,39.3 -19.49,57.847 -1.49,3.364 -2.97,6.883 -4.49,10.242 -56.8,132.18 -64.22,288.711 -20.55,429.411 4.69,15.039 9.37,28.589 13.94,41.679 15.79,45.27 28.25,81.09 24.18,135.66 -15.23,201.92 52.86,303.87 165.16,453.83 68.52,91.57 107.19,230.08 138.83,366.1 7.34,31.87 14.06,64.61 20.47,96.36 21.72,106.64 44.1,217 98.32,314.11 40.51,72.38 101.52,114.84 166.09,159.8 45.51,31.64 92.62,64.3 131.49,108.48 80.66,91.48 115.7,204.1 93.86,301.25 -9.8,43.43 -30.66,84.14 -50.93,123.43 -22.27,43.25 -45.28,88.01 -53.79,136.88 -2.78,15.74 -3.83,31.68 -3.83,47.69 0,37.04 5.94,74.77 11.72,111.68 11.83,75.08 22.89,145.94 -11.21,211.1 -19.38,36.76 -54.96,66.13 -95.24,78.47 -13.32,4.03 -26.64,6.1 -39.65,6.1 -19.61,0 -38.36,-4.69 -54.84,-13.87 -32.73,-18.2 -55.43,-51.41 -75.35,-80.74 -85.74,-125.74 -174.18,-252.7 -259.65,-375.59 -93.63,-134.57 -190.59,-273.75 -284.14,-411.6 -14.26,-21.05 -28.67,-42.46 -42.93,-63.75 -136.72,-203.2 -277.97,-413.55 -488.52,-542.77 -178.12,-109.38 -393.67,-149.3 -583.75,-184.46 -39.41,-7.3 -79.06,-14.29 -118.79,-21.28 C 970.16,1697.42 720.512,1653.32 499.102,1539.92 363.48,1470.51 256.641,1380.66 181.41,1272.85 52.3789,1087.73 23.7109,897.93 1.87891,686.84 0.699219,675.902 -0.160156,665.121 -1.01953,654.73 -4.96094,605.309 -8.67188,558.672 -40.6211,513.281 -49.8008,500.309 -60.3516,488.16 -71.3281,476.52 v 10.121 c 8.9492,9.839 17.6992,19.879 25.2773,30.589 30.7813,43.75 34.2891,87.422 38.35158,137.852 0.82031,10.578 1.67969,21.289 2.85938,32.297 21.94924,212.07 50.73824,402.851 180.81984,589.381 75.86,108.71 183.551,199.29 320.149,269.26 222.269,113.75 472.422,158.04 714.261,200.82 39.77,7.11 79.38,14.1 118.71,21.28 189.53,35.04 404.34,74.89 581.52,183.6 209.26,128.48 350.2,338.05 486.37,540.7 14.38,21.41 28.67,42.7 43.05,63.75 93.63,137.97 190.51,277.11 284.26,411.72 85.47,122.77 173.86,249.73 259.53,375.47 20.47,29.88 43.59,63.83 77.69,82.81 17.46,9.73 37.27,14.65 58.05,14.65 13.63,0 27.62,-2.07 41.56,-6.33 41.99,-12.89 79.14,-43.44 99.3,-81.87 35.16,-67.11 23.32,-142.54 11.91,-215.47 -8.2,-52.27 -16.72,-106.29 -7.89,-157.03 8.32,-47.82 31.14,-92.15 53.21,-134.92 20.43,-39.73 41.64,-80.79 51.56,-125.08 4.37,-19.53 6.48,-39.61 6.48,-60.04 0,-83.6 -36.01,-172.54 -101.95,-247.42 -39.41,-44.77 -86.84,-77.74 -132.66,-109.57 -63.94,-44.46 -124.33,-86.45 -164.06,-157.5 -53.71,-96.18 -76.09,-205.98 -97.62,-312.07 -6.48,-31.76 -13.08,-64.61 -20.54,-96.49 -31.76,-136.76 -70.67,-276.01 -140,-368.59 -111.25,-148.64 -178.67,-249.61 -163.75,-449.03 4.33,-56.211 -9.18,-94.289 -24.53,-138.508 -4.57,-13.093 -9.26,-26.523 -13.83,-41.371 -43.28,-139.14 -35.9,-293.793 20.23,-424.449 1.49,-3.402 2.97,-6.762 4.49,-10.16 8.4,-18.981 17.04,-38.633 20,-59.692 9.61,-68.32 -25.66,-158.2808 -102.26,-260.8511 -11.84,-15.9375 -23.24,-32.6602 -35.27,-50.4297 -38.05,-56.2192 -77.47,-114.2972 -134.26,-145.9372 -39.3,-21.961 -83.64,-32.543 -126.45,-42.782 -19.41,-4.609 -39.41,-9.41 -58.71,-15.191 -85.04,-25.508 -131.91,-88.09 -181.56,-154.34 -20.98,-28.039 -42.81,-57.07 -67.97,-83.711 -69.38,-73.437 -164.06,-126.906 -258.36,-148.199"
       style="fill:#003594;fill-opacity:1;fill-rule:nonzero;stroke:none"
       transform="matrix(0.13333333,0,0,-0.13333333,0,900)" />
    <path
       id="path34"
       d="m 3224.84,6193.59 c -24.84,0 -50.39,1.76 -76.72,5.24 -150.11,20.43 -293.43,106.87 -383.55,231.4 -15.98,22.04 -30.16,47.35 -43.91,71.72 -20.86,37 -42.38,75.32 -70.86,104.22 -19.37,19.65 -44.53,34.26 -68.9,48.36 -18.32,10.7 -37.42,21.72 -54.14,34.92 -60.39,47.58 -128.17,107.19 -173.13,188.17 -72.15,130.31 -71.09,260.62 -70,398.28 0.2,27.19 0.43,55.12 0,83.28 -0.31,11.13 0.43,23.48 1.17,36.21 0,1.09 0.12,2.31 0.2,3.52 h 6.84 c 0,-1.33 -0.12,-2.5 -0.24,-3.83 -0.62,-12.66 -1.25,-24.65 -1.17,-35.78 0.35,-28.17 0.12,-56.21 0,-83.4 -1.17,-136.99 -2.11,-266.21 69.18,-394.81 44.3,-80 111.44,-138.94 171.29,-186.09 16.4,-12.85 35.15,-23.79 53.4,-34.38 24.72,-14.41 50.39,-29.25 70.43,-49.41 29.06,-29.61 50.93,-68.36 72.03,-105.66 13.63,-24.26 27.69,-49.34 43.47,-71.06 89.07,-123.01 230.75,-208.47 379.07,-228.55 25.9,-3.52 51.13,-5.24 75.66,-5.24 254.42,0 434.81,181.72 611.45,385.28 133.04,153.47 252.5,225.07 375.11,225.07 2.27,0 4.5,0 6.64,0 76.37,-1.56 155.75,-32.3 249.73,-96.4 25.35,-17.23 50.39,-35.78 74.57,-53.79 47.11,-34.92 95.9,-71.06 148.2,-98.91 51.25,-27.26 110.39,-40.47 166.64,-40.47 74.93,0 144.5,23.44 182.43,68.32 32.07,37.86 54.1,106.22 -23.05,216.76 -42.58,61.25 -90.55,122.89 -142.42,183.36 -51.99,60.7 -106.99,119.96 -160.16,177.27 -43.05,46.36 -87.46,94.29 -130.08,142.77 -26.83,30.55 -54.64,60.24 -83.32,89.14 h 9.61 c 26.96,-27.38 53.24,-55.66 78.71,-84.45 42.62,-48.36 86.96,-96.29 130,-142.66 53.17,-57.42 108.25,-116.68 160.36,-177.46 51.99,-60.7 100.03,-122.58 142.85,-183.94 62.11,-89.14 70.23,-169.18 22.61,-225.28 -39.22,-46.25 -110.82,-70.51 -187.85,-70.51 -57.22,0 -117.42,13.44 -169.41,41.06 -52.74,28.05 -101.76,64.37 -149.06,99.41 -24.18,17.93 -49.22,36.49 -74.38,53.71 -92.89,63.4 -171.21,93.64 -246.09,95.28 -2.15,0 -4.26,0 -6.53,0 -120.47,0 -238.43,-70.94 -370.11,-222.78 -177.7,-204.72 -359.38,-387.65 -616.37,-387.65"
       style="fill:#003594;fill-opacity:1;fill-rule:nonzero;stroke:none"
       transform="matrix(0.13333333,0,0,-0.13333333,0,900)" />
    <path
       id="path35"
       d="m 1524.3,6141.41 c -202.46,0 -404.57,-61.1 -557.152,-176.72 -109.609,-83.05 -177.808,-198.95 -191.988,-326.45 -1.922,-16.79 -2.738,-33.59 -2.738,-50.43 0,-114.37 42.808,-227.89 123.359,-324.37 89.297,-107.07 218.949,-181.84 374.729,-216.33 61.99,-13.75 125.7,-20.51 190.08,-20.51 186.87,0 378.94,56.95 547.93,165.24 130.43,83.59 219.37,205 243.98,333 21.09,110.47 -5.2,222.54 -76.6,324.18 -72.54,103.36 -186.56,185.43 -329.85,237.39 -102.07,37.11 -211.91,55 -321.75,55 z m -63.71,-1121.68 c -64.81,0 -129.03,6.75 -191.49,20.62 -157.34,34.81 -288.202,110.47 -378.549,218.63 -93.52,112.07 -136.879,247.07 -122.192,380.04 14.371,129.46 83.52,247.11 194.653,331.25 153.748,116.45 357.338,178.01 561.288,178.01 110.47,0 221.05,-18.12 323.79,-55.31 144.57,-52.5 259.72,-135.35 333.04,-239.92 56.25,-80.12 85.04,-166.64 85.04,-253.99 0,-25.19 -2.46,-50.43 -7.26,-75.62 -24.93,-129.77 -114.96,-252.89 -246.96,-337.5 -170.04,-108.91 -363.43,-166.21 -551.6,-166.21"
       style="fill:#003594;fill-opacity:1;fill-rule:nonzero;stroke:none"
       transform="matrix(0.13333333,0,0,-0.13333333,0,900)" />
    <path
       id="path36"
       d="m 1558.28,5853.05 c -148.63,0 -252.73,-21.29 -317.62,-64.93 -65.5,-44.1 -104.53,-118.43 -104.53,-197.46 0,-6.09 0.24,-12.34 0.75,-18.43 5.97,-77.62 48.71,-140.28 117.3,-171.8 60.31,-27.85 128.71,-32.54 181.44,-33.63 7.47,-0.12 15.04,-0.24 22.5,-0.24 103.56,0 206.8,13.79 307.15,40.86 111.68,30.2 180.2,79.65 203.4,147.11 23.24,67.58 -4.02,152.27 -66.17,206.29 -68.16,59.38 -171.21,89.38 -314.84,91.91 -9.89,0.2 -19.69,0.2 -29.26,0.2 m -100.16,-493.2 c -7.58,0 -15.15,0 -22.69,0.19 -53.4,0.98 -122.66,5.78 -184.1,34.18 -70.86,32.62 -115.08,97.35 -121.29,177.46 -0.51,6.45 -0.75,12.78 -0.75,19.1 0,81.29 40.2,157.93 107.62,203.32 65.98,44.34 171.21,66.06 321.13,66.06 9.69,0 19.5,0 29.61,-0.35 145.24,-2.5 249.65,-33.05 319.11,-93.52 48.82,-42.46 76.71,-103.47 76.71,-160.97 0,-18.25 -2.77,-36.02 -8.51,-52.97 -23.99,-69.73 -93.99,-120.71 -207.97,-151.61 -100.82,-27.14 -204.57,-41.01 -308.79,-41.01"
       style="fill:#003594;fill-opacity:1;fill-rule:nonzero;stroke:none"
       transform="matrix(0.13333333,0,0,-0.13333333,0,900)" />
    <path
       id="path37"
       d="m 1591.52,5758.01 c -91.21,0 -154.92,-13.01 -194.57,-39.73 -43.04,-28.94 -67.11,-79.57 -63.16,-131.44 3.59,-47.15 29.61,-85.24 71.25,-104.42 36.87,-17.03 78.63,-19.88 110.94,-20.54 4.45,0 8.94,-0.08 13.4,-0.08 63.71,0 127.1,8.4 188.82,24.96 68.17,18.47 109.92,48.59 123.99,89.61 14.06,41.05 -2.54,92.46 -40.28,125.31 -41.64,36.25 -104.61,54.57 -192.61,56.09 -6.1,0.12 -12.03,0.12 -17.78,0.12 M 1529.8,5454.8 c -4.68,0 -9.25,0 -13.94,0.08 -33.01,0.67 -75.66,3.64 -113.59,21.17 -43.99,20.32 -71.37,60.47 -75.2,110.24 -4.37,54.37 21.21,107.54 66.25,137.89 40.82,27.38 105.82,40.78 198.4,40.78 5.86,0 11.83,0 17.89,-0.08 89.61,-1.64 153.94,-20.54 196.91,-57.73 30.24,-26.33 47.62,-64.18 47.62,-100 0,-11.33 -1.72,-22.46 -5.31,-32.85 -14.92,-43.32 -58.21,-74.96 -128.71,-93.99 -62.15,-16.79 -125.94,-25.19 -190.08,-25.19"
       style="fill:#003594;fill-opacity:1;fill-rule:nonzero;stroke:none"
       transform="matrix(0.13333333,0,0,-0.13333333,0,900)" />
    <path
       id="path38"
       d="m 2932.7,2856.8 c -47.62,0 -91.53,-29.81 -122.97,-85.35 -22.58,-39.97 -35.9,-89.73 -35.9,-137.35 0,-53.01 16.52,-103.55 55.08,-135.12 29.53,-24.1 67.22,-36.32 105.15,-36.32 33.6,0 67.46,9.49 96.02,28.82 58.9,39.61 92.03,118.64 80.62,191.88 -11.05,71.8 -62.42,136.09 -130.58,163.71 -16.02,6.45 -31.88,9.61 -47.42,9.61 m 1.36,-401.02 c -39.53,0 -78.71,12.78 -109.41,37.89 -75.98,62.11 -69.88,194.26 -20.78,281.25 32.73,57.97 78.63,88.95 128.51,88.95 16.41,0 33.24,-3.36 50.16,-10.23 70.43,-28.52 123.4,-94.85 134.8,-169.07 1.61,-9.96 2.35,-20 2.35,-30.11 0,-66.72 -32.93,-133.09 -85.9,-168.75 -29.73,-20 -64.88,-29.93 -99.73,-29.93 z"
       style="fill:#003594;fill-opacity:1;fill-rule:nonzero;stroke:none"
       transform="matrix(0.13333333,0,0,-0.13333333,0,900)" />
  </g>
</svg>
