<?xml version="1.0" encoding="UTF-8"?>
<svg id="Layer_1" data-name="Layer 1" xmlns="http://www.w3.org/2000/svg" viewBox="0 0 360 360">
  <defs>
    <style>
      .cls-1 {
        fill: #fff;
      }
    </style>
  </defs>
  <path class="cls-1" d="M310.63,121.06c-.28-.1-.3-.38-.47-.51-.21-.17-.73-.04-.87-.23-.15-.17-.21-.34-.44-.48-.18-.11-.3-.36-.61-.43-.41-.08-.72.18-.97.18-.34,0-.58-.44-.94-.45-.25,0-.54.01-.95-.02-.41.01-.7.09-.95.09-.35,0-.59.31-.93.3-.24,0-.56-.39-.97-.34-.41.06-.69.21-.93.25-.35.04-.58.16-.92.24-.24.06-.54.02-.95.12-.41.08-.74,0-.97.08-.34.11-.48.5-.82.61-.23.08-.52.15-.91.3-.39.17-.63.37-.85.46-.33.13-.53.28-.86.41-.23.09-.6-.01-.98.17-.38.19-.72.17-.94.29-.32.16-.44.47-.74.66-.21.13-.31.56-.67.77-.35.22-.62.38-.83.51-.3.18-.55.25-.85.44-.21.13-.69-.08-1.05.15-.36.22-.58.47-.77.63-.27.24-.46.4-.73.64-.18.17-.4.35-.72.63-.33.27-.29.78-.48.94-.27.23-.84-.05-1.12.18-.19.16-.32.46-.63.74-.32.28-.57.39-.79.52-.31.19-.46.44-.75.64-.21.14-.49.31-.8.61-.3.3-.34.67-.5.87-.23.28-.36.51-.59.78-.16.19-.28.51-.57.82-.29.31-.61.43-.76.63-.21.3-.41.47-.63.77-.15.21-.3.48-.59.8-.29.32-.67.35-.87.52-.28.23-.2.76-.48.99-.2.16-.36.36-.65.69-.29.32-.46.53-.62.74-.22.3-.78.21-1,.51-.15.21-.24.52-.54.84-.29.32-.25.75-.41.95-.23.29-.82.15-1.05.44-.16.2-.13.62-.43.94-.3.32-.35.69-.52.89-.24.28-.41.48-.65.76-.17.2-.73.1-1.04.41-.31.31-.53.5-.73.67-.29.24-.33.61-.63.84-.21.16-.36.45-.68.75-.33.3-.48.6-.69.77-.29.24-.78.07-1.07.3-.2.16-.17.69-.51.98-.35.28-.92.05-1.13.21-.31.21-.53.35-.84.56-.21.15-.13.82-.5,1.07-.37.26-.8.2-1.01.35-.31.21-.37.61-.71.8-.23.14-.57.19-.95.42-.39.23-.73.27-.96.4-.33.19-.65.18-.98.37-.23.13-.58.13-.98.33-.41.18-.72.33-.96.45-.34.17-.3.85-.65,1.02-.24.13-.56.29-1.01.43-.45.14-.83.24-1.1.28-.38.06-.67.05-1.06.05-.28.01-.67-.55-1.11-.46-.44.09-.67.53-.93.61-.37.13-.72-.14-1.1-.08-.26.05-.53.25-.99.29-.45.04-.74.43-1.01.46-.39.05-.66,0-1.05,0-.27,0-.6-.4-1.05-.41-.45-.01-.8.3-1.07.28-.39-.03-.62-.32-.99-.38-.26-.05-.6.05-1.05,0-.45-.06-.78.19-1.05.17-.38-.04-.66-.07-1.04-.11-.27-.03-.6-.18-1.05-.28-.45-.1-.67-.52-.92-.61-.36-.12-.73.18-1.1.06-.26-.08-.37-.76-.8-.89-.42-.13-.86.14-1.1.01-.34-.16-.62-.2-.97-.36-.24-.11-.41-.51-.82-.68-.41-.16-.84.09-1.08,0-.36-.13-.41-.79-.77-.92-.25-.09-.56-.07-.97-.26-.41-.19-.64-.43-.86-.56-.33-.17-.67-.08-1-.26-.23-.12-.59-.12-.98-.34-.39-.21-.68-.33-.91-.47-.32-.19-.34-.69-.66-.88-.22-.13-.79.21-1.17-.02-.38-.23-.61-.5-.8-.68-.28-.24-.53-.36-.82-.61-.2-.17-.07-.87-.43-1.11-.36-.24-.91.01-1.13-.12-.32-.19-.6-.23-.92-.43-.22-.13-.37-.5-.72-.76-.36-.26-.88-.16-1.07-.35-.26-.26-.3-.61-.56-.88-.18-.18-.16-.69-.5-.96-.35-.27-.95.04-1.16-.11-.31-.21-.44-.49-.74-.7-.21-.15-.35-.5-.69-.78-.34-.28-.72-.27-.94-.42-.3-.22-.51-.37-.81-.58-.21-.15-.19-.68-.53-.96-.34-.29-.9-.19-1.06-.41-.22-.3-.18-.67-.4-.96-.16-.21-.5-.28-.83-.57-.33-.29-.32-.78-.53-.93-.3-.21-.45-.45-.75-.66-.21-.15-.83.13-1.15-.16-.32-.29-.14-.93-.32-1.12-.26-.26-.68-.21-.93-.46-.18-.18-.18-.63-.51-.91-.33-.28-.68-.36-.9-.49-.31-.19-.54-.32-.85-.51-.22-.13-.61-.12-.94-.4-.33-.28-.26-.77-.42-.97-.24-.28-.82-.12-1.06-.39-.17-.19-.03-.75-.37-1.03-.34-.27-.54-.58-.76-.71-.32-.18-.67-.08-.99-.25-.22-.12-.69.01-1.03-.24-.34-.26-.53-.54-.71-.72-.26-.25-.13-.77-.41-1.01-.19-.17-.73.01-1.08-.23-.35-.25-.45-.63-.65-.79-.28-.23-.58-.25-.87-.47-.2-.15-.22-.65-.59-.89-.36-.24-.87.05-1.09-.06-.32-.16-.55-.29-.88-.43-.23-.1-.61-.09-.97-.3-.36-.21-.5-.58-.71-.72-.3-.2-.63-.13-.94-.31-.21-.12-.3-.58-.68-.77-.38-.2-.51-.54-.72-.68-.3-.21-.73.01-1.03-.17-.22-.12-.55-.07-.94-.24-.38-.17-.56-.52-.79-.62-.33-.13-.56-.23-.9-.35-.23-.08-.47-.3-.87-.45-.4-.14-.79.2-1.03.14-.35-.05-.59-.17-.94-.22-.24-.03-.58-.02-.98-.13-.4-.1-.69-.27-.92-.33-.33-.09-.4-.73-.74-.83-.24-.07-.63.22-1.04.15-.41-.08-.71-.14-.96-.11-.35.02-.61-.05-.96-.03-.25.01-.55.3-.95.27-.41-.05-.71.03-.95.04-.34,0-.57-.59-.93-.6-.25,0-.53.57-.93.58-.41,0-.72-.33-.96-.33-.35.01-.6-.1-.96-.09-.25,0-.56.04-.98.1-.42.04-.69.24-.92.29-.34.09-.49.5-.82.59-.24.05-.58-.06-.98.05-.4.12-.73,0-.97.05-.35.07-.57.19-.92.29-.24.07-.6-.01-.99.14-.39.17-.45.74-.65.87-.3.19-.58.21-.88.4-.2.14-.46.29-.83.48-.37.2-.63.34-.85.45-.32.16-.47.41-.79.57-.22.11-.75-.21-1.1.03-.35.24-.53.53-.73.67-.29.21-.6.21-.88.44-.2.16-.34.45-.68.71-.34.25-.27.84-.47,1-.28.22-.64.16-.92.38-.2.15-.49.26-.81.55-.32.28-.76.31-.93.5-.24.27.14.92-.08,1.2-.16.19-.67.16-.98.45-.32.28-.44.61-.63.77-.28.23-.39.5-.67.73-.2.16-.85-.12-1.15.19-.3.31-.02,1.01-.19,1.19-.25.26-.44.43-.69.69-.17.18-.77.03-1.07.34-.3.31-.51.54-.67.74-.24.27-.07.76-.31,1.04-.17.19-.28.51-.57.83-.29.32-.64.43-.82.61-.26.25-.38.51-.64.76-.18.18-.82-.02-1.12.3-.29.32-.19.83-.35,1.02-.23.28-.22.63-.46.91-.16.2-.46.37-.76.69-.3.32-.8.24-1,.4-.29.22-.61.24-.91.46-.21.16-.5.39-.8.7-.3.32-.11.92-.29,1.11-.26.27-.52.37-.78.63-.18.18-.46.34-.77.65-.31.31-.7.36-.88.54-.26.26-.15.75-.42,1-.19.18-.74.05-1.05.35-.32.3-.14.94-.34,1.12-.28.25-.85,0-1.12.26-.19.17-.13.71-.47.99-.34.29-.83.23-1.01.42-.26.27-.39.51-.66.77-.19.18-.24.6-.59.87-.35.28-.74.27-.96.41-.32.2-.62.22-.93.42-.22.14-.39.47-.77.71-.37.24-.7.34-.91.49-.3.23-.42.52-.73.72-.22.15-.32.6-.72.82-.39.23-.72.35-.96.45-.35.15-.71-.01-1.06.14-.25.1-.54.21-.96.38-.41.18-.72.28-.96.4-.33.18-.59.28-.93.43-.24.1-.48.39-.9.54-.42.16-.79.07-1.04.15-.37.11-.67.02-1.03.13-.25.07-.53.28-.97.36-.44.08-.76.08-1.02.11-.38.05-.64.08-1.01.13-.26.05-.58.14-1.02.19-.44.05-.71.4-.97.45-.38.07-.69-.14-1.07-.11-.26.03-.56.3-1.01.32-.45.01-.78-.15-1.04-.16-.38-.02-.68.27-1.06.23-.27-.03-.54-.47-.98-.49-.45-.01-.78.15-1.04.11-.38-.04-.59-.53-.96-.57-.26-.03-.57-.08-1.01-.13-.44-.07-.72-.12-.97-.18-.36-.08-.71.22-1.07.14-.25-.06-.59.02-1.02-.08-.44-.1-.64-.64-.9-.7-.36-.08-.75.48-1.12.4-.25-.06-.44-.61-.87-.72-.42-.11-.76-.05-1.01-.14-.35-.11-.56-.33-.9-.46-.24-.09-.59-.05-1.01-.18-.42-.13-.7-.33-.95-.39-.36-.09-.7.27-1.07.18-.25-.06-.37-.77-.78-.92-.41-.14-.68-.25-.92-.36-.34-.15-.63-.13-.97-.28-.24-.11-.48-.35-.89-.51-.41-.16-.8-.02-1.05-.11-.35-.12-.54-.37-.89-.49-.24-.09-.58-.03-.98-.22-.4-.18-.81-.06-1.04-.17-.33-.17-.35-.69-.68-.86-.23-.11-.66.05-1.06-.14-.4-.19-.59-.57-.83-.65-.35-.12-.59-.25-.93-.38-.24-.09-.52-.14-.91-.34-.39-.19-.82-.03-1.05-.15-.33-.17-.43-.52-.75-.7-.22-.12-.42-.42-.8-.62-.39-.2-.8-.08-1.02-.22-.31-.2-.3-.67-.61-.87-.21-.14-.77.18-1.15-.02-.39-.2-.63-.34-.86-.44-.34-.14-.53-.38-.87-.52-.24-.1-.57-.14-.95-.34-.38-.2-.41-.72-.62-.87-.3-.21-.51-.36-.81-.57-.21-.15-.72.07-1.11-.12-.39-.19-.67-.25-.9-.34-.34-.13-.51-.43-.85-.56-.24-.09-.57-.11-.96-.3-.39-.19-.49-.64-.72-.76-.32-.18-.71-.02-1.03-.18-.22-.12-.36-.53-.75-.7-.39-.18-.65-.35-.88-.45-.33-.14-.77.22-1.1.08-.23-.1-.39-.5-.79-.67-.4-.17-.63-.41-.86-.5-.34-.13-.71.11-1.04-.02-.23-.09-.48-.29-.88-.44-.4-.14-.69-.2-.94-.27-.34-.11-.56-.3-.9-.4-.24-.08-.55-.11-.96-.23-.41-.12-.7-.08-.95-.13-.35-.06-.56-.53-.92-.59-.25-.04-.62.36-1.03.26-.41-.1-.72-.19-.96-.26-.34-.11-.43-.64-.78-.73-.24-.06-.58-.04-1-.12-.42-.08-.8.13-1.04.07-.34-.09-.58-.2-.92-.29-.24-.06-.46-.5-.89-.56-.42-.07-.73-.04-.97-.07-.36-.03-.66.41-1.02.38-.25-.02-.51-.55-.94-.56-.43,0-.73.26-.98.27-.36.02-.63-.12-.99-.1-.25,0-.53.41-.94.44-.41.03-.71-.14-.96-.1-.35.07-.55.24-.89.33-.23.07-.59-.13-1-.06-.41.07-.69.24-.94.25-.35.01-.61-.16-.97-.11-.25.04-.52.29-.93.4-.4.11-.81-.09-1.04.02-.33.14-.4.58-.72.72-.22.1-.61-.08-1.01.07-.41.13-.57.6-.81.67-.33.1-.62-.04-.96.06-.24.07-.42.43-.8.61-.36.21-.58.4-.79.53-.3.18-.63.14-.93.33-.21.13-.64,0-.99.26-.35.25-.43.66-.62.81-.27.23-.41.45-.68.67-.19.16-.56.18-.89.45-.32.27-.62.39-.81.55-.27.23-.21.66-.45.92-.17.18-.33.43-.62.73-.29.3-.56.49-.75.65-.25.24-.66.12-.92.37-.18.18-.44.41-.7.74-.28.33-.37.69-.47.92-.14.32,0,.64-.13.95-.09.23-.26.5-.46.86-.18.37-.55.49-.66.71-.17.31-.07.64-.24.95-.13.21-.06.54-.19.93-.13.4-.22.72-.32.97-.15.33-.22.59-.3.94-.06.26-.13.53-.2.95-.05.3-.27.51-.23.72.06.27.13.49.23.7.1.2.03.48.1.74.04.2,0,.36-.01.66.02.32.39.63.34.86-.05.28-.18.59-.29.79-.13.23-.45.1-.61.22-.19.15-.29.63-.44.66-.15.03-.4-.16-.62-.29-.18-.11-.5-.04-.67-.29-.16-.22,0-.89-.11-1.22-.09-.28-.39-.48-.37-.86,0-.36.12-.61.18-.85.07-.31-.03-.72.07-.96.1-.24.45-.25.56-.54.09-.23.1-.58.16-.92.08-.44.03-.77.06-1.02.03-.38.01-.63.1-1,.06-.24.02-.6.16-1.03.15-.44.62-.58.76-.81.18-.34.1-.7.28-1.04.13-.24.16-.58.35-.99.21-.41.63-.54.76-.77.2-.33.19-.64.39-.97.14-.23.32-.5.61-.84.28-.35.33-.73.51-.94.25-.3.42-.51.66-.8.19-.19.53-.3.85-.62.32-.33.8-.34.97-.54.24-.29.02-.82.29-1.08.19-.19.5-.38.84-.67.35-.29.77-.28.97-.44.31-.21.33-.65.65-.87.22-.15.62-.12.99-.38.36-.27.58-.6.83-.71.35-.16.68-.04,1.02-.19.24-.11.62-.08,1-.3.4-.2.59-.54.81-.69.31-.21.45-.46.77-.67.23-.14.55-.28.99-.42.43-.16.79.04,1.04-.02.36-.09.56-.7.93-.79.26-.07.64.26,1.06.14.43-.12.73-.27.98-.35.36-.12.5-.51.88-.6.26-.06.61-.13,1.06-.2.45-.08.82.26,1.08.23.37-.07.64-.22,1.02-.24.27-.01.6.14,1.05.11.45-.03.8-.43,1.06-.38.38.04.58.45.95.49.26.03.61-.28,1.06-.27.45,0,.75.15,1.01.13.37-.01.62-.25,1-.27.26,0,.63.08,1.07.14.44.06.74.18,1,.21.38.03.64.06,1.02.09.26.02.53.33.97.41.43.09.81-.11,1.07-.04.36.1.63.15.98.27.25.08.48.38.91.49.43.11.83-.07,1.08.01.35.13.48.5.82.63.24.1.52.27.95.4.43.12.75.32,1,.38.36.07.68-.43,1.05-.36.26.05.54.39.96.53.41.15.67.35.91.45.35.13.59.23.94.36.24.1.63-.03,1.03.15.41.17.63.45.87.56.34.16.44.51.78.67.23.11.69-.13,1.09.05.4.18.72.28.95.4.33.17.42.54.74.72.23.12.51.25.9.44.4.19.6.58.84.67.34.13.68-.04,1.02.09.24.09.52.22.91.41.39.19.65.35.87.49.31.19.39.54.71.73.22.13.54.27.93.46.39.2.85-.12,1.1-.04.35.11.62.12.97.24.25.08.51.37.9.56.39.2.51.56.73.7.31.2.65.17.96.37.21.14.34.54.73.74.39.2.85,0,1.07.12.32.18.37.59.68.77.22.13.44.39.83.58.39.19.74.26.98.34.34.12.58.23.93.34.24.08.55.03.94.21.39.18.69.25.91.39.3.2.62.21.92.4.21.14.34.52.74.7.39.18.65.36.88.46.34.14.69-.06,1.03.07.23.09.52.2.92.35.4.15.64.41.9.45.36.06.64-.11,1-.05.25.04.59.09,1,.22.4.14.72.19.95.29.33.14.37.68.7.82.23.1.68-.26,1.09-.13.4.12.52.76.76.84.34.11.68-.13,1.02-.04.24.06.48.33.89.44.41.11.79-.09,1.02,0,.33.12.58.21.91.33.24.08.5.16.91.25.41.09.67.58.93.58.36,0,.63-.38.98-.38.25,0,.54.1.96.17.42.05.64.34.88.41.35.09.6.15.95.23.24.06.59-.1,1.01-.09.42.02.73-.29.97-.28.35.01.59.3.95.31.24,0,.54.31.97.3.42-.01.71-.33.95-.36.35-.04.61.02.96-.06.24-.05.53.02.95-.02.41-.05.74,0,.98-.07.34-.09.57-.2.91-.29.24-.06.4-.66.8-.73.4-.06.79.4,1.03.37.35-.06.55-.33.9-.39.24-.05.56,0,.96-.14.39-.14.66-.29.89-.38.32-.14.56-.22.87-.38.22-.11.38-.47.75-.64.38-.16.56-.44.76-.56.3-.17.54-.24.85-.41.21-.12.72.21,1.08-.01.36-.21.53-.51.75-.6.33-.14.51-.35.83-.51.22-.11.67.07,1.03-.16.36-.22.59-.47.77-.64.27-.24.1-.81.36-1.04.18-.16.82.15,1.16-.11.34-.26.14-.98.33-1.13.28-.22.67-.14.94-.37.19-.16.35-.44.67-.71.32-.27.8-.14,1-.29.29-.22.34-.58.62-.79.2-.15.46-.31.77-.61.31-.29.37-.7.57-.86.29-.22.44-.44.72-.67.19-.16.8.07,1.11-.24.31-.3.22-.8.37-1,.22-.29.59-.34.81-.63.15-.2.45-.31.74-.62.3-.31.4-.63.58-.81.26-.26.15-.72.41-.98.18-.18.79-.01,1.09-.33.3-.32.39-.62.58-.79.27-.24.35-.55.62-.8.19-.17.64-.16.94-.48.29-.32.39-.67.55-.88.22-.29.04-.75.27-1.04.15-.21.77-.09,1.06-.41.3-.32.1-.97.3-1.14.28-.24.74-.1,1.02-.35.2-.17.23-.57.54-.88.3-.32.55-.5.72-.69.24-.28.73-.2.98-.47.17-.19.32-.45.63-.76.31-.31.28-.77.44-.97.24-.29.62-.32.86-.61.17-.2.43-.33.76-.63.33-.3.55-.48.75-.64.29-.23.1-.91.41-1.14.21-.16.42-.36.76-.65.34-.29.94-.07,1.14-.24.28-.24.43-.48.71-.72.2-.17.53-.25.89-.51.36-.26.38-.75.59-.92.29-.24.62-.26.93-.48.21-.15.4-.44.77-.7.37-.26.64-.46.88-.58.35-.16.66-.13,1-.29.24-.12.46-.38.86-.6.4-.21.95.02,1.16-.14.31-.21.25-.78.57-1,.23-.15.68.02,1.09-.17.42-.17.72-.26.97-.33.37-.11.56-.42.94-.53.26-.06.5-.38.94-.51.44-.13.84.12,1.11.08.38-.06.59-.48.98-.54.27-.03.67.43,1.11.36.45-.06.77,0,1.03-.03.37-.04.59-.69.98-.72.27-.01.63.54,1.08.54.45-.01.73-.46,1-.51.38-.07.68,0,1.06-.08.27-.04.58.19,1.03.24.45.03.78.06,1.04.08.38.03.67-.24,1.06-.21.27,0,.64-.35,1.09-.26.46.08.71.53.96.59.37.08.67.02,1.05.1.26.05.57.15,1,.27.44.12.66.48.91.56.36.12.76-.2,1.13-.07.25.09.52.25.95.39.43.15.54.78.78.87.35.13.81-.32,1.17-.19.24.11.39.59.79.77.41.18.8.09,1.04.19.35.15.54.36.88.52.23.12.39.51.79.71.39.2.74.21.97.34.33.18.55.32.88.5.22.13.59.13.97.35.38.22.79.17,1.01.31.32.2.2.86.51,1.06.21.15.57.19.94.43.37.24.87.06,1.08.21.31.21.29.7.59.91.21.15.53.24.89.49.36.25.52.54.73.7.29.23.72.11,1.01.34.2.16.17.72.51.99.35.26.83.15,1.03.31.29.23.42.48.71.71.2.17.37.45.71.72.35.28.69.37.93.49.33.17.72,0,1.05.17.24.12.56.28.9.57.34.28.31.78.48.97.24.28.42.48.66.76.18.19.42.41.75.69.33.29.54.55.75.7.3.21.52.36.82.57.21.15.67.06,1,.34.33.29.38.68.56.86.25.27.44.45.69.72.18.19.65.12.97.41.32.28.56.45.76.61.29.22.23.71.52.94.2.16.56.18.89.46.33.28.32.72.49.9.25.26.7.19.96.45.17.19.47.28.8.55.33.27.29.8.48.96.28.23.81-.02,1.09.21.19.16.22.61.56.87.34.26.36.73.57.88.29.22.8-.04,1.09.18.2.15.49.27.83.52.35.25.55.47.76.6.3.19.41.5.72.69.21.14.63.06.98.29.35.23.44.64.65.78.29.21.44.44.73.65.2.15.34.49.71.71.37.22.76.18.99.29.33.15.76-.18,1.08-.04.23.1.28.68.65.87.37.2.81.06,1.01.21.29.2.45.42.74.63.2.15.37.45.75.62.38.18.59.48.82.57.33.13.57.22.9.34.23.09.51.15.9.3.39.15.66.22.88.35.29.2.51.35.8.55.21.14.59.04,1,.16.41.12.69.05.94.07.35.02.59.35.94.37.25.03.62-.36,1.02-.27.4.09.53.7.76.78.33.12.69-.17,1.02-.05.23.07.44.48.86.53.41.05.69.13.93.17.35.05.63-.2.97-.16.24.01.51.31.93.31.41,0,.72.12.96.12.35-.01.59-.29.93-.35.24-.03.54.14.95.1.41-.04.69-.22.93-.26.34-.05.58-.12.91-.23.23-.06.44-.53.83-.61.39-.08.73.14.97.09.34-.06.65.19.98.08.23-.07.4-.51.79-.63.38-.12.81.19,1.03.08.32-.14.55-.23.87-.37.22-.1.46-.26.84-.41.37-.18.36-.86.57-.97.3-.16.56-.19.86-.35.21-.1.46-.27.81-.48.35-.21.84.14,1.08.06.34-.11.49-.43.81-.57.23-.1.48-.26.83-.5.34-.24.6-.38.79-.55.27-.23.33-.55.59-.78.18-.16.73.04,1.07-.22.33-.27.45-.61.63-.79.25-.26.22-.64.47-.89.18-.17.7-.05,1.02-.34.31-.29.51-.48.71-.63.29-.21.22-.72.5-.95.2-.16.45-.3.76-.6.3-.3.75-.29.93-.47.25-.26.04-.82.28-1.08.17-.18.69-.11.99-.42.3-.31.17-.8.33-1,.2-.3.35-.52.56-.81.15-.2.44-.4.73-.72.29-.32.87-.2,1.05-.39.25-.27.48-.41.72-.68.17-.19.38-.42.67-.74.29-.32.3-.73.46-.93.23-.28.17-.67.41-.95.16-.2.26-.54.55-.86.3-.32.93-.12,1.13-.28.29-.23.28-.67.57-.9.21-.16.54-.24.84-.56.3-.32.28-.75.45-.94.25-.28.83-.1,1.08-.38.17-.19.2-.59.52-.91.32-.31.38-.72.58-.89.28-.26.45-.46.75-.7.2-.17.74-.03,1.07-.32.33-.29.41-.69.62-.85.3-.23.72-.12,1.02-.35.21-.16.24-.64.58-.92.34-.29.92-.07,1.12-.23.29-.23.19-.78.49-1.01.21-.16.72.01,1.09-.22.37-.24.42-.74.62-.92.28-.25.36-.57.65-.82.2-.18.69-.06,1.08-.28.4-.22.64-.4.9-.48.36-.12.63-.18,1-.26.26-.07.56-.22.97-.41.41-.18.7-.32.95-.43.34-.17.58-.28.93-.45.24-.12.52-.23.94-.39.42-.17.65-.46.9-.55.37-.12.68-.04,1.04-.16.25-.09.52-.3.97-.39.45-.1.78-.1,1.04-.15.38-.07.67.07,1.06.04.26-.03.51-.63.97-.69.46-.05.82-.11,1.09-.1.4.02.65.32,1.04.34.27.01.59-.24,1.05-.24.48.03.76.57,1.04.61.38.06.77-.32,1.16-.25.29.04.51.58.95.68.34.08.65-.09.9-.09.31,0,.54-.17.8-.18.26-.02.58.03.9.07.26.03.45.41.79.54.35.12.78.06,1.01.27.26.24.16.59.29.83.15.28.43.49.45.73.03.3-.08.51-.18.67-.1.17-.06.61-.35.73-.22.09-.62.06-.91.08-.25.02-.59.12-.88.06-.23-.06-.45-.44-.74-.52Z"/>
  <path class="cls-1" d="M315.71,151.35c-.28-.07-.27-.37-.43-.48-.2-.17-.73,0-.84-.22-.11-.22-.15-.43-.36-.61-.16-.14-.25-.45-.55-.53-.39-.13-.76.27-.99.25-.33-.02-.53-.6-.89-.61-.25,0-.54.03-.95,0-.41-.05-.7.05-.94.04-.35-.01-.6.33-.93.33-.23.01-.55-.5-.97-.47-.42.02-.69.21-.93.26-.34.08-.58.13-.92.21-.24.06-.55,0-.95.09-.41.09-.75-.04-.98.03-.34.1-.47.54-.81.64-.24.06-.51.17-.9.31-.39.15-.63.35-.85.44-.32.14-.52.29-.84.43-.22.09-.62-.07-.99.13-.37.19-.73.16-.95.28-.31.17-.4.53-.7.7-.21.13-.28.57-.62.81-.34.23-.57.43-.78.56-.3.17-.54.27-.83.47-.2.14-.72-.07-1.06.19-.33.27-.54.51-.72.69-.26.25-.44.43-.69.7-.17.18-.36.41-.68.69-.31.29-.22.83-.4,1-.26.25-.88-.02-1.14.24-.18.18-.29.49-.6.79-.31.3-.56.42-.77.57-.3.21-.44.47-.73.69-.21.15-.49.33-.8.64-.3.31-.31.72-.47.91-.23.28-.36.52-.59.8-.16.2-.27.53-.56.85-.3.32-.62.43-.77.64-.21.3-.42.48-.63.78-.15.21-.3.49-.6.82-.3.32-.7.34-.91.5-.29.23-.21.78-.5,1.01-.21.16-.38.36-.69.68-.31.32-.49.53-.66.73-.24.29-.82.16-1.05.46-.16.2-.27.52-.59.83-.32.31-.3.76-.48.96-.26.28-.87.07-1.13.35-.18.19-.17.64-.53.92-.35.29-.43.68-.63.86-.28.26-.48.45-.76.71-.21.17-.77-.01-1.13.25-.36.27-.61.43-.83.57-.32.2-.42.58-.76.75-.24.12-.43.39-.81.64-.38.25-.59.52-.82.66-.34.19-.8-.09-1.13.1-.23.13-.29.67-.68.9-.39.23-.93-.11-1.16,0-.35.15-.59.25-.94.4-.24.11-.25.82-.66,1.02-.41.19-.83.05-1.07.15-.35.15-.47.54-.82.69-.24.11-.58.11-1,.26-.42.16-.77.13-1.01.24-.35.15-.65.12-1,.26-.24.1-.59.04-1.02.18-.42.14-.74.28-.98.38-.34.16-.36.83-.72.97-.25.09-.57.24-1.01.36-.44.12-.82.22-1.09.23-.38.02-.66,0-1.04.01-.27.01-.66-.56-1.09-.47-.43.1-.66.53-.91.61-.36.11-.73-.16-1.09-.05-.25.07-.51.31-.95.37-.44.06-.7.47-.96.51-.38.06-.65.05-1.02.11-.26.05-.63-.34-1.07-.3-.44.04-.75.39-1.01.4-.38,0-.65-.2-1.03-.22-.26,0-.58.15-1.02.16-.45.02-.72.31-.99.35-.38.05-.65.07-1.03.11-.27.02-.62-.05-1.07-.06-.45,0-.76-.39-1.02-.41-.38-.03-.67.36-1.05.33-.27-.02-.54-.66-.98-.69-.44-.02-.8.31-1.06.27-.37-.06-.65-.02-1.03-.08-.26-.05-.53-.38-.97-.45-.44-.06-.78.28-1.05.27-.38-.02-.62-.65-.99-.66-.26,0-.56.08-1,0-.44-.08-.73-.26-.99-.31-.37-.07-.68.13-1.05.04-.26-.06-.6.03-1.04-.07-.44-.1-.75-.14-1.01-.2-.37-.08-.52-.58-.89-.68-.25-.07-.71.42-1.15.29-.44-.12-.73-.33-.97-.45-.34-.16-.62-.22-.97-.38-.24-.12-.29-.84-.71-.98-.42-.15-.88.21-1.14.14-.36-.11-.65-.08-1.02-.19-.25-.08-.49-.39-.9-.58-.41-.18-.9.02-1.13-.12-.33-.2-.44-.53-.76-.73-.22-.14-.3-.66-.7-.86-.4-.2-.93.21-1.18.11-.35-.15-.54-.39-.88-.56-.24-.11-.44-.45-.83-.67-.39-.22-.78-.16-1.02-.27-.34-.18-.58-.31-.91-.49-.24-.13-.3-.66-.67-.9-.38-.24-.94-.1-1.13-.31-.26-.28-.26-.66-.51-.94-.18-.2-.54-.23-.9-.51-.35-.28-.38-.79-.6-.93-.32-.21-.49-.44-.8-.64-.22-.14-.85.14-1.18-.17-.34-.3-.16-.96-.34-1.14-.26-.27-.7-.23-.95-.52-.17-.2-.16-.66-.47-.97-.32-.32-.67-.43-.89-.58-.31-.22-.52-.4-.81-.64-.21-.17-.6-.22-.91-.57-.3-.34-.16-.82-.3-1.05-.18-.32-.79-.3-.98-.63-.13-.23.12-.76-.16-1.1-.28-.35-.41-.7-.6-.88-.27-.26-.64-.26-.91-.52-.19-.18-.67-.18-.94-.53-.27-.35-.38-.68-.51-.9-.19-.32.09-.79-.11-1.11-.13-.22-.7-.22-.96-.57-.26-.35-.25-.75-.39-.96-.2-.31-.48-.44-.68-.74-.14-.21,0-.7-.27-1.04-.27-.35-.84-.26-1.02-.44-.25-.27-.43-.46-.68-.73-.18-.18-.54-.31-.81-.65-.27-.34-.27-.73-.42-.93-.22-.29-.53-.37-.76-.66-.15-.2-.07-.66-.35-.99-.28-.32-.28-.69-.43-.9-.21-.3-.67-.29-.88-.58-.15-.2-.48-.3-.77-.6-.29-.31-.33-.7-.51-.87-.25-.26-.43-.44-.68-.7-.18-.17-.32-.47-.63-.76-.31-.3-.81-.12-1.02-.26-.3-.19-.46-.41-.77-.59-.21-.12-.52-.25-.85-.49-.33-.24-.55-.48-.74-.64-.27-.21-.09-.83-.38-1.06-.2-.16-.67-.01-1.02-.22-.36-.21-.63-.32-.86-.41-.33-.12-.55-.25-.88-.34-.23-.06-.6.12-.97,0-.37-.13-.67-.15-.89-.2-.31-.08-.38-.74-.73-.81-.24-.05-.62.45-1,.39-.39-.04-.62-.45-.86-.5-.34-.05-.56-.19-.91-.23-.24-.04-.55,0-.96.02-.41.01-.69.18-.93.22-.34.06-.51.45-.82.55-.22.06-.56-.08-.95.02-.39.09-.7.03-.94.08-.33.1-.57.18-.89.3-.22.09-.58.04-.96.23-.39.17-.37.76-.55.91-.27.22-.54.28-.81.49-.18.17-.41.35-.74.59-.33.24-.56.43-.75.58-.28.21-.39.48-.67.69-.2.13-.75-.04-1.06.25-.3.3-.42.61-.58.8-.23.27-.53.35-.77.62-.17.19-.25.5-.52.84-.28.33-.08.89-.24,1.08-.24.27-.59.3-.82.58-.16.2-.42.37-.68.71-.26.35-.68.48-.8.7-.17.32.34.88.17,1.21-.12.23-.63.31-.88.66-.25.35-.31.7-.48.9-.24.28-.29.58-.53.86-.16.2-.86.06-1.11.41-.25.36.15,1.01,0,1.22-.22.3-.37.51-.59.82-.15.21-.77.16-1.03.52-.25.36-.44.63-.58.84-.21.31,0,.77-.24,1.07-.16.21-.26.55-.54.9-.29.35-.63.49-.81.69-.25.28-.36.55-.62.83-.18.2-.83.03-1.11.37-.28.35-.17.86-.35,1.05-.25.28-.25.62-.51.91-.18.2-.49.37-.81.69-.32.32-.82.22-1.04.38-.3.22-.63.22-.93.44-.21.15-.51.38-.83.69-.34.28-.21.9-.42,1.07-.29.24-.57.32-.86.56-.2.17-.51.29-.85.57-.34.28-.73.3-.94.46-.29.23-.23.74-.53.98-.2.17-.73-.02-1.1.22-.37.25-.28.9-.5,1.05-.31.21-.86-.1-1.16.11-.21.15-.23.68-.6.93-.37.25-.85.14-1.05.31-.29.23-.44.49-.75.7-.21.15-.32.55-.71.77-.39.22-.78.16-1.02.27-.34.16-.64.15-.98.31-.24.11-.45.42-.84.63-.39.21-.72.28-.94.42-.31.21-.48.45-.8.63-.23.12-.37.55-.78.74-.41.18-.74.29-.98.38-.36.13-.7-.05-1.05.08-.25.09-.55.18-.95.36-.41.18-.71.28-.95.37-.35.15-.59.25-.94.39-.24.1-.47.38-.89.53-.42.15-.77.1-1.02.19-.35.13-.66.07-1.01.2-.24.09-.5.29-.92.44-.43.12-.74.13-1,.19-.37.07-.63.13-1,.2-.26.05-.55.2-.98.31-.43.11-.64.49-.89.58-.36.12-.7-.05-1.06.07-.25.09-.49.42-.93.49-.44.07-.79-.04-1.05-.01-.37.04-.61.39-.98.43-.26.03-.62-.35-1.05-.27-.44.07-.73.3-.99.34-.37.06-.68-.35-1.05-.3-.26.01-.58.03-1.02.06-.44.04-.73.05-.99.06-.37,0-.63.38-1.01.39-.26,0-.56.16-1.01.2-.45.04-.79-.43-1.05-.4-.37.04-.6.66-.98.66-.26,0-.59-.47-1.03-.48-.44,0-.76.14-1.02.13-.37-.02-.63-.17-1-.2-.26-.02-.58.13-1.03.13-.44,0-.77-.09-1.03-.1-.37,0-.61.44-.99.45-.26,0-.57-.67-1.01-.71-.44-.04-.73-.08-.99-.11-.37-.05-.65.06-1.03,0-.26-.04-.57-.21-1.01-.25-.44-.04-.79.17-1.05.15-.37-.04-.62-.24-1-.29-.26-.03-.58.1-1.02.02-.44-.08-.81.15-1.07.09-.37-.08-.51-.6-.87-.68-.25-.06-.66.25-1.08.12-.43-.12-.7-.47-.96-.51-.37-.06-.63-.15-1-.21-.26-.04-.55-.03-.98-.15-.43-.12-.84.14-1.1.07-.36-.11-.53-.44-.89-.55-.25-.09-.48-.39-.9-.55-.42-.16-.83.02-1.06-.1-.34-.17-.38-.67-.71-.84-.23-.12-.78.29-1.2.13-.42-.16-.68-.28-.94-.35-.37-.09-.58-.34-.93-.48-.24-.09-.59-.12-.99-.32-.41-.2-.42-.77-.64-.92-.3-.22-.52-.38-.83-.59-.21-.15-.77.1-1.17-.1-.4-.21-.7-.25-.94-.36-.34-.16-.49-.49-.82-.66-.24-.11-.58-.16-.96-.39-.38-.24-.41-.74-.62-.89-.3-.22-.74-.08-1.04-.3-.21-.15-.27-.62-.63-.86-.37-.24-.59-.46-.81-.61-.31-.2-.84.12-1.15-.09-.21-.15-.28-.6-.64-.85-.36-.25-.53-.55-.74-.7-.3-.21-.75-.03-1.05-.24-.21-.15-.41-.41-.76-.66-.36-.25-.63-.38-.85-.52-.31-.2-.46-.45-.77-.65-.22-.14-.51-.25-.87-.5-.36-.25-.67-.29-.89-.41-.32-.17-.38-.7-.71-.86-.23-.12-.73.17-1.09-.07-.36-.24-.63-.41-.84-.56-.29-.21-.19-.79-.49-1-.21-.15-.54-.24-.91-.46-.37-.22-.82-.12-1.03-.27-.29-.22-.46-.42-.76-.63-.21-.15-.25-.65-.63-.86-.38-.2-.66-.32-.89-.43-.33-.16-.78.17-1.1,0-.22-.11-.27-.72-.67-.89-.4-.17-.79-.02-1.02-.1-.34-.11-.54-.35-.89-.46-.24-.07-.65.21-1.05.07-.4-.14-.61-.43-.86-.49-.35-.07-.63.06-.97,0-.24-.04-.49-.38-.9-.5-.41-.11-.74-.03-.97-.11-.34-.11-.5-.41-.84-.52-.24-.08-.59.05-1,0-.4-.06-.71-.36-.96-.36-.36,0-.57.4-.91.43-.24.02-.55-.3-.97-.26-.42.03-.71.41-.95.41-.34,0-.58-.25-.93-.23-.25.01-.51.32-.91.42-.4.1-.66.23-.89.29-.33.11-.64-.01-.98.1-.23.08-.62-.11-1.02.04-.4.15-.55.56-.77.67-.32.16-.48.38-.78.55-.21.12-.6.04-.97.25-.37.19-.69.26-.9.4-.3.19-.31.64-.59.84-.2.14-.41.35-.74.6-.33.26-.63.4-.83.54-.29.19-.69,0-.98.22-.2.15-.49.35-.79.65-.29.32-.45.64-.58.86-.19.3-.08.62-.26.91-.12.22-.28.48-.52.82-.22.34-.6.43-.74.64-.18.3-.11.63-.29.93-.1.22-.1.53-.25.9-.13.39-.25.7-.32.95-.1.33-.21.59-.27.93-.05.26-.13.53-.14.94-.02.3-.19.52-.12.73.07.26.15.46.25.65.12.18.11.46.21.69.04.19.08.34.13.63.05.31.43.53.44.76,0,.28-.03.6-.05.81-.04.24-.35.19-.45.34-.11.19-.04.65-.15.72-.12.06-.39-.06-.63-.14-.19-.06-.44.07-.67-.13-.23-.16-.25-.88-.44-1.18-.16-.26-.41-.43-.52-.81-.11-.36-.06-.64-.04-.9,0-.33-.15-.74-.07-1,.07-.26.41-.32.45-.62.05-.24.03-.61.04-.97.05-.46.02-.79.04-1.05.06-.39.02-.64.09-1.04.05-.25.03-.61.17-1.06.17-.45.67-.57.79-.81.18-.34.14-.71.33-1.06.15-.23.22-.57.46-.97.26-.39.65-.52.8-.74.23-.31.27-.62.5-.94.17-.21.42-.43.72-.78.32-.33.43-.7.62-.89.28-.27.5-.44.79-.7.2-.18.56-.24.92-.53.36-.3.86-.21,1.06-.38.29-.24.15-.81.47-1.05.22-.16.55-.32.95-.55.41-.23.83-.13,1.07-.24.35-.16.44-.62.8-.77.25-.11.65,0,1.07-.17.43-.16.71-.48.98-.54.38-.08.68.12,1.06.04.27-.05.64.09,1.08-.03.44-.11.72-.4.98-.5.36-.14.58-.33.95-.45.27-.09.63-.08,1.11-.11.47-.04.76.28,1.03.31.38.03.78-.5,1.19-.43.28.05.52.46.98.52.46.06.81.02,1.07.06.38.04.66-.24,1.05-.19.27.04.62.09,1.07.2.44.12.64.61.89.68.36.11.68.02,1.05.13.25.09.49.38.92.52.43.15.89-.09,1.14.03.34.17.37.66.7.83.23.12.68-.05,1.1.13.42.17.65.42.9.5.36.12.68-.03,1.04.09.26.08.55.32.95.53.4.21.63.43.87.54.34.16.59.27.92.44.23.12.38.5.77.72.39.22.82.14,1.03.3.31.21.53.37.83.58.21.15.33.52.71.76.37.24.82.18,1.03.34.29.23.29.64.58.87.2.16.42.42.78.66.37.25.62.53.86.64.33.16.81-.29,1.15-.13.24.11.4.53.77.77.36.24.56.5.76.65.3.21.52.35.82.56.21.15.62.09.98.33.36.24.51.57.72.72.29.22.31.62.61.83.21.15.73-.05,1.09.18.36.23.66.38.87.53.3.21.31.62.6.83.21.15.47.31.83.53.37.22.51.65.74.76.33.15.69-.03,1.02.12.23.11.5.23.88.41.38.19.63.35.84.48.31.19.36.57.67.76.21.14.53.27.91.46.39.2.85-.17,1.09-.1.34.09.6.13.95.19.25.05.52.31.92.47.4.15.54.52.77.64.32.17.66.08.98.25.22.12.39.53.79.68.4.15.83-.13,1.06-.02.34.13.45.53.79.65.24.08.5.31.92.42.42.12.78.11,1.03.14.36.06.61.11.97.17.25.03.54-.08.95.03.41.13.72.1.96.18.34.12.65.05.99.17.24.08.45.44.88.51.42.08.71.2.96.25.36.06.66-.22,1.01-.16.25.03.55.07.97.13.43.04.73.22.98.19.36-.05.6-.29.96-.33.26-.03.6-.09,1.03-.05.42.04.75.01,1,.05.35.06.53.58.89.64.25.05.59-.43,1.02-.43.42,0,.71.58.97.58.36,0,.62-.33.98-.32.25,0,.55.2.98.2.43,0,.75-.29,1-.26.36.04.62.1.98.11.25.01.53,0,.96-.03.43-.04.81.36,1.06.31.36-.08.52-.52.87-.59.25-.05.56-.03.99-.07.43-.04.72.21.98.23.37.02.62-.01.99-.02.25,0,.56-.27.98-.34.42-.07.67-.43.92-.47.35-.06.65.17,1.01.1.25-.04.61.23,1.03.15.43-.06.66-.43.9-.52.34-.12.62-.11.96-.23.24-.09.54-.06.96-.16.42-.11.75-.13.99-.21.35-.11.57-.24.92-.35.24-.08.36-.68.77-.79.4-.13.83.32,1.08.26.35-.09.55-.37.9-.46.24-.06.57-.06.98-.2.41-.14.68-.29.92-.38.33-.14.57-.23.9-.37.23-.09.41-.44.8-.62.39-.17.58-.47.8-.58.32-.16.57-.22.89-.38.22-.11.72.22,1.11.05.39-.17.59-.46.83-.53.35-.11.56-.29.9-.42.23-.09.66.11,1.04-.1.38-.21.63-.43.84-.57.3-.21.2-.8.49-1,.2-.14.81.24,1.18.03.38-.21.28-.94.5-1.07.32-.17.68-.06.98-.27.21-.14.39-.41.75-.65.35-.24.81-.05,1.03-.17.32-.18.41-.53.73-.71.22-.12.51-.25.86-.49.36-.24.47-.62.67-.77.3-.2.47-.41.77-.61.21-.14.78.15,1.12-.12.33-.27.29-.78.47-.96.25-.26.62-.27.87-.54.17-.18.48-.26.81-.53.32-.28.42-.61.61-.78.26-.25.17-.73.43-.97.18-.17.79.03,1.09-.27.3-.3.41-.6.61-.76.28-.23.36-.53.64-.76.2-.16.67-.13.93-.48.27-.33.35-.69.49-.9.2-.3,0-.75.2-1.05.14-.21.76-.13,1.03-.46.27-.33.02-.95.2-1.13.26-.25.74-.15.99-.41.17-.19.15-.59.41-.94.25-.35.47-.56.6-.78.19-.31.7-.31.89-.62.14-.22.24-.5.48-.86.25-.36.13-.8.26-1.03.18-.33.54-.43.72-.76.12-.23.36-.41.62-.76.26-.36.44-.58.6-.78.24-.29-.09-.91.16-1.2.17-.2.33-.44.6-.8.27-.36.92-.27,1.07-.48.23-.3.31-.57.54-.87.16-.21.48-.36.77-.7.28-.34.21-.83.39-1.03.25-.29.56-.38.81-.67.17-.21.31-.52.63-.85.33-.32.53-.61.76-.77.32-.23.64-.26.96-.48.22-.16.38-.48.76-.76.38-.28.96-.14,1.15-.33.29-.26.16-.82.47-1.08.23-.17.68-.1,1.11-.3.43-.21.72-.34.98-.44.36-.16.58-.44.97-.57.27-.08.51-.43.98-.57.48-.12.89.16,1.17.11.39-.08.64-.5,1.05-.53.29-.02.66.47,1.12.44.47-.03.79.04,1.06.04.39.02.71-.59,1.12-.57.29.02.56.69,1.02.74.46.04.84-.31,1.13-.31.41,0,.69.16,1.09.2.29.03.53.36.98.52.45.15.77.27,1.02.38.36.15.74-.02,1.1.17.25.12.73-.09,1.16.14.42.24.51.75.74.89.32.23.63.28.95.51.22.16.48.36.85.63.38.27.44.7.64.87.29.25.78.13,1.06.4.19.19.41.42.74.73.34.31.2.93.39,1.11.27.26.86.04,1.13.31.19.19.14.68.45,1,.31.32.7.39.88.59.26.28.35.55.6.83.17.2.18.61.47.94.29.34.6.48.77.68.24.29.38.51.62.8.16.2.51.33.78.67.28.34.67.44.83.65.22.3-.12.88.1,1.18.15.21.47.37.74.72.27.35.79.35.95.55.22.3.04.76.26,1.05.15.21.43.39.7.73.27.35.33.67.48.88.21.3.64.32.86.62.15.21-.04.73.23,1.08.27.35.75.36.9.57.22.3.28.57.5.86.15.2.25.52.52.86.27.34.59.51.79.67.29.23.7.14.98.36.2.17.49.36.78.68.28.31.17.79.31,1,.21.29.31.54.53.82.15.2.37.43.67.73.3.3.48.58.68.74.28.23.5.36.79.57.2.15.66.05.97.33.31.28.36.67.55.84.26.25.44.42.7.67.18.17.64.08.97.35.33.26.58.39.79.52.3.19.29.68.59.87.21.13.56.14.92.36.36.23.4.66.59.82.28.23.72.08,1,.31.2.15.5.2.87.41.37.21.41.75.62.87.31.18.78-.16,1.1,0,.22.11.33.55.71.74.38.19.49.65.72.77.33.15.78-.23,1.11-.08.23.1.53.16.92.33.38.18.63.34.87.41.34.11.52.38.86.49.24.08.62-.1,1.02.05.4.13.59.5.82.58.34.12.54.31.88.44.23.09.46.39.87.5.41.12.79-.03,1.04.01.36.06.68-.39,1.03-.33.25.03.46.56.87.66.42.1.8-.15,1.04-.07.33.13.55.29.89.39.24.08.49.31.9.39.42.08.7.33.95.35.36.02.62.04.98.06.25.02.54,0,.96.05.43.07.71.04.95.12.34.11.6.2.93.32.25.07.59-.11,1.02-.08.43.02.7-.12.95-.17.35-.07.67.2,1.02.14.25-.04.54-.48.97-.49.42,0,.68.59.93.62.36.05.66-.32,1.02-.28.25.02.54.41.97.39.43-.02.72.01.97.01.36,0,.61-.33.96-.35.25-.01.57.26,1,.22.43-.04.75.06,1,.02.36-.06.56-.42.92-.48.25-.04.57.11,1,.06.43-.05.7-.28.94-.34.35-.09.59-.19.93-.28.24-.06.46-.52.87-.61.41-.09.76.13,1.01.07.35-.08.67.18,1.02.1.25-.05.44-.5.85-.62.41-.11.82.21,1.06.13.34-.12.6-.15.93-.29.23-.09.49-.24.89-.37.4-.13.48-.82.71-.9.33-.11.6-.13.92-.26.23-.09.51-.21.89-.37.39-.16.85.29,1.09.23.35-.08.55-.39.9-.46.25-.05.52-.18.92-.35.39-.18.65-.31.87-.44.31-.18.42-.5.72-.68.21-.13.74.2,1.11-.03.37-.21.55-.53.75-.68.29-.21.32-.61.61-.81.2-.14.71.08,1.06-.15.36-.23.58-.39.8-.5.32-.16.32-.69.62-.88.22-.12.49-.23.83-.48.34-.25.79-.17.99-.32.28-.23.11-.83.37-1.06.19-.16.7-.01,1.03-.28.33-.27.23-.78.39-.97.24-.27.37-.49.6-.76.16-.19.46-.37.76-.66.31-.29.91-.11,1.08-.29.26-.26.5-.38.75-.63.18-.18.39-.4.69-.71.3-.31.31-.73.48-.92.24-.28.16-.68.4-.96.17-.19.25-.54.55-.86.3-.32.96-.08,1.17-.24.29-.23.27-.69.56-.91.21-.16.55-.23.85-.55.3-.32.25-.78.42-.97.24-.28.86-.09,1.11-.37.17-.19.16-.62.47-.94.31-.32.34-.74.53-.92.27-.26.44-.47.71-.73.19-.18.76-.04,1.07-.36.32-.31.37-.72.56-.89.28-.26.72-.16,1-.4.2-.17.17-.68.5-.98.34-.3.95-.11,1.14-.29.27-.26.1-.84.39-1.09.2-.18.77,0,1.11-.28.35-.28.35-.81.53-1.01.27-.27.31-.63.6-.89.21-.19.71-.1,1.1-.35.38-.27.64-.45.9-.54.37-.11.65-.19,1.02-.3.27-.07.57-.24.98-.45.41-.22.73-.31.96-.44.34-.18.58-.31.93-.5.24-.14.53-.23.96-.39.43-.15.64-.54.91-.61.37-.12.7,0,1.07-.13.26-.09.54-.31.99-.41.46-.1.8-.1,1.07-.15.39-.06.7.18,1.09.12.26-.04.51-.76.99-.79.48-.04.84-.06,1.12-.06.41.02.66.39,1.05.42.27.03.61-.3,1.09-.24.49.04.76.67,1.03.72.39.07.81-.36,1.21-.26.29.09.48.66.93.8.34.1.68-.09.94-.09.33,0,.57-.17.86-.2.29-.03.62.02.96.07.26.08.39.58.68.82.31.24.74.24.93.51.22.32.07.66.17.94.1.33.36.57.33.83.02.26-.08.41-.17.53-.09.12-.06.51-.33.54-.05,0-.11,0-.18,0l-.11-.02h-.03c-.08.08-.04.02-.06.04h-.06c-.17-.01-.35-.02-.5-.02-.27.01-.63.1-.95.1-.28,0-.5-.29-.78-.37Z"/>
  <path class="cls-1" d="M323.82,183.79c-.28-.03-.31-.35-.48-.46-.2-.16-.7.09-.84-.08-.14-.19-.2-.41-.42-.56-.17-.12-.28-.42-.57-.48-.39-.06-.69.36-.92.35-.32,0-.55-.54-.88-.55-.23.01-.5.06-.89.05-.39-.01-.66.06-.89.04-.33,0-.56.37-.88.37-.22,0-.52-.52-.91-.5-.39.04-.65.21-.88.25-.32.06-.55.11-.87.17-.22.05-.51-.03-.9.04-.38.07-.7-.09-.92-.04-.32.07-.47.5-.79.57-.22.05-.49.12-.87.2-.38.11-.61.3-.83.36-.31.09-.52.21-.83.31-.22.07-.57-.12-.94,0-.37.13-.7.05-.92.13-.31.13-.43.45-.74.57-.21.09-.33.52-.69.67-.35.16-.6.32-.81.4-.3.12-.55.15-.85.27-.21.09-.66-.21-1.01-.02-.35.18-.59.36-.78.49-.27.19-.47.33-.74.52-.19.14-.4.31-.74.5-.34.21-.33.74-.52.86-.27.18-.81-.21-1.09-.03-.19.13-.34.4-.67.62-.33.22-.59.27-.81.36-.31.13-.47.36-.78.5-.22.1-.51.2-.84.43-.32.24-.39.61-.57.76-.26.22-.4.41-.66.63-.18.15-.32.45-.64.69-.32.24-.63.28-.8.45-.24.24-.45.38-.68.62-.16.17-.34.41-.65.66-.31.26-.69.2-.9.32-.3.17-.26.7-.56.87-.21.12-.38.28-.7.54-.31.26-.5.43-.66.6-.24.25-.77.05-1.01.3-.17.17-.28.46-.59.72-.31.26-.3.69-.47.86-.24.24-.81,0-1.05.24-.17.17-.17.58-.48.84-.31.26-.37.62-.55.78-.25.23-.43.4-.68.63-.18.16-.71-.02-1.02.24-.32.26-.54.41-.74.54-.29.18-.35.55-.64.73-.21.13-.36.39-.68.64-.32.25-.49.52-.69.66-.28.2-.75-.02-1.03.17-.2.14-.18.66-.51.9-.34.24-.88-.03-1.08.1-.3.18-.51.3-.8.48-.21.12-.12.79-.46,1.02-.35.23-.75.16-.95.28-.3.17-.36.55-.66.72-.21.12-.53.16-.88.37-.36.21-.68.22-.89.36-.29.2-.58.2-.87.39-.2.13-.52.14-.88.35-.37.18-.64.34-.85.47-.3.18-.18.84-.48,1.03-.21.13-.48.32-.85.5-.38.18-.71.33-.95.39-.34.09-.59.12-.93.21-.25.05-.71-.45-1.1-.3-.38.15-.49.61-.71.73-.31.17-.69-.03-1,.13-.21.12-.4.38-.79.53-.38.15-.53.61-.75.7-.33.11-.58.15-.91.26-.23.08-.64-.22-1.03-.1-.39.12-.59.52-.83.58-.34.08-.63-.08-.97,0-.24.05-.48.28-.88.39-.4.09-.59.42-.82.5-.33.11-.57.19-.9.31-.23.08-.57.08-.97.17-.41.09-.77-.23-1.01-.18-.34.07-.52.51-.86.58-.24.03-.64-.55-1.04-.49-.41.06-.64.48-.89.49-.35.02-.59.13-.94.15-.24.02-.56-.26-.97-.2-.41.06-.63.48-.87.54-.34.07-.7-.5-1.04-.44-.24.04-.48.21-.9.24-.41.03-.71-.07-.96-.05-.35.03-.57.29-.92.31-.24.02-.53.21-.94.23-.41.02-.7.03-.95.04-.35,0-.61-.42-.96-.42-.24,0-.53.6-.94.59-.42,0-.73-.12-.97-.16-.35-.05-.61,0-.95-.06-.24-.04-.47-.73-.88-.76-.41-.03-.72.46-.97.46-.35,0-.6.12-.95.12-.24,0-.54-.23-.95-.27-.41-.03-.79.32-1.03.27-.34-.09-.53-.39-.87-.48-.24-.07-.45-.53-.85-.59-.4-.06-.76.5-1,.48-.35-.02-.58-.19-.93-.22-.24-.02-.52-.25-.92-.31-.41-.07-.72.1-.96.07-.35-.05-.59-.08-.94-.13-.24-.03-.46-.5-.86-.59-.41-.09-.85.25-1.08.15-.32-.15-.44-.49-.75-.64-.22-.1-.53-.03-.94-.15-.4-.12-.58-.57-.82-.62-.34-.07-.56-.21-.91-.28-.24-.05-.68.46-1.08.34-.4-.12-.47-.77-.69-.86-.32-.12-.67.05-.99-.09-.22-.11-.37-.52-.75-.67-.38-.15-.73-.1-.97-.15-.34-.07-.59-.12-.93-.19-.24-.05-.6.09-.99-.07-.39-.16-.43-.67-.64-.81-.28-.21-.79.08-1.08-.13-.2-.15-.19-.72-.56-.9-.37-.18-.62-.43-.86-.5-.33-.1-.66.06-.99-.04-.24-.06-.65.12-1.02-.09-.36-.21-.58-.47-.77-.62-.28-.21-.2-.75-.47-.96-.19-.15-.7.08-1.06-.13-.36-.21-.47-.57-.67-.71-.29-.19-.56-.24-.84-.46-.19-.15-.2-.65-.53-.89-.33-.24-.84.02-1.06-.09-.31-.18-.52-.3-.82-.48-.22-.11-.59-.14-.93-.38-.34-.24-.41-.63-.59-.78-.26-.23-.58-.23-.84-.46-.18-.16-.18-.61-.49-.87-.31-.26-.36-.61-.53-.78-.24-.25-.68-.16-.92-.41-.17-.17-.5-.21-.81-.47-.31-.26-.37-.63-.55-.78-.26-.23-.44-.39-.69-.61-.18-.15-.32-.43-.63-.69-.31-.26-.79-.08-.99-.21-.29-.18-.45-.39-.74-.57-.2-.13-.5-.25-.81-.51-.31-.26-.5-.5-.67-.67-.24-.24,0-.83-.23-1.08-.17-.17-.63-.1-.95-.35-.31-.25-.54-.43-.74-.55-.29-.17-.46-.37-.75-.54-.2-.12-.6-.04-.92-.28-.32-.24-.59-.36-.77-.5-.26-.21-.09-.81-.35-1.02-.18-.15-.75.14-1.07-.09-.32-.23-.33-.69-.5-.85-.25-.22-.36-.47-.62-.69-.18-.15-.44-.31-.77-.52-.34-.21-.63-.28-.83-.4-.29-.16-.65,0-.95-.13-.2-.1-.35-.42-.69-.61-.34-.19-.48-.49-.68-.62-.28-.19-.5-.27-.79-.43-.2-.11-.38-.4-.75-.57-.36-.16-.78.17-1,.1-.32-.07-.52-.23-.85-.29-.22-.04-.49-.13-.85-.25-.36-.13-.63-.19-.85-.25-.31-.1-.57-.02-.88-.11-.21-.07-.36-.62-.75-.71-.38-.07-.68.07-.91.05-.32-.02-.54-.2-.87-.22-.23,0-.5.07-.88.11-.39.02-.65.52-.87.52-.31,0-.55-.24-.87-.24-.22-.02-.5-.03-.87.03-.38.07-.73-.12-.95-.05-.31.11-.28.82-.57.92-.2.09-.59-.16-.95-.05-.36.09-.57.35-.78.4-.3.09-.48.27-.78.37-.2.07-.69-.39-1.04-.23-.36.16-.27.9-.46,1-.27.16-.49.23-.76.42-.19.12-.69-.17-1.02.04-.33.21-.55.39-.73.53-.26.2-.18.67-.43.89-.18.15-.32.42-.62.66-.3.24-.63.3-.81.43-.27.2-.4.41-.66.62-.18.14-.76-.12-1.06.15-.3.27-.22.75-.39.92-.23.24-.24.56-.47.81-.16.17-.44.31-.73.59-.29.28-.75.17-.95.31-.28.19-.58.19-.86.38-.2.14-.48.34-.77.63-.29.28-.12.86-.29,1.03-.24.24-.49.33-.74.57-.17.17-.44.3-.74.58-.3.28-.66.32-.84.48-.25.24-.15.7-.42.93-.18.16-.7.02-1.01.28-.31.27-.16.88-.35,1.04-.26.23-.8-.02-1.06.21-.18.16-.14.66-.45.93-.31.28-.78.19-.95.36-.25.23-.39.45-.64.69-.18.16-.23.55-.56.8-.33.25-.7.23-.9.36-.29.19-.57.2-.86.39-.2.14-.37.43-.71.65-.35.22-.65.3-.85.44-.28.2-.38.48-.66.68-.2.14-.27.57-.62.79-.35.22-.63.36-.85.47-.31.17-.66,0-.97.16-.22.1-.49.21-.85.4-.36.2-.64.31-.84.44-.29.19-.5.32-.8.5-.2.13-.38.42-.74.62-.37.18-.71.16-.92.26-.31.15-.6.11-.92.26-.22.1-.43.31-.81.48-.37.17-.65.23-.88.32-.32.13-.55.21-.87.34-.23.07-.48.24-.87.38-.38.14-.53.52-.75.63-.32.15-.65.02-.97.17-.22.1-.4.44-.79.58-.39.14-.71.1-.95.15-.34.08-.51.44-.85.51-.24.05-.61-.26-1.01-.14-.4.12-.63.37-.86.43-.33.1-.68-.26-1.01-.16-.23.06-.51.14-.91.23-.4.09-.66.14-.9.18-.34.06-.52.44-.87.5-.24.04-.49.23-.89.32-.4.09-.78-.3-1.02-.25-.33.08-.45.73-.79.78-.24.04-.61-.36-1.01-.3-.4.06-.67.25-.91.27-.35.03-.6-.07-.94-.04-.24.02-.51.21-.92.27-.41.07-.72,0-.96.04-.34.07-.49.52-.83.59-.24.05-.62-.54-1.03-.5-.41.04-.68.05-.92.06-.34.01-.59.16-.93.18-.24.02-.55-.11-.96-.1-.41.01-.69.3-.93.33-.35.03-.61-.11-.95-.08-.24.02-.51.21-.92.22-.41,0-.71.3-.95.29-.35,0-.57-.5-.91-.52-.24-.02-.55.31-.96.29-.41-.02-.72-.29-.96-.27-.35.03-.6,0-.95.03-.24.02-.51.09-.92.07-.41-.02-.73.28-.97.25-.35-.04-.56-.34-.9-.39-.24-.03-.51-.25-.92-.29-.41-.05-.75.23-.98.17-.34-.08-.47-.53-.81-.61-.23-.06-.64.43-1.05.36-.41-.08-.67-.14-.91-.16-.35-.03-.58-.2-.93-.23-.24-.02-.56.05-.97-.02-.41-.08-.54-.59-.77-.68-.32-.14-.55-.24-.86-.39-.22-.1-.66.27-1.06.16-.4-.11-.67-.1-.91-.14-.34-.06-.55-.32-.9-.38-.24-.05-.57.02-.96-.11-.39-.14-.53-.6-.75-.7-.32-.14-.68.09-1-.04-.22-.09-.38-.51-.76-.64-.39-.14-.64-.28-.87-.36-.32-.12-.76.33-1.08.19-.22-.09-.37-.51-.75-.66-.38-.15-.59-.4-.81-.5-.31-.14-.69.13-1.01-.01-.22-.1-.45-.3-.82-.47-.37-.17-.65-.24-.87-.33-.32-.13-.5-.34-.82-.47-.22-.09-.51-.15-.88-.32-.37-.17-.66-.15-.89-.23-.33-.11-.44-.61-.77-.71-.23-.07-.67.29-1.03.12-.37-.17-.64-.3-.85-.42-.3-.16-.25-.74-.55-.9-.21-.11-.53-.15-.9-.32-.37-.17-.79,0-.99-.13-.29-.18-.47-.34-.76-.52-.2-.12-.27-.62-.64-.77-.37-.14-.64-.24-.86-.33-.31-.13-.73.24-1.04.11-.22-.09-.28-.68-.66-.83-.38-.14-.74.04-.96-.03-.32-.09-.52-.31-.84-.39-.23-.06-.61.24-.99.12-.38-.12-.57-.41-.81-.44-.33-.05-.59.08-.91.03-.23-.03-.45-.39-.84-.47-.38-.09-.69-.03-.91-.11-.31-.11-.45-.43-.77-.52-.22-.07-.56.06-.94-.02-.38-.08-.65-.41-.88-.42-.34-.02-.58.37-.9.35-.23-.02-.48-.35-.87-.37-.39-.02-.71.33-.93.28-.31-.08-.5-.31-.83-.36-.23-.03-.51.25-.89.27-.39,0-.63.13-.86.16-.32.05-.59-.13-.91-.08-.23.03-.55-.22-.94-.14-.39.08-.59.44-.81.51-.31.09-.49.29-.8.4-.21.08-.56-.08-.93.04-.37.11-.66.13-.88.21-.31.12-.37.57-.67.69-.21.08-.42.28-.77.44-.35.17-.64.25-.86.32-.3.12-.64-.16-.95-.03-.21.09-.52.21-.86.42-.33.23-.51.52-.68.69-.23.23-.18.57-.4.8-.14.18-.34.39-.63.64-.28.25-.69.2-.85.37-.22.24-.22.56-.46.78-.15.16-.26.42-.46.73-.23.31-.41.56-.57.75-.24.24-.35.47-.53.74-.13.21-.26.43-.45.77-.11.26-.31.41-.33.61-.02.25-.03.46,0,.65,0,.19-.1.43-.07.68-.12.16-.14.31-.26.57-.11.28-.03.61-.12.82-.12.25-.28.52-.38.69-.11.19-.24.02-.34.11-.12.11-.21.53-.27.53-.06,0-.16-.21-.27-.37-.09-.13-.24-.12-.35-.36-.1-.22-.04-.81-.11-1.13-.04-.27-.21-.51-.22-.87,0-.09,0-.17.01-.24l.02-.11v-.05s.02-.02.02-.02h0s0-.02,0-.02h0s0,0,0,0h0s-.07-.02-.07-.02h0s0,0,0,0c.06-.12.12-.23.16-.34.09-.28.15-.66.29-.86.15-.2.47-.12.62-.37.11-.19.17-.53.33-.82.19-.38.24-.68.33-.9.14-.33.15-.58.34-.89.12-.21.16-.55.39-.91.23-.39.76-.31.93-.5.24-.26.25-.64.51-.9.17-.19.32-.46.63-.77.32-.3.72-.31.9-.48.27-.23.36-.51.64-.75.21-.15.46-.32.8-.57.36-.22.52-.56.74-.68.32-.18.53-.32.85-.49.23-.11.57-.08.95-.27.39-.19.83-.03,1.05-.13.31-.15.27-.75.6-.91.23-.11.55-.2.96-.33.41-.13.79.07,1.03,0,.34-.09.49-.54.85-.61.25-.05.6.14,1.01.05.42-.09.71-.37.97-.36.36,0,.61.25.97.24.25,0,.57.16.99.14.42-.02.71-.29.96-.34.35-.07.57-.28.92-.32.26-.03.59.02,1.02.04.44.02.66.35.9.42.34.08.75-.4,1.1-.32.24.06.43.5.83.58.41.07.72.05.97.08.35.03.63-.26.98-.21.24.03.57.11.98.2.41.09.58.58.81.65.33.1.63,0,.96.11.24.07.46.34.85.47.39.13.83-.13,1.05-.03.32.14.35.63.66.78.22.11.63-.1,1.02.04.39.15.61.35.85.41.34.08.63-.1.97-.02.24.06.52.26.9.42.38.16.61.35.84.43.32.12.55.2.88.32.22.09.39.43.76.6.37.17.76.03.97.14.3.16.52.27.82.44.21.11.35.46.72.63.37.17.78.03.99.15.29.17.34.56.63.74.21.12.44.33.8.49.37.17.64.39.87.46.33.09.71-.43,1.03-.35.23.06.44.42.81.58.37.16.58.37.8.46.31.13.53.23.84.36.21.1.58-.04.95.1.37.14.57.42.78.52.3.15.4.5.71.62.22.09.65-.23,1.02-.11.37.13.67.19.89.27.31.13.4.51.72.63.22.09.48.18.86.3.37.14.61.47.84.51.34.05.62-.21.95-.17.23.03.5.09.89.19.38.1.64.2.86.28.32.11.45.46.77.58.22.09.54.11.93.19.4.07.74-.39.97-.39.33,0,.58-.06.91-.06.24,0,.53.2.92.28.39.07.6.4.82.47.32.09.62-.08.94,0,.23.05.46.4.86.44.4.04.73-.32.96-.28.33.06.51.43.84.49.23.04.51.22.91.26.4.02.73-.07.96-.09.34-.02.58-.03.92-.05.24-.02.48-.19.88-.18.4.02.68-.04.91,0,.33.06.6-.02.93.02.23.03.49.33.89.32.4-.01.69.06.92.05.34-.01.56-.34.89-.35.23,0,.51-.04.91-.05.4,0,.7.14.93.05.32-.1.5-.37.82-.48.23-.07.53-.18.93-.22.39-.04.69-.12.92-.12.33,0,.58.46.92.46.23,0,.48-.47.87-.54.39-.06.74.45.97.41.33-.05.52-.4.85-.45.23-.04.54.11.93.05.39-.06.64-.39.88-.39.34,0,.58-.02.91-.05.23-.02.49-.06.88-.15.39-.09.79.24,1.02.16.32-.12.4-.56.72-.67.22-.08.51-.1.9-.19.39-.08.69.09.92.06.33-.05.57-.09.91-.14.23-.03.48-.31.86-.43.38-.11.56-.48.78-.55.32-.1.63.09.95-.01.23-.06.59.13.96-.01.38-.14.54-.52.75-.62.3-.15.56-.16.86-.31.21-.1.5-.11.87-.24.37-.14.67-.2.89-.29.3-.14.49-.31.79-.47.21-.11.24-.71.59-.87.36-.16.82.23,1.04.16.32-.11.47-.39.79-.5.22-.08.53-.1.89-.27.35-.19.58-.37.78-.49.29-.18.49-.3.77-.48.2-.12.32-.48.66-.67.35-.19.49-.47.69-.59.28-.17.52-.24.8-.42.19-.13.68.12,1.02-.09.34-.21.48-.5.69-.6.3-.14.47-.35.77-.5.21-.1.64.07.98-.15.34-.22.57-.42.73-.59.25-.23.09-.78.33-1,.17-.16.77.14,1.09-.09.32-.24.15-.92.33-1.06.26-.2.64-.11.9-.31.18-.15.35-.38.65-.64.3-.26.75-.12.94-.26.27-.2.32-.54.59-.73.19-.14.44-.28.74-.54.3-.26.36-.64.55-.77.28-.19.43-.39.69-.6.18-.14.75.09,1.04-.19.29-.28.21-.75.36-.94.21-.27.56-.3.77-.57.15-.19.43-.28.71-.56.29-.28.39-.58.57-.74.25-.23.16-.68.42-.92.18-.16.75.03,1.05-.26.29-.28.4-.57.59-.72.27-.21.36-.5.64-.71.19-.15.62-.1.92-.38.31-.27.44-.59.6-.77.24-.26.12-.71.37-.96.17-.18.74,0,1.06-.26.33-.25.25-.9.46-1.03.3-.19.71.02,1.03-.15.22-.12.33-.49.68-.73.36-.23.64-.34.84-.48.29-.21.74,0,1.04-.19.21-.13.42-.34.8-.53.38-.18.51-.61.73-.74.31-.2.68-.08,1-.25.23-.11.51-.15.93-.26.41-.12.69-.19.93-.24.35-.09.52-.69.9-.75.26-.03.54-.09.97-.17.44-.07.81.39,1.06.36.36-.03.61-.13.97-.15.25-.02.56.11.99.09.43-.03.74-.35,1-.34.37.02.62.21.99.23.25.02.57-.09,1.01-.04.43.09.75.11.99.19.35.12.55.34.89.46.24.08.58,0,.98.16.41.14.61.67.85.71.35.06.7-.38,1.06-.31.25.05.42.49.81.66.39.17.64.3.86.42.31.17.66.07.96.27.21.13.57.07.95.27.37.2.46.65.67.78.3.18.72.03,1,.24.2.15.15.75.5.97.35.22.54.45.74.58.29.2.83-.14,1.12.07.2.15.07.82.41,1.05.34.24.82.04,1.04.15.31.16.48.37.79.53.22.11.29.49.62.74.33.25.56.43.75.57.27.21.63.14.91.35.19.15.66.02.98.28.32.26.3.74.47.9.25.23.52.3.78.53.18.16.39.35.7.61.32.26.34.66.51.82.25.24.71.1.96.33.17.16.35.38.66.64.31.26.17.86.35,1.02.26.22.82-.06,1.07.16.18.15.15.63.46.89.31.26.68.26.86.41.26.21.37.46.63.67.18.15.23.54.54.79.31.25.63.31.81.46.26.22.44.37.69.59.18.14.52.18.83.42.32.23.71.19.89.33.26.2.07.83.34,1.03.19.14.51.19.84.41.33.23.79.05.98.18.27.19.22.69.5.87.2.12.5.17.84.37.34.2.5.46.7.59.28.18.66.02.94.2.19.12.2.67.55.87.35.2.76.02.97.13.3.15.45.36.75.51.21.11.41.33.77.51.36.17.69.18.93.23.33.07.65-.19.97-.12.23.05.55.12.91.28.37.14.46.6.66.72.28.17.49.3.78.47.2.11.48.23.85.37.37.14.63.32.85.38.32.08.56.14.88.22.23.04.6-.23.97-.12.38.11.56.43.78.52.31.13.53.21.84.34.22.09.59-.17.97-.06.38.11.63.17.86.21.33.05.48.5.81.55.23.04.54-.11.93-.02.38.09.56.47.78.55.32.11.66-.18.97-.07.22.08.5.03.88.12.39.06.59.54.82.57.33.05.65-.43.98-.38.23.03.45.41.84.47.39.06.63.45.86.49.33.05.62-.44.95-.39.23.02.52-.04.91,0,.39.03.66.11.89.11.33,0,.56.21.9.21.23,0,.53-.28.92-.25s.66.33.89.36c.33.01.56.13.9.14.23,0,.51.22.91.22.4,0,.7-.24.93-.27.33-.04.51-.56.84-.6.23-.03.55.44.95.44.4-.02.68-.38.91-.36.33.02.56.12.9.14.23.01.51.18.91.15.39-.03.71.14.94.1.33-.05.56-.09.9-.14.23-.04.48-.15.87-.2.4-.06.64-.13.88-.12.33.03.58.06.91.09.24.01.51-.25.9-.3.4-.06.61-.25.83-.34.3-.13.65.03.95-.12.22-.11.38-.6.76-.69.38-.08.75.43.98.41.34-.02.53-.45.86-.47.23-.02.58.31.97.22.38-.09.65-.15.88-.2.32-.08.48-.45.8-.53.22-.06.57.14.95.03.38-.11.69-.09.91-.16.32-.11.43-.48.75-.59.22-.07.54,0,.91-.15.37-.14.58-.4.79-.5.3-.14.5-.28.8-.43.21-.1.31-.59.68-.73.36-.14.74.02.95-.06.31-.13.64.05.94-.09.21-.1.3-.56.66-.73.35-.17.79.07,1-.04.3-.15.51-.26.81-.41.2-.11.42-.28.77-.45.35-.18.28-.87.48-.99.28-.18.53-.21.81-.39.19-.12.43-.27.77-.47.34-.2.83.16,1.06.08.32-.1.46-.41.78-.52.23-.07.46-.24.79-.46.33-.22.57-.36.76-.51.27-.21.32-.52.58-.73.18-.15.71.09,1.04-.14.32-.23.45-.56.63-.71.25-.23.23-.61.48-.84.17-.16.68.03,1-.22.32-.25.51-.41.72-.53.29-.18.24-.7.53-.88.2-.12.46-.23.77-.48.31-.25.74-.18.92-.33.26-.22.09-.8.35-1.01.18-.15.68,0,.99-.26.31-.26.22-.76.39-.93.23-.25.37-.46.61-.71.16-.17.46-.32.77-.58.31-.26.87-.04,1.06-.19.26-.22.5-.31.76-.53.18-.15.41-.33.72-.59.31-.26.36-.66.54-.82.26-.23.23-.63.48-.86.18-.16.3-.48.62-.74.32-.26.92.08,1.14-.04.3-.16.34-.61.64-.77.22-.11.55-.12.88-.37.32-.25.34-.69.53-.84.27-.22.82.09,1.09-.13.19-.15.25-.55.58-.8.34-.24.43-.62.64-.76.29-.2.49-.34.77-.55.21-.13.72.13,1.06-.1.34-.23.45-.61.66-.73.31-.18.7.01,1.01-.16.21-.12.27-.6.62-.82.36-.21.9.1,1.1-.02.3-.18.23-.77.53-.96.21-.12.71.17,1.08-.01.37-.19.44-.71.64-.86.29-.2.39-.51.68-.71.21-.14.66.05,1.04-.13.39-.17.63-.31.89-.35.35-.04.62-.08.96-.12.25-.04.55-.14.94-.28.4-.14.7-.2.92-.31.32-.15.57-.22.89-.36.23-.1.5-.18.9-.29.4-.11.63-.43.87-.5.35-.09.64.05.99-.04.24-.06.51-.25.93-.32.42-.07.73-.04.98-.08.36-.05.64.21.99.17.24-.02.48-.72.91-.77.43-.03.77-.04,1.02-.03.37.02.6.37.96.38.25.02.55-.27.98-.26.44.01.71.62.96.65.36.07.71-.41,1.08-.34.26.05.48.62.9.68.32.06.6-.18.84-.21.3-.04.5-.25.75-.35.26-.1.56-.12.86-.12.24.02.42.47.73.6.32.13.73-.04.94.19.25.25.17.64.31.88.15.29.43.45.46.73.06.29-.02.51-.09.68-.07.18.01.61-.24.76-.11.08-.23.05-.41.16-.16.04-.33.08-.47.13-.25.08-.58.3-.87.33-.24.02-.5-.26-.79-.3Z"/>
  <path class="cls-1" d="M325.05,214.22c-.3-.02-.36-.3-.54-.4-.22-.16-.73.11-.89-.06-.16-.16-.23-.35-.46-.48-.18-.1-.31-.37-.61-.41-.4-.06-.71.28-.94.27-.33-.03-.56-.52-.91-.49-.24.01-.52.05-.92.03-.4-.01-.68.05-.91.03-.34-.03-.59.3-.92.27-.23,0-.51-.47-.91-.45-.4.02-.68.17-.91.19-.33.04-.57.07-.9.11-.23.03-.52-.1-.92-.03-.4.06-.7-.08-.93-.05-.34.05-.52.44-.85.49-.23.03-.51.08-.9.14-.4.05-.64.26-.87.3-.33.08-.54.19-.87.27-.23.05-.57-.16-.96-.07-.39.1-.72-.01-.94.06-.32.11-.48.41-.8.52-.22.07-.39.49-.77.61-.38.12-.65.25-.87.31-.32.09-.57.09-.89.2-.22.08-.63-.24-1.01-.09-.38.15-.63.31-.84.42-.3.16-.52.26-.82.42-.21.1-.44.26-.8.43-.37.17-.44.69-.65.79-.3.15-.78-.28-1.09-.12-.21.11-.41.35-.77.52-.37.18-.62.22-.85.29-.33.1-.52.3-.85.4-.23.07-.54.15-.9.34-.36.19-.49.54-.69.67-.29.19-.46.37-.74.56-.2.13-.38.4-.73.61-.35.21-.67.21-.86.36-.27.21-.5.31-.77.53-.18.15-.39.37-.73.59-.34.22-.71.14-.93.23-.32.14-.35.66-.67.79-.22.1-.42.23-.76.46-.34.23-.54.38-.72.54-.26.22-.77,0-1.03.22-.18.16-.33.43-.66.66-.34.23-.38.64-.56.8-.26.22-.79-.04-1.06.19-.18.16-.22.56-.55.8-.33.24-.42.59-.61.74-.26.22-.45.38-.71.6-.18.15-.69-.03-1.02.22-.33.25-.55.4-.75.52-.3.18-.36.53-.66.71-.21.12-.36.38-.68.64-.32.25-.49.52-.68.66-.28.21-.73,0-1.01.21-.19.14-.17.65-.49.9-.32.25-.86.03-1.06.17-.29.19-.49.33-.78.53-.2.14-.07.78-.4,1.04-.32.26-.73.22-.92.37-.28.21-.3.58-.58.79-.19.15-.5.22-.82.47-.33.25-.65.31-.83.47-.26.23-.55.27-.82.5-.19.16-.51.2-.84.45-.33.25-.57.46-.75.62-.26.23-.05.85-.31,1.08-.18.16-.41.4-.74.64-.34.24-.64.44-.87.54-.32.15-.57.22-.88.37-.22.11-.77-.26-1.11-.02-.34.24-.35.71-.54.87-.27.23-.68.13-.95.35-.19.16-.32.45-.66.68-.35.23-.39.69-.59.83-.29.2-.51.31-.81.5-.21.13-.67-.04-1.02.18-.35.22-.45.65-.67.76-.31.16-.63.09-.94.25-.22.11-.4.39-.77.59-.36.2-.46.57-.66.71-.29.2-.5.35-.79.55-.2.14-.52.24-.89.45-.36.21-.81,0-1.03.11-.32.15-.38.61-.7.76-.22.11-.75-.31-1.12-.12-.37.18-.49.65-.72.75-.33.13-.54.28-.88.4-.24.08-.62-.09-1,.07-.38.16-.49.62-.71.74-.32.17-.8-.23-1.12-.07-.22.1-.42.33-.82.47-.4.14-.72.13-.95.21-.33.12-.49.43-.83.55-.23.08-.46.35-.87.45-.41.11-.69.22-.93.29-.35.1-.7-.23-1.04-.13-.24.07-.38.7-.79.81-.41.12-.76.04-1.01.06-.36.02-.61.11-.98.13-.25.02-.63-.57-1.04-.49-.41.07-.62.63-.87.67-.35.06-.58.21-.94.27-.25.04-.59-.13-1.01-.1-.42.04-.75.44-1.01.43-.36,0-.6-.26-.96-.31-.25-.04-.54-.44-.96-.45-.42,0-.71.57-.96.59-.36.02-.63-.11-.99-.09-.25,0-.56-.23-.98-.27-.42-.05-.73.15-.99.14-.36-.02-.62-.03-.99-.04-.25-.02-.52-.41-.93-.53-.42-.1-.86.23-1.1.11-.33-.15-.47-.49-.79-.64-.23-.11-.56-.02-.98-.12-.42-.09-.61-.56-.85-.6-.35-.08-.58-.23-.93-.31-.24-.05-.7.39-1.1.23-.4-.16-.45-.8-.67-.9-.31-.16-.69,0-1-.18-.22-.12-.35-.52-.73-.7-.38-.19-.72-.18-.96-.26-.34-.11-.59-.18-.92-.31-.24-.09-.6,0-.98-.22-.37-.21-.39-.69-.58-.85-.26-.23-.8-.02-1.07-.26-.19-.17-.13-.71-.48-.94-.35-.23-.58-.51-.8-.61-.32-.14-.65-.04-.97-.2-.22-.11-.66.03-1.01-.21-.35-.24-.53-.52-.72-.68-.26-.24-.14-.74-.4-.98-.18-.16-.7-.01-1.03-.26-.33-.25-.42-.62-.6-.78-.26-.23-.54-.29-.81-.52-.18-.16-.17-.64-.5-.89-.32-.26-.83-.05-1.04-.17-.29-.2-.5-.33-.79-.53-.21-.13-.57-.18-.89-.44-.32-.26-.4-.63-.58-.79-.26-.23-.57-.24-.83-.47-.18-.16-.18-.6-.5-.86-.32-.26-.38-.6-.55-.77-.25-.24-.67-.17-.92-.41-.17-.17-.5-.21-.82-.46-.32-.26-.4-.62-.59-.76-.27-.22-.45-.37-.72-.59-.19-.15-.34-.42-.67-.67-.33-.25-.78-.06-.99-.18-.3-.17-.47-.36-.77-.53-.21-.12-.52-.22-.84-.46-.33-.24-.55-.46-.72-.62-.26-.22-.08-.8-.34-1.03-.18-.15-.64-.05-.97-.28-.34-.22-.57-.39-.79-.49-.31-.14-.5-.31-.81-.45-.22-.09-.59,0-.94-.19-.34-.2-.63-.28-.83-.4-.28-.18-.21-.77-.51-.93-.21-.11-.71.22-1.06.04-.35-.18-.44-.61-.65-.73-.29-.17-.44-.39-.74-.56-.21-.11-.49-.23-.86-.37-.37-.15-.67-.17-.89-.23-.32-.1-.64.15-.96.06-.22-.07-.43-.35-.82-.44-.38-.1-.59-.35-.81-.43-.32-.12-.56-.13-.88-.23-.22-.06-.48-.3-.87-.37-.4-.05-.72.36-.95.36-.33,0-.57-.13-.9-.09-.23.02-.51,0-.9-.01-.39-.03-.67,0-.9-.01-.33-.02-.57.11-.9.09-.23-.02-.52-.45-.92-.4-.4.05-.66.21-.89.25-.33.06-.59-.08-.92,0-.23.06-.47.26-.85.34-.39.09-.56.6-.78.64-.32.06-.6-.09-.92,0-.22.07-.51.08-.89.2-.38.13-.77,0-.98.12-.29.18-.17.85-.46,1.02-.2.12-.63-.05-1,.1-.37.14-.56.42-.78.5-.31.13-.48.34-.79.47-.21.09-.72-.32-1.08-.13-.35.2-.28.89-.48,1.01-.29.17-.5.28-.79.45-.2.12-.7-.15-1.04.08-.34.23-.58.39-.78.52-.28.2-.24.66-.52.86-.19.14-.36.42-.69.64-.33.23-.67.27-.87.39-.29.18-.45.38-.74.57-.2.13-.74-.16-1.07.08-.33.24-.33.72-.52.87-.27.22-.32.53-.59.75-.19.15-.49.27-.82.51-.33.25-.77.09-.99.21-.31.16-.61.12-.91.28-.22.11-.53.28-.86.52-.33.24-.27.83-.46.97-.28.21-.54.26-.83.47-.2.14-.49.24-.82.48-.34.24-.71.23-.91.36-.29.2-.27.66-.56.86-.2.14-.68-.05-1.03.17-.35.22-.31.83-.51.97-.3.19-.79-.11-1.08.08-.2.13-.24.63-.61.84-.37.21-.81.08-1.01.23-.29.21-.45.41-.74.61-.2.14-.33.51-.71.7-.38.19-.74.12-.97.22-.33.13-.6.13-.94.24-.23.08-.46.34-.85.5-.39.16-.71.2-.93.31-.32.16-.49.39-.82.53-.23.09-.41.48-.81.62-.4.14-.72.21-.96.27-.35.08-.65-.14-1-.07-.24.05-.54.09-.95.2-.41.1-.7.17-.94.22-.34.09-.59.16-.93.25-.24.06-.49.29-.91.37-.41.09-.74-.02-.98.02-.35.06-.62-.05-.97,0-.24.04-.52.18-.94.24-.42.05-.71,0-.96.02-.35.01-.6.02-.96.03-.25,0-.54.11-.96.13-.42.02-.68.32-.93.35-.35.04-.64-.18-.99-.14-.24.03-.53.28-.95.27-.42,0-.72-.16-.96-.18-.35-.03-.63.26-.99.23-.25-.02-.5-.43-.92-.45-.42-.02-.72.13-.97.11-.35-.02-.57-.45-.92-.47-.24-.03-.54-.06-.95-.11-.41-.04-.68-.07-.93-.1-.35-.05-.65.25-1,.19-.24-.04-.54.04-.96-.01-.42-.05-.65-.53-.89-.56-.35-.04-.66.49-1.01.44-.24-.04-.47-.51-.88-.57-.41-.06-.72.03-.96-.03-.34-.07-.55-.26-.89-.34-.24-.06-.56.02-.96-.05-.41-.07-.69-.22-.93-.25-.35-.04-.62.34-.97.3-.24-.03-.45-.67-.85-.75-.41-.08-.67-.15-.9-.21-.34-.09-.61-.03-.95-.12-.23-.06-.5-.26-.9-.35-.4-.09-.75.1-.99.06-.34-.06-.56-.26-.91-.32-.24-.04-.55.06-.95-.04-.4-.1-.76.08-.99.01-.33-.1-.44-.59-.77-.69-.23-.07-.61.17-1,.06-.4-.11-.64-.43-.88-.46-.34-.05-.59-.13-.93-.18-.24-.03-.51-.03-.91-.13-.4-.11-.77.14-1,.07-.33-.1-.5-.4-.83-.5-.23-.07-.47-.31-.87-.42-.4-.11-.76.1-.99,0-.32-.12-.41-.57-.73-.7-.23-.09-.68.34-1.08.24-.4-.11-.65-.19-.89-.23-.34-.06-.57-.24-.91-.29-.24-.04-.55,0-.95-.1-.4-.1-.52-.6-.74-.7-.32-.13-.55-.23-.86-.37-.23-.09-.66.25-1.06.15-.4-.1-.67-.08-.91-.12-.34-.05-.56-.29-.9-.34-.24-.03-.55.03-.95-.06-.4-.09-.58-.52-.81-.59-.33-.09-.67.17-1,.08-.23-.06-.44-.44-.84-.53-.4-.08-.67-.19-.91-.24-.34-.06-.68.41-1.01.35-.23-.04-.46-.41-.86-.48-.4-.08-.66-.26-.9-.3-.34-.06-.64.28-.98.23-.23-.04-.5-.18-.9-.24-.4-.05-.68-.04-.92-.06-.34-.03-.57-.18-.91-.2-.24-.02-.53,0-.93-.03-.41-.04-.67.08-.91.08-.34.01-.62-.42-.96-.41-.24,0-.52.49-.92.47-.4-.02-.7-.04-.94-.07-.34-.04-.51-.59-.86-.62-.24-.03-.55.08-.95.07-.41,0-.72.31-.96.28-.34-.04-.57-.14-.91-.17-.24-.02-.51-.44-.92-.42-.4.03-.69.05-.93.07-.35,0-.56.52-.9.55-.23.02-.55-.47-.96-.44-.4.04-.65.35-.88.39-.33.05-.6-.02-.94.05-.23.06-.44.5-.83.56-.39.06-.71-.09-.93-.03-.32.12-.49.35-.81.47-.22.08-.58-.11-.98-.02-.39.09-.64.27-.87.32-.33.06-.6-.15-.94-.09-.23.04-.48.3-.87.42-.39.11-.78-.07-1,.03-.31.14-.36.6-.67.74-.21.1-.6-.1-.98.04-.39.13-.53.62-.76.67-.32.09-.61-.08-.93,0-.23.06-.39.43-.76.59-.36.18-.56.37-.77.48-.29.17-.61.09-.91.26-.2.12-.63-.05-.97.16-.35.22-.42.63-.61.78-.27.2-.4.42-.67.62-.19.14-.59.08-.9.32-.33.23-.63.31-.82.45-.28.2-.23.65-.5.84-.2.13-.36.37-.67.62-.31.25-.58.42-.77.55-.28.19-.69-.01-.97.19-.19.15-.45.34-.74.63-.29.29-.44.61-.58.8-.2.27-.1.6-.26.89-.12.2-.29.46-.54.76-.25.3-.65.33-.8.51-.23.25-.16.61-.37.87-.14.19-.17.5-.39.82-.22.34-.41.61-.53.83-.18.29-.33.52-.51.81-.14.22-.28.45-.47.81-.15.26-.35.41-.39.62-.03.26-.04.48-.02.7.02.22-.13.45-.16.7-.04.2-.15.32-.23.6-.09.29.1.7-.02.89-.15.24-.38.46-.56.6-.19.16-.43-.08-.61-.02-.22.07-.48.44-.61.42-.14-.03-.28-.29-.43-.49-.12-.16-.42-.22-.49-.49-.06-.24.31-.76.32-1.08,0-.27-.17-.54-.08-.88.11-.31.27-.5.42-.68.16-.25.19-.63.36-.81.16-.18.52-.07.67-.31.11-.19.21-.51.37-.79.19-.37.24-.67.33-.89.14-.32.15-.57.29-.9.08-.22.14-.54.36-.9.24-.37.75-.35.9-.55.22-.28.17-.67.41-.94.17-.19.26-.49.53-.83.27-.34.66-.41.81-.6.21-.29.25-.59.5-.85.18-.18.39-.39.69-.69.29-.31.38-.67.55-.85.26-.25.46-.4.74-.64.19-.16.53-.22.85-.5.32-.28.78-.25.97-.4.27-.23.06-.8.34-1.04.19-.17.49-.33.82-.6.34-.26.77-.17.98-.3.3-.19.32-.63.63-.82.21-.13.61-.06.96-.28.36-.23.57-.54.81-.64.33-.13.65.02.99-.11.23-.09.6-.03.97-.22.39-.17.55-.53.76-.67.29-.2.42-.45.72-.65.21-.14.52-.25.93-.4.4-.15.75.08.99.02.34-.08.5-.71.85-.8.24-.06.61.26,1.01.14.4-.12.67-.28.91-.37.33-.13.44-.52.78-.65.23-.1.56-.17.97-.27.42-.1.8.25,1.04.2.35-.07.56-.3.91-.37.25-.04.58.1.99.03.42-.07.69-.5.94-.51.36-.02.6.37.96.37.25,0,.53-.36.95-.41.42-.04.72.04.97-.02.35-.08.54-.38.89-.44.25-.04.6.02,1.02,0,.42-.02.72.06.97.04.36-.03.6-.05.96-.06.25,0,.55.24.97.25.42,0,.74-.28.98-.26.35.04.6.07.96.1.25.03.51.29.93.31.42.02.76-.25,1.01-.2.35.06.53.42.88.48.24.04.54.16.95.2.42.03.75.18,1,.17.35,0,.56-.61.91-.62.25,0,.57.28.99.33.41.06.69.21.93.25.35.06.59.09.94.15.24.05.58-.17.99-.1.41.07.67.3.91.36.34.08.51.42.85.5.24.05.62-.31,1.03-.22.41.08.72.11.96.18.34.09.49.45.83.54.24.06.52.12.92.22.4.09.66.44.91.47.35.05.62-.21.97-.16.24.04.52.09.92.19.4.1.67.2.9.27.33.11.47.43.8.55.23.08.55.14.95.24.4.1.77-.31,1.01-.29.35.03.6,0,.95.02.25.02.54.24.94.35.4.1.59.43.82.52.32.12.64.02.96.15.23.09.43.45.82.55.4.11.79-.18,1.02-.1.33.11.46.49.79.6.23.08.49.29.88.39.4.11.74.1.98.13.35.06.59.1.93.16.24.03.52-.07.92.03.4.11.69.11.92.21.32.14.61.09.93.23.22.1.41.44.81.54.4.1.66.23.9.29.34.08.64-.16.97-.08.23.05.52.11.92.19.4.09.66.29.91.3.34,0,.59-.18.93-.18.25,0,.57,0,.98.08.4.08.71.09.94.16.33.09.44.58.77.68.23.07.61-.31,1.01-.24.4.07.59.65.82.69.34.06.63-.19.96-.13.23.04.49.26.89.32.4.06.74-.16.98-.09.33.09.56.17.9.25.23.06.49.11.89.16.4.05.69.48.93.48.34,0,.57-.37.91-.39.24-.01.53.06.93.1.4.03.63.31.87.36.33.08.58.11.92.18.24.04.57-.13.97-.11.4.02.7-.25.93-.24.34,0,.57.25.91.26.24,0,.52.3.93.3.41,0,.69-.28.92-.31.34-.04.59.02.93-.02.24-.03.51.05.91.04.4,0,.71,0,.94-.03.34-.05.57-.13.9-.18.23-.03.45-.57.84-.6.39-.05.71.44.95.42.34-.02.57-.24.91-.26.23-.02.54.06.93-.03.39-.08.67-.18.9-.24.33-.08.56-.14.88-.23.23-.05.44-.36.82-.47.38-.1.59-.34.81-.41.32-.1.56-.12.87-.22.22-.08.63.27,1.01.14.38-.13.58-.37.81-.42.33-.07.54-.22.86-.32.22-.06.61.17.98.01s.63-.33.84-.44c.3-.16.24-.72.52-.9.19-.12.73.26,1.08.08s.31-.87.51-.97c.29-.17.64-.04.93-.21.2-.12.4-.35.74-.55.35-.2.77,0,.98-.11.3-.16.41-.48.71-.64.21-.11.48-.22.82-.44.34-.21.46-.6.67-.71.3-.17.48-.34.78-.51.21-.12.73.18,1.06-.05.33-.24.34-.71.51-.87.25-.23.6-.23.86-.46.18-.16.47-.22.8-.46.33-.24.48-.52.68-.65.28-.2.27-.64.56-.84.2-.14.73.11,1.06-.13.33-.24.48-.51.69-.63.3-.18.42-.45.72-.63.21-.12.63-.04.96-.29.34-.24.5-.54.68-.71.26-.23.2-.67.47-.9.19-.16.73.05,1.07-.18.34-.24.31-.86.53-.98.32-.16.7.05,1.02-.11.22-.11.35-.47.71-.69.35-.23.62-.34.83-.48.3-.19.73-.01,1.02-.21.21-.13.41-.34.77-.55.36-.21.48-.6.69-.75.3-.2.66-.13.96-.33.21-.13.48-.2.88-.36.39-.17.65-.26.89-.34.34-.12.41-.76.76-.88.23-.09.5-.18.91-.32.42-.14.87.24,1.1.16.34-.11.55-.3.9-.38.25-.06.57,0,.99-.1.42-.09.64-.49.89-.55.35-.11.65.04,1.01-.02.25-.04.54-.2.97-.25.43-.04.75-.15,1.01-.12.37.02.62.18.98.2.25.02.56-.14.99-.11.44.02.78.44,1.03.42.36-.04.58-.51.95-.52.26,0,.55.33.98.38.43.06.71.14.96.2.35.09.66-.06,1.02.04.24.08.59-.05,1.01.06.43.11.62.51.85.61.34.13.71-.1,1.06.04.24.09.33.67.72.83.4.15.63.34.86.44.32.14.8-.26,1.13-.1.23.11.24.76.62.94.38.19.81-.04,1.05.04.34.11.56.29.89.42.24.09.37.45.74.65.37.2.62.37.84.49.3.18.65.09.96.27.22.12.66-.02,1.02.21.35.23.39.71.59.85.28.21.56.27.84.48.19.15.43.33.77.57.34.25.41.63.59.79.27.22.72.07.99.3.19.16.38.37.71.62.33.25.25.84.44.99.27.22.81-.06,1.08.15.19.15.2.61.52.87.32.26.69.26.88.41.27.21.39.46.67.67.19.15.26.53.57.79.32.26.64.33.82.49.26.23.45.39.71.61.19.15.52.2.84.45.32.26.7.26.88.41.26.22.07.83.33,1.05.18.16.51.23.83.48.32.25.8.12.98.27.27.21.21.68.48.89.19.15.49.24.81.48.32.24.47.52.65.67.27.21.66.1.93.31.19.14.16.67.49.91.33.23.78.1.97.24.28.2.4.43.69.63.19.14.38.38.72.6.34.22.67.28.9.35.32.11.66-.1.98,0,.23.08.54.18.89.37.35.19.39.65.58.79.27.21.45.36.73.55.19.13.46.27.81.45.36.18.61.35.83.43.32.1.55.17.87.28.22.07.6-.17.96-.03.36.14.53.47.74.57.31.13.52.22.83.35.22.08.58-.13.96-.04.38.09.64.12.86.16.32.05.48.49.81.54.23.04.53-.1.91,0,.38.1.57.45.8.5.33.08.64-.23.96-.15.22.05.5-.02.88.03.39.05.63.51.86.53.33.02.6-.49.92-.49.23,0,.5.33.89.34.39,0,.68.35.92.35.34,0,.55-.48.88-.53.23-.02.5-.12.89-.16.39-.04.66,0,.89-.04.33-.05.59.11.92.06.23-.02.46-.38.85-.45.38-.07.71.15.94.11.33-.05.58.02.91-.04.23-.04.56.12.95.03.39-.11.62-.41.84-.5.31-.13.37-.66.67-.79.21-.09.64.26,1.02.16.39-.1.57-.5.8-.56.33-.07.58-.04.91-.12.23-.05.54.03.92-.1.38-.13.72-.06.94-.16.31-.14.52-.27.82-.42.21-.11.43-.27.8-.43.37-.16.6-.3.83-.35.33-.06.59-.1.92-.16.23-.06.42-.39.79-.57.37-.18.52-.42.7-.58.26-.22.65-.14.91-.36.19-.16.22-.64.58-.84.35-.2.84.18,1.06.09.32-.12.4-.58.72-.7.22-.09.64.11,1-.09.36-.18.61-.31.82-.42.3-.17.36-.55.66-.72.21-.12.6-.02.94-.24.35-.21.65-.28.85-.4.29-.18.32-.58.6-.78.2-.14.54-.14.88-.36.34-.22.5-.52.69-.66.27-.21.44-.39.71-.59.19-.14.2-.64.53-.87.33-.23.72-.17.92-.31.28-.2.66-.08.94-.28.2-.14.22-.6.55-.83.33-.23.8-.1.99-.25.27-.21.47-.36.74-.57.19-.15.38-.36.7-.6.33-.24.2-.88.39-1.03.27-.21.52-.29.78-.51.19-.15.42-.33.73-.59.33-.25.84.03,1.07-.08.31-.15.43-.48.74-.63.22-.11.45-.29.77-.54.32-.25.56-.42.74-.58.26-.23.31-.54.56-.77.18-.16.71.03,1.04-.23.32-.26.46-.58.63-.75.25-.24.24-.62.49-.86.18-.17.69,0,1.01-.26.32-.26.53-.43.74-.55.3-.18.28-.69.58-.87.21-.13.47-.23.8-.48.33-.25.76-.18.95-.33.27-.22.15-.79.43-.99.2-.15.68.01,1.02-.23.34-.24.3-.74.48-.9.26-.24.42-.44.68-.68.18-.17.49-.3.84-.53.34-.24.88.02,1.08-.12.29-.2.54-.27.83-.47.2-.14.44-.3.79-.54.34-.24.45-.61.65-.76.29-.2.32-.59.6-.8.2-.14.37-.45.72-.67.36-.23.9.15,1.13.05.32-.14.43-.55.76-.68.23-.09.57-.06.93-.27.36-.21.44-.64.65-.77.3-.19.8.15,1.09-.03.21-.12.33-.5.7-.7.37-.2.52-.56.74-.67.31-.17.53-.28.85-.45.22-.11.69.18,1.06,0,.38-.18.54-.52.77-.62.33-.14.69.08,1.02-.06.22-.1.35-.56.73-.74.38-.18.86.15,1.09.06.32-.14.33-.71.66-.85.23-.1.68.22,1.07.07.39-.16.52-.65.73-.78.3-.19.44-.48.76-.64.23-.12.65.11,1.06-.03.41-.13.66-.26.92-.29.35-.02.62-.04.97-.06.25-.03.56-.09.98-.2.41-.1.72-.13.96-.21.34-.11.58-.19.92-.3.24-.08.51-.17.93-.23.42-.06.67-.36.92-.4.36-.06.64.09.99.03.25-.04.52-.22.95-.28.42-.08.74.02.99,0,.36-.01.63.23.99.21.25-.01.52-.65.96-.67.43-.02.76-.05,1.02-.02.36.04.58.4.94.44.25.03.55-.22.98-.19.44.03.69.59.95.62.36.04.72-.38,1.08-.28.26.07.48.6.9.67.32.05.6-.15.83-.18.29-.04.48-.22.73-.3.25-.08.55-.12.84-.1.23.04.43.45.73.58.31.14.68.03.91.22.26.21.23.53.39.74.18.24.48.37.53.6.1.22.06.39.01.53-.05.14.11.48-.12.59-.1.07-.21.02-.4.14-.16.04-.33.08-.47.13-.25.08-.57.27-.88.32-.26.05-.56-.21-.86-.24Z"/>
</svg>