<?xml version="1.0" encoding="UTF-8"?>
<svg id="Primary_Logos_Stacked" data-name="Primary Logos – Stacked" xmlns="http://www.w3.org/2000/svg" viewBox="0 0 324.45 128.23">
  <defs>
    <style>
      .cls-1 {
        fill: #fff;
      }

      .cls-2 {
        fill: #001b43;
      }
    </style>
  </defs>
  <g>
    <path class="cls-1" d="M82.32,96.98c0,1.77-1.39,3.16-3.2,3.16s-3.21-1.39-3.21-3.16,1.43-3.12,3.21-3.12,3.2,1.39,3.2,3.12ZM76.7,96.98c0,1.39,1.03,2.49,2.43,2.49s2.38-1.1,2.38-2.47-1.01-2.51-2.4-2.51-2.42,1.12-2.42,2.49ZM78.63,98.61h-.72v-3.12c.29-.06.68-.1,1.2-.1.59,0,.86.1,1.08.23.17.13.3.38.3.68,0,.34-.27.61-.65.72v.04c.3.11.48.34.57.76.1.48.15.67.23.78h-.78c-.1-.11-.15-.4-.25-.76-.06-.34-.25-.49-.65-.49h-.34v1.26ZM78.64,96.84h.34c.4,0,.72-.13.72-.46,0-.29-.21-.48-.67-.48-.19,0-.32.02-.4.04v.89Z"/>
    <g>
      <path class="cls-1" d="M87.69,28.67v35.28c0,9.24-2.56,16.62-7.83,22.56-4.23,4.76-10.48,10.6-21.33,13.48l-.53.14-.52-.14c-10.85-2.88-17.1-8.71-21.33-13.48-5.28-5.94-7.84-13.32-7.83-22.56V28.67h59.37Z"/>
      <path class="cls-2" d="M85.64,30.72v33.23c0,8.72-2.39,15.65-7.31,21.2-4.09,4.6-10.06,10.14-20.32,12.86-10.27-2.72-16.24-8.26-20.32-12.86-4.92-5.55-7.32-12.48-7.31-21.2V30.72h55.27Z"/>
      <path class="cls-1" d="M48.12,45.19l4.22,12.32h.08v-12.32h5.58v-8.13h-21.31v26.91c0,7.2,1.81,12.6,5.72,16.99,3.46,3.9,8,8.09,15.59,10.48v-18.44h-6.04l-4.41-14.41h-.08v14.41h-5.58v-27.81h6.23Z"/>
      <polyline class="cls-1" points="68.25 45.19 68.25 56.07 63.68 56.07 63.68 45.19 58 45.19 58 72.99 63.77 72.99 63.77 61.8 68.35 61.8 68.35 72.99 74.11 72.99 74.11 45.19 68.25 45.19"/>
    </g>
  </g>
  <g>
    <g>
      <path class="cls-1" d="M101.72,40.62h7.65v2.31h-2.28v8.73c0,1.31-.03,2.54.67,3.67.67,1.08,1.8,1.54,3.06,1.54.64,0,1.08-.13,1.67-.39.95-.38,1.49-1.46,1.77-2.39.23-.85.18-1.85.18-2.7v-8.47h-2.26v-2.31h7.32v2.31h-1.85v8.16c0,1.39.08,2.98-.49,4.29-.56,1.28-1.51,2.36-2.72,3.06-.98.59-2.8.87-3.95.87s-2.77-.33-3.75-.87c-1.08-.56-1.87-1.49-2.44-2.54-.74-1.33-.72-2.85-.72-4.34v-8.63h-1.85v-2.31Z"/>
      <path class="cls-1" d="M124.75,47.58c.87-1.75,2.18-2.57,4.11-2.57,2.1,0,3.7,1.31,4,2.57.18.72.18,1.26.18,1.85v7.39h1.69v2.18h-6.7v-2.18h1.59v-6.14c0-.67.03-1.21-.18-1.87-.23-.82-.92-1.44-1.82-1.44-2.49,0-2.64,2.34-2.64,4.24v5.21h1.64v2.18h-6.85v-2.18h1.8v-9.29h-1.8v-2.18h4.98v2.23Z"/>
      <path class="cls-1" d="M135.91,59v-2.18h1.82v-9.29h-1.82v-2.18h5.24v11.48h1.59v2.18h-6.83ZM141.15,40.13v3.13h-3.41v-3.13h3.41Z"/>
      <path class="cls-1" d="M142.61,45.34h6.42v2.18h-1.69l2.54,8.7h.03l2.88-8.7h-1.72v-2.18h6.01v2.18h-1.05l-4.03,11.48h-4.24l-4.06-11.48h-1.08v-2.18Z"/>
      <path class="cls-1" d="M160.77,52.86c-.03,1.95.8,4.21,3.13,4.21,1.36,0,2.31-.92,2.54-2.23h3.26c-.23,3-3.21,4.47-5.98,4.47-.87,0-2.05-.28-2.85-.64-.9-.41-1.49-.92-2.08-1.72-1.08-1.39-1.49-3.18-1.49-4.9,0-3.75,2.13-7.03,6.26-7.03,1.82,0,3.54.49,4.8,1.82,1.1,1.18,1.44,3.11,1.51,4.65.03.41.08.8.03,1.18,0,.08-.03.13-.03.21h-9.11ZM166.44,50.89c-.03-1.54-.64-3.75-2.59-3.75-2.16,0-2.85,1.95-3,3.75h5.6Z"/>
      <path class="cls-1" d="M175.78,48.24c.54-2.39,2.16-3.36,4.54-3.13v3.34c-.38-.1-.8-.21-1.21-.21-1.26,0-2.36.77-2.8,1.93-.33.92-.33,2.18-.33,3.13v3.52h2.18v2.18h-7.39v-2.18h1.8v-9.29h-1.8v-2.18h5.01v2.9Z"/>
      <path class="cls-1" d="M189.27,49.73c-.15-1.46-.69-2.67-2.34-2.67-1.1,0-2.13.49-2.13,1.75,0,.44.13.72.41,1.05.23.18.51.26.77.39,1.46.41,4.21.62,5.24,1.9.69.85.95,1.64.95,2.72.03.8-.33,2.03-.85,2.75-.62.85-2.11,1.69-4.03,1.69-1.28,0-2.67-.59-3.36-1.69v1.39h-2.46v-4.75h2.67c.1,1.69.85,2.88,2.67,2.88.95,0,1.93-.67,1.93-1.69,0-.51-.15-1.13-.67-1.39-1.54-.74-3.41-.56-4.88-1.54-1.26-.87-1.75-2.05-1.75-3.57-.13-1.13.54-1.95.9-2.46.51-.72,2.21-1.46,3.8-1.46,1.18,0,2.52.51,3.23,1.46v-1.13h2.41v4.39h-2.52Z"/>
      <path class="cls-1" d="M193.42,59v-2.18h1.82v-9.29h-1.82v-2.18h5.24v11.48h1.59v2.18h-6.83ZM198.66,40.13v3.13h-3.41v-3.13h3.41Z"/>
      <path class="cls-1" d="M209.57,55.41c0,1.62-.51,3.11-2.21,3.65-.28.1-1.13.26-1.41.26-.62,0-.98-.1-1.57-.26-1.18-.36-1.82-1.18-2.08-2.34-.13-.56-.1-1.77-.1-2.39v-6.8h-2.03v-2.18h2.03v-2.34l3.41-1.16v3.49h3.41v2.18h-3.41v8.55c0,.26.15.77.41.87,1.57.64,1.46-1.54,1.44-2.46h2.1v.92Z"/>
      <path class="cls-1" d="M210.22,45.34h6.55v2.18h-1.77l2.62,7.21.13.33,2.62-7.55h-1.69v-2.18h6.06v2.18h-1.08l-4.88,12.32c-.82,2.13-1.62,3.65-4.18,3.65-.69,0-1.39,0-2.05-.13v-2.36c.46.03.92.08,1.39.08,1.23,0,1.49-.41,1.93-1.46l.18-.44-4.7-11.66h-1.1v-2.18Z"/>
    </g>
    <g>
      <path class="cls-1" d="M233.59,57.05c-1.13-1.41-1.57-3.21-1.57-4.98,0-1.93.46-3.67,1.8-5.11,1.21-1.28,3.03-1.95,4.77-1.95,4.39,0,6.75,3.06,6.75,7.19s-2.44,7.11-6.65,7.11c-1.85,0-3.95-.82-5.11-2.26ZM235.59,52.15c0,1.13.1,2.16.64,3.18.49.98,1.36,1.72,2.52,1.72,1.23,0,2.08-.87,2.54-1.93.39-.9.49-2.08.49-3.03,0-1.13-.1-2.1-.62-3.13-.49-.95-1.31-1.69-2.46-1.69-2.46,0-3.11,2.98-3.11,4.88Z"/>
      <path class="cls-1" d="M246.12,47.52v-2.18h2v-1.18c0-1.26.26-2.59,1.39-3.31,1.1-.74,2.16-1,3.49-1,.64,0,1.28.15,1.93.33v2.31c-.46-.08-.9-.15-1.36-.15-.69,0-1.26.15-1.75.69-.31.41-.28,1.36-.28,1.8v.51h2.34v2.18h-2.34v9.29h2.26v2.18h-7.52v-2.18h1.85v-9.29h-2Z"/>
    </g>
    <g>
      <path class="cls-1" d="M101.72,84.8v-2.31h2.13v-13.76h-2.13v-2.31h6.83l6.83,14.45h.03v-12.14h-2.16v-2.31h7.24v2.31h-2v16.07h-4.54l-6.98-14.84h-.03v12.53h2.03v2.31h-7.24Z"/>
      <path class="cls-1" d="M123.83,78.66c-.03,1.95.8,4.21,3.13,4.21,1.36,0,2.31-.92,2.54-2.23h3.26c-.23,3-3.21,4.47-5.98,4.47-.87,0-2.05-.28-2.85-.64-.9-.41-1.49-.92-2.08-1.72-1.08-1.39-1.49-3.18-1.49-4.9,0-3.75,2.13-7.03,6.26-7.03,1.82,0,3.54.49,4.8,1.82,1.1,1.18,1.44,3.11,1.51,4.65.03.41.08.8.03,1.18,0,.08-.03.13-.03.21h-9.11ZM129.5,76.69c-.03-1.54-.64-3.75-2.59-3.75-2.16,0-2.85,1.95-3,3.75h5.6Z"/>
      <path class="cls-1" d="M140.09,71.14v2.18h-1.82l1.95,8.83h.03l2.9-11.01h4.16l2.54,11.01h.03l2.31-8.83h-1.75v-2.18h6.06v2.18h-1.26l-3.29,11.48h-4.31l-2.46-10.24-2.8,10.24h-4.31l-3.29-11.48h-1.21v-2.18h6.52Z"/>
    </g>
    <g>
      <path class="cls-1" d="M164.66,84.8v-2.31h2.1v-13.76h-2.1v-2.31h7.86v2.31h-2.23v5.6h7.45v-5.6h-2.23v-2.31h7.88v2.31h-2.13v13.76h2.13v2.31h-7.88v-2.31h2.23v-5.85h-7.45v5.85h2.23v2.31h-7.86Z"/>
      <path class="cls-1" d="M193,82.62c-.77,1.72-2.41,2.49-4.26,2.49s-3.75-1.08-4.06-2.49c-.28-.9-.31-1.36-.31-1.77,0-1.16.46-2.31,1.33-3.08.67-.62,2.21-1.16,3.11-1.18.64-.03,1.33-.13,1.98-.13s1.23.08,1.85.1c.18-1.64-.05-3.7-2.18-3.7-1.49,0-2.21,1.03-2.18,2.46h-3.39c.08-3.34,2.57-4.52,5.57-4.52,2.13,0,4.13.56,5.06,2.67.21.46.26.74.33,1.28.08.59.1,1.16.1,1.75v6.14h1.77v2.16h-4.72v-2.18ZM191.13,78.48c-1.75,0-3.34.41-3.34,2.49,0,1.05.69,1.9,1.8,1.9,2.49,0,3.08-2.39,3.16-4.39h-1.62Z"/>
      <path class="cls-1" d="M203.79,73.38c.87-1.75,2.31-2.57,4.29-2.57,1.82,0,3.16.69,3.8,2.57.74-1.75,2.21-2.57,3.98-2.57,1.95,0,3.34.9,4,2.57.33.85.23,1.46.23,2.13v7.11h1.67v2.18h-6.7v-2.18h1.62v-6.08c0-1.39-.18-3.21-2.03-3.21-1,0-1.72.46-2.16,1.39-.44.9-.44,1.67-.44,2.64v5.26h1.59v2.18h-6.57v-2.18h1.57v-6.32c0-.77,0-1.36-.33-2.08-.26-.54-.92-.9-1.51-.9-1.44,0-2.21.87-2.59,2.16-.18.67-.18,1.31-.18,2v5.13h1.64v2.18h-6.85v-2.18h1.8v-9.29h-1.8v-2.18h4.98v2.23Z"/>
      <path class="cls-1" d="M226.96,73.45c.95-1.85,2.41-2.64,4.03-2.64,2.08,0,3.47.85,4.7,2.64.54.8,1,2.49,1,4.34,0,2.05-.21,3.34-1.28,5.11-.87,1.44-2.72,2.21-4.36,2.21-1.51,0-2.85-.67-3.88-2.36v4.03h1.93v2.18h-7.14v-2.18h1.8v-13.45h-1.8v-2.18h5.01v2.31ZM227.78,74.69c-.59,1.13-.82,2.23-.82,3.34,0,1.93.74,4.78,3.16,4.78s3.06-2.7,3.06-4.65-.39-5.11-2.95-5.11c-1.1,0-2.03.77-2.44,1.64Z"/>
      <path class="cls-1" d="M245.88,75.53c-.15-1.46-.69-2.67-2.34-2.67-1.1,0-2.13.49-2.13,1.75,0,.44.13.72.41,1.05.23.18.51.26.77.39,1.46.41,4.21.62,5.24,1.9.69.85.95,1.64.95,2.72.03.8-.33,2.03-.85,2.75-.62.85-2.11,1.69-4.03,1.69-1.28,0-2.67-.59-3.36-1.69v1.39h-2.46v-4.75h2.67c.1,1.69.85,2.88,2.67,2.88.95,0,1.93-.67,1.93-1.69,0-.51-.15-1.13-.67-1.39-1.54-.74-3.41-.56-4.88-1.54-1.26-.87-1.75-2.05-1.75-3.57-.13-1.13.54-1.95.9-2.46.51-.72,2.21-1.46,3.8-1.46,1.18,0,2.52.51,3.23,1.46v-1.13h2.41v4.39h-2.52Z"/>
      <path class="cls-1" d="M249.89,84.8v-2.18h1.75v-14.33h-1.75v-2.18h5.16v6.8c.95-1.51,2.11-2.1,3.9-2.1,1.13,0,2.49.33,3.26,1.21.82.92.95,2.05.95,3.23v7.37h1.72v2.18h-6.8v-2.18h1.67v-6.14c0-.51-.05-1.05-.13-1.57-.08-.98-.87-1.77-1.87-1.77-1.23,0-1.93.64-2.34,1.75-.38.95-.36,1.9-.36,2.9v4.83h1.67v2.18h-6.83Z"/>
      <path class="cls-1" d="M265.91,84.8v-2.18h1.82v-9.29h-1.82v-2.18h5.24v11.48h1.59v2.18h-6.83ZM271.15,65.93v3.13h-3.41v-3.13h3.41Z"/>
      <path class="cls-1" d="M278.92,74.04c.54-2.39,2.16-3.36,4.54-3.13v3.34c-.38-.1-.8-.21-1.21-.21-1.26,0-2.36.77-2.8,1.93-.33.92-.33,2.18-.33,3.13v3.52h2.18v2.18h-7.39v-2.18h1.8v-9.29h-1.8v-2.18h5.01v2.9Z"/>
      <path class="cls-1" d="M287.58,78.66c-.03,1.95.8,4.21,3.13,4.21,1.36,0,2.31-.92,2.54-2.23h3.26c-.23,3-3.21,4.47-5.98,4.47-.87,0-2.05-.28-2.85-.64-.9-.41-1.49-.92-2.08-1.72-1.08-1.39-1.49-3.18-1.49-4.9,0-3.75,2.13-7.03,6.26-7.03,1.82,0,3.54.49,4.8,1.82,1.1,1.18,1.44,3.11,1.51,4.65.03.41.08.8.03,1.18,0,.08-.03.13-.03.21h-9.11ZM293.25,76.69c-.03-1.54-.64-3.75-2.59-3.75-2.16,0-2.85,1.95-3,3.75h5.6Z"/>
    </g>
  </g>
</svg>